M48
;Layer_Color=9474304
;FILE_FORMAT=2:5
INCH,LZ
;TYPE=PLATED
T1F00S00C0.01181
T2F00S00C0.01575
T3F00S00C0.03150
T4F00S00C0.03937
T5F00S00C0.04724
%
T01
X0204725Y0125984
X0200787Y0133858
X0208662
X0204725Y0141732
X0212598
X0208662Y0149606
X0200787
X0212598Y0188977
X02385Y01905
X02415
X0275Y01745
X0299213Y0173228
X0311024Y0181103
X0307087Y0188977
T02
X0189482Y0173
X0195468
T03
X02455Y0123504
X02555
X02655
X02755
Y0155
X02655
X02555
X02455
T04
X028761Y0182
X030139
T05
X0193126Y0127685
X0216Y0128157
Y0147843
X0308874Y0148158
Y0167842
X024Y0178
X0212441
X0193126Y0188315
M30
