G04 Layer_Color=65535*
%FSLAX25Y25*%
%MOIN*%
G70*
G01*
G75*
%ADD27C,0.00394*%
%ADD28C,0.00787*%
G36*
X242066Y187561D02*
X242110D01*
X242160Y187556D01*
X242216Y187544D01*
X242283Y187528D01*
X242349Y187511D01*
X242427Y187489D01*
X242505Y187461D01*
X242582Y187428D01*
X242666Y187383D01*
X242743Y187334D01*
X242821Y187278D01*
X242899Y187211D01*
X242971Y187134D01*
X242976Y187128D01*
X242987Y187111D01*
X243004Y187089D01*
X243026Y187050D01*
X243059Y187001D01*
X243087Y186945D01*
X243121Y186873D01*
X243154Y186795D01*
X243193Y186701D01*
X243226Y186595D01*
X243254Y186479D01*
X243282Y186351D01*
X243309Y186207D01*
X243326Y186051D01*
X243337Y185885D01*
X243342Y185707D01*
Y185702D01*
Y185696D01*
Y185680D01*
Y185657D01*
X243337Y185602D01*
Y185524D01*
X243331Y185435D01*
X243320Y185330D01*
X243309Y185213D01*
X243293Y185086D01*
X243270Y184958D01*
X243243Y184819D01*
X243209Y184686D01*
X243170Y184553D01*
X243121Y184425D01*
X243065Y184303D01*
X243004Y184187D01*
X242932Y184087D01*
X242926Y184081D01*
X242915Y184070D01*
X242893Y184048D01*
X242865Y184015D01*
X242832Y183981D01*
X242788Y183948D01*
X242732Y183904D01*
X242676Y183865D01*
X242610Y183826D01*
X242538Y183782D01*
X242455Y183748D01*
X242371Y183709D01*
X242277Y183682D01*
X242177Y183659D01*
X242072Y183648D01*
X241961Y183643D01*
X241916D01*
X241883Y183648D01*
X241844D01*
X241800Y183654D01*
X241694Y183676D01*
X241578Y183704D01*
X241456Y183748D01*
X241333Y183815D01*
X241272Y183854D01*
X241217Y183898D01*
X241211Y183904D01*
X241206Y183909D01*
X241189Y183926D01*
X241173Y183942D01*
X241145Y183970D01*
X241123Y184003D01*
X241061Y184081D01*
X241001Y184181D01*
X240945Y184303D01*
X240895Y184442D01*
X240862Y184597D01*
X241333Y184636D01*
Y184631D01*
X241339Y184625D01*
X241344Y184592D01*
X241361Y184542D01*
X241383Y184481D01*
X241406Y184414D01*
X241439Y184348D01*
X241478Y184287D01*
X241517Y184237D01*
X241528Y184225D01*
X241550Y184203D01*
X241589Y184170D01*
X241644Y184131D01*
X241716Y184098D01*
X241794Y184065D01*
X241888Y184042D01*
X241988Y184031D01*
X242027D01*
X242072Y184037D01*
X242122Y184048D01*
X242188Y184065D01*
X242255Y184087D01*
X242321Y184115D01*
X242388Y184159D01*
X242399Y184165D01*
X242427Y184187D01*
X242466Y184225D01*
X242516Y184281D01*
X242571Y184348D01*
X242632Y184425D01*
X242688Y184525D01*
X242743Y184636D01*
Y184642D01*
X242749Y184653D01*
X242754Y184669D01*
X242765Y184692D01*
X242771Y184725D01*
X242782Y184764D01*
X242793Y184808D01*
X242804Y184864D01*
X242821Y184925D01*
X242832Y184991D01*
X242843Y185064D01*
X242849Y185141D01*
X242860Y185230D01*
X242865Y185319D01*
X242871Y185419D01*
Y185519D01*
X242865Y185513D01*
X242843Y185480D01*
X242804Y185435D01*
X242754Y185380D01*
X242699Y185313D01*
X242627Y185252D01*
X242549Y185191D01*
X242460Y185136D01*
X242455D01*
X242449Y185130D01*
X242416Y185114D01*
X242366Y185097D01*
X242299Y185069D01*
X242221Y185047D01*
X242133Y185030D01*
X242038Y185014D01*
X241938Y185008D01*
X241894D01*
X241861Y185014D01*
X241816Y185019D01*
X241772Y185025D01*
X241716Y185036D01*
X241661Y185052D01*
X241533Y185091D01*
X241467Y185119D01*
X241400Y185158D01*
X241333Y185197D01*
X241261Y185241D01*
X241195Y185297D01*
X241134Y185358D01*
X241128Y185363D01*
X241117Y185374D01*
X241100Y185391D01*
X241084Y185419D01*
X241056Y185458D01*
X241028Y185496D01*
X241001Y185546D01*
X240967Y185602D01*
X240934Y185663D01*
X240906Y185730D01*
X240878Y185807D01*
X240851Y185885D01*
X240834Y185968D01*
X240817Y186063D01*
X240806Y186157D01*
X240801Y186257D01*
Y186262D01*
Y186274D01*
Y186290D01*
Y186318D01*
X240806Y186351D01*
Y186384D01*
X240823Y186473D01*
X240840Y186579D01*
X240867Y186690D01*
X240906Y186812D01*
X240962Y186928D01*
Y186934D01*
X240967Y186940D01*
X240978Y186956D01*
X240989Y186978D01*
X241023Y187034D01*
X241073Y187106D01*
X241134Y187184D01*
X241206Y187261D01*
X241295Y187339D01*
X241389Y187406D01*
X241394D01*
X241400Y187411D01*
X241417Y187422D01*
X241439Y187428D01*
X241494Y187456D01*
X241567Y187483D01*
X241661Y187517D01*
X241766Y187539D01*
X241883Y187561D01*
X242011Y187567D01*
X242038D01*
X242066Y187561D01*
D02*
G37*
G36*
X188000Y188478D02*
X184997D01*
X185003Y188473D01*
X185025Y188445D01*
X185058Y188412D01*
X185097Y188356D01*
X185147Y188295D01*
X185203Y188217D01*
X185264Y188129D01*
X185325Y188029D01*
Y188023D01*
X185330Y188018D01*
X185353Y187984D01*
X185380Y187929D01*
X185414Y187862D01*
X185452Y187785D01*
X185491Y187701D01*
X185530Y187618D01*
X185564Y187535D01*
X185108D01*
Y187540D01*
X185097Y187551D01*
X185092Y187574D01*
X185075Y187601D01*
X185058Y187635D01*
X185036Y187674D01*
X184981Y187768D01*
X184920Y187879D01*
X184842Y187990D01*
X184753Y188107D01*
X184659Y188223D01*
X184653Y188229D01*
X184648Y188234D01*
X184631Y188251D01*
X184615Y188273D01*
X184559Y188323D01*
X184492Y188390D01*
X184415Y188456D01*
X184326Y188528D01*
X184237Y188589D01*
X184143Y188645D01*
Y188950D01*
X188000D01*
Y188478D01*
D02*
G37*
G36*
X186524Y186514D02*
X186579D01*
X186646Y186508D01*
X186712Y186503D01*
X186862Y186486D01*
X187018Y186464D01*
X187168Y186430D01*
X187240Y186408D01*
X187306Y186386D01*
X187312D01*
X187323Y186380D01*
X187340Y186369D01*
X187362Y186358D01*
X187423Y186325D01*
X187501Y186275D01*
X187589Y186208D01*
X187678Y186131D01*
X187773Y186031D01*
X187856Y185909D01*
Y185903D01*
X187867Y185892D01*
X187872Y185875D01*
X187889Y185848D01*
X187906Y185814D01*
X187922Y185770D01*
X187939Y185725D01*
X187961Y185670D01*
X187983Y185609D01*
X188000Y185542D01*
X188017Y185470D01*
X188033Y185387D01*
X188044Y185304D01*
X188056Y185215D01*
X188067Y185015D01*
Y185010D01*
Y184993D01*
Y184965D01*
X188061Y184926D01*
Y184882D01*
X188056Y184826D01*
X188050Y184765D01*
X188044Y184704D01*
X188022Y184566D01*
X187989Y184416D01*
X187944Y184272D01*
X187883Y184133D01*
Y184127D01*
X187872Y184116D01*
X187861Y184099D01*
X187850Y184077D01*
X187806Y184016D01*
X187745Y183944D01*
X187667Y183861D01*
X187578Y183783D01*
X187467Y183705D01*
X187345Y183644D01*
X187340D01*
X187328Y183639D01*
X187306Y183633D01*
X187278Y183622D01*
X187245Y183611D01*
X187201Y183600D01*
X187151Y183583D01*
X187090Y183572D01*
X187023Y183561D01*
X186951Y183544D01*
X186873Y183533D01*
X186790Y183522D01*
X186696Y183511D01*
X186596Y183505D01*
X186490Y183500D01*
X184159D01*
Y184011D01*
X186463D01*
X186502Y184016D01*
X186551D01*
X186657Y184022D01*
X186779Y184033D01*
X186901Y184049D01*
X187018Y184072D01*
X187068Y184083D01*
X187118Y184099D01*
X187129Y184105D01*
X187156Y184116D01*
X187195Y184144D01*
X187251Y184177D01*
X187306Y184216D01*
X187367Y184272D01*
X187428Y184338D01*
X187478Y184416D01*
X187484Y184427D01*
X187501Y184455D01*
X187517Y184504D01*
X187539Y184571D01*
X187567Y184649D01*
X187584Y184749D01*
X187600Y184854D01*
X187606Y184971D01*
Y184976D01*
Y184993D01*
Y185026D01*
X187600Y185059D01*
Y185109D01*
X187595Y185159D01*
X187573Y185282D01*
X187545Y185415D01*
X187501Y185542D01*
X187440Y185664D01*
X187401Y185720D01*
X187356Y185770D01*
X187351Y185775D01*
X187345Y185781D01*
X187328Y185792D01*
X187306Y185809D01*
X187273Y185826D01*
X187240Y185848D01*
X187190Y185870D01*
X187140Y185892D01*
X187079Y185914D01*
X187006Y185931D01*
X186923Y185953D01*
X186835Y185970D01*
X186735Y185986D01*
X186629Y185997D01*
X186507Y186009D01*
X184159D01*
Y186519D01*
X186474D01*
X186524Y186514D01*
D02*
G37*
G36*
X190699Y162419D02*
X190694Y162413D01*
X190683Y162402D01*
X190661Y162380D01*
X190638Y162347D01*
X190605Y162308D01*
X190561Y162263D01*
X190516Y162208D01*
X190466Y162141D01*
X190416Y162075D01*
X190355Y161997D01*
X190294Y161908D01*
X190233Y161819D01*
X190167Y161720D01*
X190100Y161614D01*
X190033Y161497D01*
X189967Y161381D01*
X189961Y161375D01*
X189950Y161353D01*
X189933Y161320D01*
X189906Y161270D01*
X189878Y161209D01*
X189845Y161142D01*
X189806Y161065D01*
X189767Y160976D01*
X189723Y160876D01*
X189673Y160776D01*
X189628Y160665D01*
X189584Y160548D01*
X189495Y160310D01*
X189412Y160055D01*
Y160049D01*
X189406Y160032D01*
X189401Y160004D01*
X189390Y159971D01*
X189378Y159927D01*
X189367Y159871D01*
X189351Y159810D01*
X189340Y159744D01*
X189323Y159666D01*
X189306Y159583D01*
X189278Y159405D01*
X189251Y159211D01*
X189234Y159000D01*
X188751D01*
Y159005D01*
Y159022D01*
Y159044D01*
X188757Y159078D01*
Y159122D01*
X188762Y159178D01*
X188768Y159239D01*
X188774Y159305D01*
X188785Y159383D01*
X188796Y159461D01*
X188812Y159555D01*
X188829Y159649D01*
X188846Y159749D01*
X188868Y159860D01*
X188923Y160088D01*
Y160093D01*
X188929Y160116D01*
X188940Y160149D01*
X188957Y160199D01*
X188973Y160254D01*
X188996Y160321D01*
X189018Y160399D01*
X189051Y160482D01*
X189084Y160576D01*
X189118Y160671D01*
X189201Y160881D01*
X189301Y161103D01*
X189412Y161326D01*
X189417Y161331D01*
X189428Y161353D01*
X189445Y161381D01*
X189467Y161425D01*
X189495Y161475D01*
X189534Y161536D01*
X189573Y161603D01*
X189617Y161675D01*
X189723Y161836D01*
X189833Y162003D01*
X189961Y162175D01*
X190094Y162336D01*
X188213D01*
Y162791D01*
X190699D01*
Y162419D01*
D02*
G37*
G36*
X296326Y152835D02*
X296376D01*
X296493Y152830D01*
X296615Y152813D01*
X296748Y152796D01*
X296870Y152769D01*
X296931Y152752D01*
X296981Y152735D01*
X296986D01*
X296992Y152730D01*
X297025Y152713D01*
X297075Y152691D01*
X297136Y152652D01*
X297203Y152602D01*
X297275Y152535D01*
X297342Y152458D01*
X297408Y152369D01*
Y152363D01*
X297414Y152358D01*
X297436Y152324D01*
X297458Y152269D01*
X297491Y152197D01*
X297519Y152114D01*
X297547Y152014D01*
X297564Y151908D01*
X297569Y151792D01*
Y151786D01*
Y151775D01*
Y151753D01*
X297564Y151725D01*
Y151686D01*
X297558Y151647D01*
X297536Y151553D01*
X297503Y151442D01*
X297458Y151326D01*
X297392Y151209D01*
X297347Y151153D01*
X297303Y151098D01*
X297297Y151092D01*
X297292Y151087D01*
X297275Y151070D01*
X297253Y151054D01*
X297225Y151031D01*
X297192Y151009D01*
X297147Y150981D01*
X297103Y150948D01*
X297047Y150920D01*
X296986Y150893D01*
X296920Y150859D01*
X296848Y150831D01*
X296764Y150809D01*
X296681Y150782D01*
X296587Y150765D01*
X296487Y150748D01*
X296498Y150743D01*
X296520Y150732D01*
X296553Y150709D01*
X296598Y150687D01*
X296698Y150626D01*
X296748Y150587D01*
X296792Y150554D01*
X296803Y150543D01*
X296831Y150515D01*
X296875Y150471D01*
X296931Y150415D01*
X296992Y150338D01*
X297064Y150254D01*
X297136Y150154D01*
X297214Y150043D01*
X297874Y149000D01*
X297242D01*
X296737Y149799D01*
Y149805D01*
X296726Y149816D01*
X296714Y149832D01*
X296698Y149855D01*
X296659Y149916D01*
X296609Y149994D01*
X296548Y150077D01*
X296487Y150165D01*
X296426Y150249D01*
X296370Y150326D01*
X296365Y150332D01*
X296348Y150354D01*
X296320Y150388D01*
X296282Y150426D01*
X296198Y150510D01*
X296154Y150549D01*
X296110Y150582D01*
X296104Y150587D01*
X296093Y150593D01*
X296071Y150604D01*
X296037Y150621D01*
X296004Y150637D01*
X295965Y150654D01*
X295876Y150682D01*
X295871D01*
X295860Y150687D01*
X295838D01*
X295810Y150693D01*
X295771Y150698D01*
X295726D01*
X295666Y150704D01*
X295011D01*
Y149000D01*
X294500D01*
Y152841D01*
X296282D01*
X296326Y152835D01*
D02*
G37*
G36*
X247000Y183659D02*
X245524D01*
X245424Y183665D01*
X245313Y183670D01*
X245202Y183682D01*
X245091Y183698D01*
X244997Y183715D01*
X244991D01*
X244980Y183721D01*
X244963D01*
X244941Y183731D01*
X244880Y183748D01*
X244802Y183776D01*
X244713Y183815D01*
X244619Y183865D01*
X244525Y183920D01*
X244436Y183992D01*
X244430Y183998D01*
X244425Y184003D01*
X244408Y184020D01*
X244386Y184037D01*
X244331Y184092D01*
X244264Y184170D01*
X244192Y184264D01*
X244114Y184375D01*
X244042Y184503D01*
X243981Y184647D01*
Y184653D01*
X243975Y184664D01*
X243964Y184686D01*
X243959Y184720D01*
X243942Y184758D01*
X243931Y184803D01*
X243920Y184853D01*
X243903Y184914D01*
X243886Y184975D01*
X243875Y185047D01*
X243848Y185202D01*
X243831Y185374D01*
X243825Y185563D01*
Y185569D01*
Y185580D01*
Y185607D01*
Y185635D01*
X243831Y185674D01*
Y185719D01*
X243836Y185824D01*
X243853Y185946D01*
X243870Y186074D01*
X243898Y186207D01*
X243931Y186340D01*
Y186346D01*
X243936Y186357D01*
X243942Y186373D01*
X243948Y186396D01*
X243970Y186457D01*
X244003Y186534D01*
X244036Y186623D01*
X244081Y186712D01*
X244136Y186806D01*
X244192Y186895D01*
X244197Y186906D01*
X244219Y186934D01*
X244253Y186973D01*
X244297Y187023D01*
X244347Y187078D01*
X244408Y187134D01*
X244469Y187195D01*
X244541Y187245D01*
X244552Y187250D01*
X244575Y187267D01*
X244614Y187289D01*
X244669Y187317D01*
X244736Y187350D01*
X244813Y187378D01*
X244902Y187411D01*
X245002Y187439D01*
X245013D01*
X245030Y187444D01*
X245046Y187450D01*
X245102Y187456D01*
X245180Y187467D01*
X245268Y187478D01*
X245374Y187489D01*
X245490Y187495D01*
X245618Y187500D01*
X247000D01*
Y183659D01*
D02*
G37*
G36*
X224076Y128835D02*
X224187Y128830D01*
X224298Y128818D01*
X224409Y128802D01*
X224503Y128785D01*
X224509D01*
X224520Y128779D01*
X224537D01*
X224559Y128769D01*
X224620Y128752D01*
X224698Y128724D01*
X224787Y128685D01*
X224881Y128635D01*
X224975Y128580D01*
X225064Y128508D01*
X225070Y128502D01*
X225075Y128497D01*
X225092Y128480D01*
X225114Y128463D01*
X225169Y128408D01*
X225236Y128330D01*
X225308Y128236D01*
X225386Y128125D01*
X225458Y127997D01*
X225519Y127853D01*
Y127847D01*
X225525Y127836D01*
X225536Y127814D01*
X225541Y127780D01*
X225558Y127742D01*
X225569Y127697D01*
X225580Y127647D01*
X225597Y127586D01*
X225613Y127525D01*
X225625Y127453D01*
X225652Y127298D01*
X225669Y127126D01*
X225675Y126937D01*
Y126931D01*
Y126920D01*
Y126893D01*
Y126865D01*
X225669Y126826D01*
Y126781D01*
X225663Y126676D01*
X225647Y126554D01*
X225630Y126426D01*
X225602Y126293D01*
X225569Y126160D01*
Y126154D01*
X225564Y126143D01*
X225558Y126127D01*
X225553Y126104D01*
X225530Y126043D01*
X225497Y125966D01*
X225464Y125877D01*
X225419Y125788D01*
X225364Y125694D01*
X225308Y125605D01*
X225303Y125594D01*
X225280Y125566D01*
X225247Y125527D01*
X225203Y125477D01*
X225153Y125422D01*
X225092Y125366D01*
X225031Y125305D01*
X224959Y125255D01*
X224948Y125250D01*
X224925Y125233D01*
X224886Y125211D01*
X224831Y125183D01*
X224764Y125150D01*
X224687Y125122D01*
X224598Y125089D01*
X224498Y125061D01*
X224487D01*
X224470Y125056D01*
X224454Y125050D01*
X224398Y125044D01*
X224320Y125033D01*
X224232Y125022D01*
X224126Y125011D01*
X224010Y125005D01*
X223882Y125000D01*
X222500D01*
Y128841D01*
X223976D01*
X224076Y128835D01*
D02*
G37*
G36*
X228161Y126354D02*
X228683D01*
Y125921D01*
X228161D01*
Y125000D01*
X227689D01*
Y125921D01*
X226019D01*
Y126354D01*
X227778Y128841D01*
X228161D01*
Y126354D01*
D02*
G37*
G36*
X288000Y148478D02*
X284997D01*
X285003Y148473D01*
X285025Y148445D01*
X285058Y148412D01*
X285097Y148356D01*
X285147Y148295D01*
X285203Y148217D01*
X285264Y148129D01*
X285325Y148029D01*
Y148023D01*
X285331Y148018D01*
X285353Y147984D01*
X285380Y147929D01*
X285414Y147862D01*
X285453Y147785D01*
X285491Y147701D01*
X285530Y147618D01*
X285563Y147535D01*
X285108D01*
Y147540D01*
X285097Y147552D01*
X285092Y147574D01*
X285075Y147601D01*
X285058Y147635D01*
X285036Y147674D01*
X284981Y147768D01*
X284920Y147879D01*
X284842Y147990D01*
X284753Y148107D01*
X284659Y148223D01*
X284653Y148229D01*
X284648Y148234D01*
X284631Y148251D01*
X284614Y148273D01*
X284559Y148323D01*
X284492Y148390D01*
X284415Y148456D01*
X284326Y148528D01*
X284237Y148589D01*
X284143Y148645D01*
Y148950D01*
X288000D01*
Y148478D01*
D02*
G37*
G36*
X249076Y169335D02*
X249187Y169330D01*
X249298Y169318D01*
X249409Y169302D01*
X249503Y169285D01*
X249509D01*
X249520Y169280D01*
X249537D01*
X249559Y169269D01*
X249620Y169252D01*
X249698Y169224D01*
X249787Y169185D01*
X249881Y169135D01*
X249975Y169080D01*
X250064Y169008D01*
X250070Y169002D01*
X250075Y168997D01*
X250092Y168980D01*
X250114Y168963D01*
X250169Y168908D01*
X250236Y168830D01*
X250308Y168736D01*
X250386Y168625D01*
X250458Y168497D01*
X250519Y168353D01*
Y168347D01*
X250525Y168336D01*
X250536Y168314D01*
X250541Y168280D01*
X250558Y168242D01*
X250569Y168197D01*
X250580Y168147D01*
X250597Y168086D01*
X250613Y168025D01*
X250625Y167953D01*
X250652Y167798D01*
X250669Y167626D01*
X250675Y167437D01*
Y167431D01*
Y167420D01*
Y167393D01*
Y167365D01*
X250669Y167326D01*
Y167281D01*
X250663Y167176D01*
X250647Y167054D01*
X250630Y166926D01*
X250602Y166793D01*
X250569Y166660D01*
Y166654D01*
X250564Y166643D01*
X250558Y166627D01*
X250553Y166604D01*
X250530Y166543D01*
X250497Y166466D01*
X250464Y166377D01*
X250419Y166288D01*
X250364Y166194D01*
X250308Y166105D01*
X250303Y166094D01*
X250280Y166066D01*
X250247Y166027D01*
X250203Y165977D01*
X250153Y165922D01*
X250092Y165866D01*
X250031Y165805D01*
X249959Y165755D01*
X249948Y165750D01*
X249925Y165733D01*
X249886Y165711D01*
X249831Y165683D01*
X249764Y165650D01*
X249687Y165622D01*
X249598Y165589D01*
X249498Y165561D01*
X249487D01*
X249470Y165556D01*
X249454Y165550D01*
X249398Y165544D01*
X249320Y165533D01*
X249232Y165522D01*
X249126Y165511D01*
X249010Y165506D01*
X248882Y165500D01*
X247500D01*
Y169341D01*
X248976D01*
X249076Y169335D01*
D02*
G37*
G36*
X253544Y168841D02*
X252007D01*
X251801Y167803D01*
X251807Y167809D01*
X251818Y167814D01*
X251835Y167825D01*
X251862Y167842D01*
X251896Y167859D01*
X251935Y167881D01*
X252023Y167925D01*
X252134Y167970D01*
X252256Y168009D01*
X252390Y168036D01*
X252456Y168047D01*
X252578D01*
X252611Y168042D01*
X252656Y168036D01*
X252706Y168031D01*
X252761Y168020D01*
X252822Y168003D01*
X252956Y167964D01*
X253028Y167936D01*
X253100Y167898D01*
X253172Y167859D01*
X253244Y167814D01*
X253311Y167759D01*
X253377Y167698D01*
X253383Y167692D01*
X253394Y167681D01*
X253411Y167665D01*
X253433Y167637D01*
X253461Y167598D01*
X253488Y167559D01*
X253522Y167509D01*
X253555Y167454D01*
X253583Y167393D01*
X253616Y167326D01*
X253644Y167248D01*
X253672Y167171D01*
X253694Y167087D01*
X253710Y166993D01*
X253721Y166899D01*
X253727Y166799D01*
Y166793D01*
Y166777D01*
Y166749D01*
X253721Y166710D01*
X253716Y166665D01*
X253710Y166616D01*
X253699Y166554D01*
X253688Y166493D01*
X253655Y166349D01*
X253599Y166199D01*
X253566Y166122D01*
X253522Y166050D01*
X253477Y165972D01*
X253422Y165900D01*
X253416Y165894D01*
X253405Y165877D01*
X253383Y165855D01*
X253355Y165827D01*
X253316Y165794D01*
X253272Y165750D01*
X253217Y165711D01*
X253155Y165666D01*
X253089Y165622D01*
X253011Y165583D01*
X252928Y165544D01*
X252839Y165506D01*
X252745Y165478D01*
X252639Y165456D01*
X252528Y165439D01*
X252412Y165433D01*
X252362D01*
X252323Y165439D01*
X252278Y165445D01*
X252229Y165450D01*
X252168Y165456D01*
X252106Y165472D01*
X251968Y165506D01*
X251829Y165556D01*
X251757Y165589D01*
X251685Y165628D01*
X251618Y165672D01*
X251552Y165722D01*
X251546Y165727D01*
X251535Y165733D01*
X251524Y165755D01*
X251501Y165778D01*
X251474Y165805D01*
X251446Y165839D01*
X251413Y165883D01*
X251385Y165933D01*
X251352Y165983D01*
X251318Y166044D01*
X251257Y166177D01*
X251207Y166332D01*
X251191Y166416D01*
X251180Y166505D01*
X251674Y166543D01*
Y166538D01*
Y166527D01*
X251679Y166510D01*
X251685Y166482D01*
X251701Y166421D01*
X251724Y166338D01*
X251757Y166255D01*
X251801Y166160D01*
X251857Y166077D01*
X251923Y165999D01*
X251935Y165994D01*
X251957Y165972D01*
X252001Y165944D01*
X252062Y165911D01*
X252129Y165877D01*
X252212Y165850D01*
X252306Y165827D01*
X252412Y165822D01*
X252445D01*
X252467Y165827D01*
X252534Y165833D01*
X252611Y165855D01*
X252706Y165883D01*
X252800Y165927D01*
X252900Y165994D01*
X252944Y166033D01*
X252989Y166077D01*
X252994Y166083D01*
X253000Y166088D01*
X253011Y166105D01*
X253028Y166122D01*
X253067Y166183D01*
X253111Y166260D01*
X253150Y166355D01*
X253189Y166471D01*
X253217Y166610D01*
X253228Y166682D01*
Y166760D01*
Y166765D01*
Y166777D01*
Y166799D01*
X253222Y166826D01*
Y166860D01*
X253217Y166899D01*
X253200Y166987D01*
X253172Y167093D01*
X253133Y167198D01*
X253078Y167298D01*
X253000Y167393D01*
Y167398D01*
X252989Y167404D01*
X252961Y167431D01*
X252911Y167470D01*
X252845Y167515D01*
X252756Y167553D01*
X252656Y167592D01*
X252539Y167620D01*
X252473Y167631D01*
X252367D01*
X252323Y167626D01*
X252268Y167620D01*
X252201Y167603D01*
X252134Y167587D01*
X252062Y167559D01*
X251990Y167526D01*
X251984Y167520D01*
X251962Y167509D01*
X251929Y167481D01*
X251885Y167454D01*
X251840Y167415D01*
X251796Y167365D01*
X251746Y167315D01*
X251707Y167254D01*
X251263Y167315D01*
X251635Y169291D01*
X253544D01*
Y168841D01*
D02*
G37*
G36*
X288000Y151464D02*
X284997D01*
X285003Y151459D01*
X285025Y151431D01*
X285058Y151398D01*
X285097Y151342D01*
X285147Y151281D01*
X285203Y151203D01*
X285264Y151115D01*
X285325Y151015D01*
Y151009D01*
X285331Y151004D01*
X285353Y150970D01*
X285380Y150915D01*
X285414Y150848D01*
X285453Y150770D01*
X285491Y150687D01*
X285530Y150604D01*
X285563Y150521D01*
X285108D01*
Y150526D01*
X285097Y150537D01*
X285092Y150560D01*
X285075Y150587D01*
X285058Y150621D01*
X285036Y150660D01*
X284981Y150754D01*
X284920Y150865D01*
X284842Y150976D01*
X284753Y151092D01*
X284659Y151209D01*
X284653Y151215D01*
X284648Y151220D01*
X284631Y151237D01*
X284614Y151259D01*
X284559Y151309D01*
X284492Y151375D01*
X284415Y151442D01*
X284326Y151514D01*
X284237Y151575D01*
X284143Y151631D01*
Y151936D01*
X288000D01*
Y151464D01*
D02*
G37*
G36*
X242511Y192955D02*
X244403D01*
Y192500D01*
X242000D01*
Y196341D01*
X242511D01*
Y192955D01*
D02*
G37*
G36*
X246179Y196352D02*
X246223Y196346D01*
X246279Y196341D01*
X246340Y196329D01*
X246401Y196318D01*
X246545Y196280D01*
X246690Y196224D01*
X246762Y196191D01*
X246834Y196152D01*
X246901Y196102D01*
X246962Y196046D01*
X246967Y196041D01*
X246978Y196035D01*
X246989Y196013D01*
X247012Y195991D01*
X247039Y195963D01*
X247067Y195924D01*
X247095Y195886D01*
X247128Y195835D01*
X247184Y195730D01*
X247239Y195597D01*
X247261Y195530D01*
X247272Y195453D01*
X247284Y195375D01*
X247289Y195292D01*
Y195281D01*
Y195253D01*
X247284Y195208D01*
X247278Y195147D01*
X247267Y195081D01*
X247245Y195003D01*
X247223Y194920D01*
X247189Y194837D01*
X247184Y194825D01*
X247173Y194798D01*
X247150Y194753D01*
X247117Y194692D01*
X247073Y194626D01*
X247017Y194542D01*
X246951Y194459D01*
X246873Y194365D01*
X246862Y194354D01*
X246834Y194320D01*
X246806Y194293D01*
X246778Y194265D01*
X246745Y194232D01*
X246701Y194187D01*
X246656Y194143D01*
X246601Y194093D01*
X246545Y194037D01*
X246479Y193976D01*
X246407Y193915D01*
X246329Y193843D01*
X246240Y193771D01*
X246151Y193693D01*
X246146Y193688D01*
X246135Y193677D01*
X246113Y193660D01*
X246085Y193638D01*
X246052Y193604D01*
X246013Y193571D01*
X245924Y193499D01*
X245830Y193416D01*
X245741Y193333D01*
X245663Y193260D01*
X245630Y193233D01*
X245602Y193205D01*
X245596Y193199D01*
X245580Y193183D01*
X245557Y193160D01*
X245530Y193127D01*
X245502Y193088D01*
X245469Y193050D01*
X245402Y192955D01*
X247295D01*
Y192500D01*
X244747D01*
Y192506D01*
Y192528D01*
Y192561D01*
X244753Y192605D01*
X244758Y192655D01*
X244770Y192711D01*
X244780Y192766D01*
X244803Y192827D01*
Y192833D01*
X244808Y192839D01*
X244819Y192872D01*
X244842Y192922D01*
X244875Y192988D01*
X244919Y193066D01*
X244975Y193155D01*
X245036Y193244D01*
X245113Y193338D01*
Y193344D01*
X245125Y193349D01*
X245152Y193382D01*
X245202Y193432D01*
X245274Y193505D01*
X245358Y193588D01*
X245463Y193688D01*
X245591Y193799D01*
X245730Y193915D01*
X245735Y193921D01*
X245757Y193937D01*
X245791Y193965D01*
X245830Y193999D01*
X245879Y194043D01*
X245940Y194093D01*
X246002Y194148D01*
X246074Y194209D01*
X246212Y194343D01*
X246351Y194476D01*
X246418Y194542D01*
X246479Y194609D01*
X246534Y194670D01*
X246579Y194731D01*
Y194737D01*
X246590Y194742D01*
X246601Y194759D01*
X246612Y194781D01*
X246651Y194842D01*
X246695Y194914D01*
X246734Y195003D01*
X246773Y195097D01*
X246795Y195203D01*
X246806Y195303D01*
Y195308D01*
Y195314D01*
X246801Y195347D01*
X246795Y195403D01*
X246778Y195464D01*
X246756Y195541D01*
X246718Y195619D01*
X246668Y195697D01*
X246601Y195774D01*
X246590Y195786D01*
X246562Y195808D01*
X246523Y195835D01*
X246462Y195874D01*
X246385Y195908D01*
X246296Y195941D01*
X246190Y195963D01*
X246074Y195969D01*
X246040D01*
X246018Y195963D01*
X245952Y195958D01*
X245874Y195941D01*
X245791Y195919D01*
X245696Y195880D01*
X245607Y195830D01*
X245524Y195763D01*
X245513Y195752D01*
X245491Y195724D01*
X245458Y195680D01*
X245424Y195614D01*
X245386Y195536D01*
X245352Y195436D01*
X245330Y195325D01*
X245319Y195197D01*
X244836Y195247D01*
Y195253D01*
X244842Y195270D01*
Y195297D01*
X244847Y195336D01*
X244858Y195380D01*
X244869Y195430D01*
X244886Y195492D01*
X244903Y195553D01*
X244947Y195686D01*
X245014Y195819D01*
X245053Y195886D01*
X245102Y195952D01*
X245152Y196013D01*
X245208Y196069D01*
X245214Y196074D01*
X245224Y196080D01*
X245241Y196096D01*
X245269Y196113D01*
X245302Y196135D01*
X245341Y196157D01*
X245386Y196185D01*
X245441Y196213D01*
X245502Y196241D01*
X245569Y196268D01*
X245641Y196291D01*
X245719Y196313D01*
X245802Y196329D01*
X245890Y196346D01*
X245985Y196352D01*
X246085Y196357D01*
X246140D01*
X246179Y196352D01*
D02*
G37*
G36*
X304174Y140669D02*
X304218D01*
X304324Y140664D01*
X304446Y140647D01*
X304574Y140630D01*
X304707Y140602D01*
X304840Y140569D01*
X304846D01*
X304857Y140564D01*
X304873Y140558D01*
X304896Y140552D01*
X304957Y140530D01*
X305034Y140497D01*
X305123Y140464D01*
X305212Y140419D01*
X305306Y140364D01*
X305395Y140308D01*
X305406Y140303D01*
X305434Y140280D01*
X305473Y140247D01*
X305523Y140203D01*
X305578Y140153D01*
X305634Y140092D01*
X305695Y140031D01*
X305745Y139959D01*
X305750Y139948D01*
X305767Y139925D01*
X305789Y139886D01*
X305817Y139831D01*
X305850Y139764D01*
X305878Y139687D01*
X305911Y139598D01*
X305939Y139498D01*
Y139492D01*
Y139487D01*
X305944Y139470D01*
X305950Y139454D01*
X305956Y139398D01*
X305967Y139320D01*
X305978Y139232D01*
X305989Y139126D01*
X305995Y139010D01*
X306000Y138882D01*
Y137500D01*
X302159D01*
Y138821D01*
Y138826D01*
Y138843D01*
Y138865D01*
Y138893D01*
Y138932D01*
Y138976D01*
X302165Y139076D01*
X302170Y139187D01*
X302182Y139298D01*
X302198Y139409D01*
X302215Y139504D01*
Y139509D01*
X302220Y139520D01*
Y139537D01*
X302232Y139559D01*
X302248Y139620D01*
X302276Y139698D01*
X302315Y139787D01*
X302365Y139881D01*
X302420Y139975D01*
X302492Y140064D01*
X302498Y140070D01*
X302503Y140075D01*
X302520Y140092D01*
X302537Y140114D01*
X302592Y140170D01*
X302670Y140236D01*
X302764Y140308D01*
X302875Y140386D01*
X303003Y140458D01*
X303147Y140519D01*
X303153D01*
X303164Y140525D01*
X303186Y140536D01*
X303220Y140541D01*
X303258Y140558D01*
X303303Y140569D01*
X303353Y140580D01*
X303414Y140597D01*
X303475Y140614D01*
X303547Y140625D01*
X303702Y140652D01*
X303874Y140669D01*
X304063Y140675D01*
X304135D01*
X304174Y140669D01*
D02*
G37*
G36*
X306500Y122742D02*
X305701Y122237D01*
X305695D01*
X305684Y122225D01*
X305667Y122214D01*
X305645Y122198D01*
X305584Y122159D01*
X305507Y122109D01*
X305423Y122048D01*
X305334Y121987D01*
X305251Y121926D01*
X305173Y121870D01*
X305168Y121865D01*
X305146Y121848D01*
X305113Y121820D01*
X305074Y121782D01*
X304990Y121698D01*
X304952Y121654D01*
X304918Y121609D01*
X304913Y121604D01*
X304907Y121593D01*
X304896Y121571D01*
X304879Y121537D01*
X304863Y121504D01*
X304846Y121465D01*
X304818Y121376D01*
Y121371D01*
X304813Y121360D01*
Y121338D01*
X304807Y121310D01*
X304802Y121271D01*
Y121227D01*
X304796Y121166D01*
Y121099D01*
Y120511D01*
X306500D01*
Y120000D01*
X302659D01*
Y121698D01*
Y121704D01*
Y121721D01*
Y121748D01*
Y121782D01*
X302665Y121826D01*
Y121876D01*
X302671Y121993D01*
X302687Y122115D01*
X302704Y122248D01*
X302732Y122370D01*
X302748Y122431D01*
X302765Y122481D01*
Y122486D01*
X302770Y122492D01*
X302787Y122525D01*
X302809Y122575D01*
X302848Y122636D01*
X302898Y122703D01*
X302965Y122775D01*
X303042Y122842D01*
X303131Y122908D01*
X303137D01*
X303142Y122914D01*
X303176Y122936D01*
X303231Y122958D01*
X303303Y122992D01*
X303386Y123019D01*
X303486Y123047D01*
X303592Y123064D01*
X303708Y123069D01*
X303747D01*
X303775Y123064D01*
X303814D01*
X303853Y123058D01*
X303947Y123036D01*
X304058Y123003D01*
X304174Y122958D01*
X304291Y122892D01*
X304347Y122847D01*
X304402Y122803D01*
X304408Y122797D01*
X304413Y122792D01*
X304430Y122775D01*
X304447Y122753D01*
X304469Y122725D01*
X304491Y122692D01*
X304519Y122647D01*
X304552Y122603D01*
X304580Y122547D01*
X304608Y122486D01*
X304641Y122420D01*
X304668Y122348D01*
X304691Y122264D01*
X304718Y122181D01*
X304735Y122087D01*
X304752Y121987D01*
X304757Y121998D01*
X304768Y122020D01*
X304791Y122054D01*
X304813Y122098D01*
X304874Y122198D01*
X304913Y122248D01*
X304946Y122292D01*
X304957Y122303D01*
X304985Y122331D01*
X305029Y122375D01*
X305085Y122431D01*
X305162Y122492D01*
X305246Y122564D01*
X305346Y122636D01*
X305457Y122714D01*
X306500Y123374D01*
Y122742D01*
D02*
G37*
G36*
Y123608D02*
X306439D01*
X306395Y123613D01*
X306345Y123619D01*
X306289Y123630D01*
X306234Y123641D01*
X306173Y123663D01*
X306167D01*
X306161Y123669D01*
X306128Y123680D01*
X306078Y123702D01*
X306012Y123735D01*
X305934Y123779D01*
X305845Y123835D01*
X305756Y123896D01*
X305662Y123974D01*
X305656D01*
X305651Y123985D01*
X305617Y124013D01*
X305568Y124063D01*
X305495Y124135D01*
X305412Y124218D01*
X305312Y124323D01*
X305201Y124451D01*
X305085Y124590D01*
X305079Y124595D01*
X305063Y124618D01*
X305035Y124651D01*
X305001Y124690D01*
X304957Y124740D01*
X304907Y124801D01*
X304852Y124862D01*
X304791Y124934D01*
X304657Y125073D01*
X304524Y125211D01*
X304458Y125278D01*
X304391Y125339D01*
X304330Y125395D01*
X304269Y125439D01*
X304263D01*
X304258Y125450D01*
X304241Y125461D01*
X304219Y125472D01*
X304158Y125511D01*
X304086Y125556D01*
X303997Y125594D01*
X303903Y125633D01*
X303797Y125655D01*
X303697Y125667D01*
X303686D01*
X303653Y125661D01*
X303597Y125655D01*
X303536Y125639D01*
X303459Y125617D01*
X303381Y125578D01*
X303303Y125528D01*
X303225Y125461D01*
X303214Y125450D01*
X303192Y125422D01*
X303164Y125383D01*
X303126Y125322D01*
X303092Y125245D01*
X303059Y125156D01*
X303037Y125050D01*
X303031Y124934D01*
Y124928D01*
Y124917D01*
Y124901D01*
X303037Y124878D01*
X303042Y124812D01*
X303059Y124734D01*
X303081Y124651D01*
X303120Y124557D01*
X303170Y124468D01*
X303237Y124384D01*
X303248Y124373D01*
X303275Y124351D01*
X303320Y124318D01*
X303386Y124285D01*
X303464Y124246D01*
X303564Y124212D01*
X303675Y124190D01*
X303803Y124179D01*
X303753Y123696D01*
X303747D01*
X303731Y123702D01*
X303703D01*
X303664Y123707D01*
X303620Y123719D01*
X303570Y123730D01*
X303509Y123746D01*
X303448Y123763D01*
X303314Y123807D01*
X303181Y123874D01*
X303115Y123913D01*
X303048Y123963D01*
X302987Y124013D01*
X302931Y124068D01*
X302926Y124074D01*
X302920Y124085D01*
X302904Y124101D01*
X302887Y124129D01*
X302865Y124162D01*
X302842Y124201D01*
X302815Y124246D01*
X302787Y124301D01*
X302759Y124362D01*
X302732Y124429D01*
X302709Y124501D01*
X302687Y124579D01*
X302671Y124662D01*
X302654Y124751D01*
X302648Y124845D01*
X302643Y124945D01*
Y124951D01*
Y124967D01*
Y125001D01*
X302648Y125039D01*
X302654Y125084D01*
X302659Y125139D01*
X302671Y125200D01*
X302682Y125261D01*
X302720Y125406D01*
X302776Y125550D01*
X302809Y125622D01*
X302848Y125694D01*
X302898Y125761D01*
X302954Y125822D01*
X302959Y125828D01*
X302965Y125839D01*
X302987Y125850D01*
X303009Y125872D01*
X303037Y125900D01*
X303076Y125927D01*
X303115Y125955D01*
X303164Y125988D01*
X303270Y126044D01*
X303403Y126100D01*
X303470Y126122D01*
X303547Y126133D01*
X303625Y126144D01*
X303708Y126149D01*
X303747D01*
X303792Y126144D01*
X303853Y126138D01*
X303919Y126127D01*
X303997Y126105D01*
X304080Y126083D01*
X304164Y126049D01*
X304174Y126044D01*
X304202Y126033D01*
X304247Y126011D01*
X304308Y125977D01*
X304374Y125933D01*
X304458Y125877D01*
X304541Y125811D01*
X304635Y125733D01*
X304646Y125722D01*
X304680Y125694D01*
X304707Y125667D01*
X304735Y125639D01*
X304768Y125605D01*
X304813Y125561D01*
X304857Y125517D01*
X304907Y125461D01*
X304963Y125406D01*
X305024Y125339D01*
X305085Y125267D01*
X305157Y125189D01*
X305229Y125101D01*
X305307Y125012D01*
X305312Y125006D01*
X305323Y124995D01*
X305340Y124973D01*
X305362Y124945D01*
X305396Y124912D01*
X305429Y124873D01*
X305501Y124784D01*
X305584Y124690D01*
X305667Y124601D01*
X305740Y124523D01*
X305767Y124490D01*
X305795Y124462D01*
X305801Y124457D01*
X305817Y124440D01*
X305840Y124418D01*
X305873Y124390D01*
X305912Y124362D01*
X305951Y124329D01*
X306045Y124262D01*
Y126155D01*
X306500D01*
Y123608D01*
D02*
G37*
G36*
X305290Y129202D02*
X305334Y129196D01*
X305384Y129191D01*
X305446Y129180D01*
X305507Y129169D01*
X305651Y129135D01*
X305801Y129080D01*
X305878Y129046D01*
X305951Y129002D01*
X306028Y128958D01*
X306100Y128902D01*
X306106Y128897D01*
X306123Y128885D01*
X306145Y128863D01*
X306173Y128836D01*
X306206Y128797D01*
X306250Y128752D01*
X306289Y128697D01*
X306333Y128636D01*
X306378Y128569D01*
X306417Y128491D01*
X306456Y128408D01*
X306494Y128320D01*
X306522Y128225D01*
X306544Y128120D01*
X306561Y128009D01*
X306567Y127892D01*
Y127887D01*
Y127870D01*
Y127842D01*
X306561Y127803D01*
X306556Y127759D01*
X306550Y127709D01*
X306544Y127648D01*
X306528Y127587D01*
X306494Y127448D01*
X306445Y127309D01*
X306411Y127237D01*
X306372Y127165D01*
X306328Y127099D01*
X306278Y127032D01*
X306272Y127026D01*
X306267Y127015D01*
X306245Y127004D01*
X306223Y126982D01*
X306195Y126954D01*
X306161Y126926D01*
X306117Y126893D01*
X306067Y126865D01*
X306017Y126832D01*
X305956Y126799D01*
X305823Y126738D01*
X305667Y126688D01*
X305584Y126671D01*
X305495Y126660D01*
X305457Y127154D01*
X305473D01*
X305490Y127160D01*
X305518Y127165D01*
X305579Y127182D01*
X305662Y127204D01*
X305745Y127237D01*
X305840Y127282D01*
X305923Y127337D01*
X306000Y127404D01*
X306006Y127415D01*
X306028Y127437D01*
X306056Y127481D01*
X306089Y127542D01*
X306123Y127609D01*
X306150Y127692D01*
X306173Y127787D01*
X306178Y127892D01*
Y127898D01*
Y127909D01*
Y127925D01*
X306173Y127948D01*
X306167Y128014D01*
X306145Y128092D01*
X306117Y128186D01*
X306073Y128281D01*
X306006Y128381D01*
X305967Y128425D01*
X305923Y128469D01*
X305917Y128475D01*
X305912Y128480D01*
X305895Y128491D01*
X305878Y128508D01*
X305817Y128547D01*
X305740Y128591D01*
X305645Y128630D01*
X305529Y128669D01*
X305390Y128697D01*
X305318Y128708D01*
X305201D01*
X305173Y128702D01*
X305140D01*
X305101Y128697D01*
X305013Y128680D01*
X304907Y128652D01*
X304802Y128614D01*
X304702Y128558D01*
X304608Y128480D01*
X304602D01*
X304596Y128469D01*
X304569Y128442D01*
X304530Y128392D01*
X304485Y128325D01*
X304447Y128236D01*
X304408Y128136D01*
X304380Y128020D01*
X304369Y127953D01*
Y127887D01*
Y127875D01*
Y127848D01*
X304374Y127803D01*
X304380Y127748D01*
X304397Y127681D01*
X304413Y127615D01*
X304441Y127542D01*
X304474Y127470D01*
X304480Y127465D01*
X304491Y127443D01*
X304519Y127409D01*
X304546Y127365D01*
X304585Y127321D01*
X304635Y127276D01*
X304685Y127226D01*
X304746Y127187D01*
X304685Y126743D01*
X302709Y127115D01*
Y129024D01*
X303159D01*
Y127487D01*
X304197Y127282D01*
X304191Y127287D01*
X304186Y127298D01*
X304174Y127315D01*
X304158Y127343D01*
X304141Y127376D01*
X304119Y127415D01*
X304075Y127504D01*
X304030Y127615D01*
X303991Y127737D01*
X303964Y127870D01*
X303953Y127936D01*
Y128009D01*
Y128014D01*
Y128031D01*
Y128059D01*
X303958Y128092D01*
X303964Y128136D01*
X303969Y128186D01*
X303980Y128242D01*
X303997Y128303D01*
X304036Y128436D01*
X304064Y128508D01*
X304102Y128580D01*
X304141Y128652D01*
X304186Y128725D01*
X304241Y128791D01*
X304302Y128858D01*
X304308Y128863D01*
X304319Y128875D01*
X304335Y128891D01*
X304363Y128913D01*
X304402Y128941D01*
X304441Y128969D01*
X304491Y129002D01*
X304546Y129035D01*
X304608Y129063D01*
X304674Y129096D01*
X304752Y129124D01*
X304829Y129152D01*
X304913Y129174D01*
X305007Y129191D01*
X305101Y129202D01*
X305201Y129207D01*
X305251D01*
X305290Y129202D01*
D02*
G37*
G36*
X278076Y197335D02*
X278187Y197329D01*
X278298Y197318D01*
X278409Y197302D01*
X278503Y197285D01*
X278509D01*
X278520Y197280D01*
X278537D01*
X278559Y197268D01*
X278620Y197252D01*
X278698Y197224D01*
X278787Y197185D01*
X278881Y197135D01*
X278975Y197080D01*
X279064Y197008D01*
X279070Y197002D01*
X279075Y196996D01*
X279092Y196980D01*
X279114Y196963D01*
X279170Y196908D01*
X279236Y196830D01*
X279308Y196736D01*
X279386Y196625D01*
X279458Y196497D01*
X279519Y196353D01*
Y196347D01*
X279525Y196336D01*
X279536Y196314D01*
X279541Y196281D01*
X279558Y196242D01*
X279569Y196197D01*
X279580Y196147D01*
X279597Y196086D01*
X279613Y196025D01*
X279625Y195953D01*
X279652Y195798D01*
X279669Y195626D01*
X279675Y195437D01*
Y195431D01*
Y195420D01*
Y195393D01*
Y195365D01*
X279669Y195326D01*
Y195282D01*
X279663Y195176D01*
X279647Y195054D01*
X279630Y194926D01*
X279602Y194793D01*
X279569Y194660D01*
Y194654D01*
X279564Y194643D01*
X279558Y194627D01*
X279553Y194604D01*
X279530Y194543D01*
X279497Y194466D01*
X279464Y194377D01*
X279419Y194288D01*
X279364Y194194D01*
X279308Y194105D01*
X279303Y194094D01*
X279280Y194066D01*
X279247Y194027D01*
X279203Y193977D01*
X279153Y193922D01*
X279092Y193866D01*
X279031Y193805D01*
X278959Y193755D01*
X278948Y193750D01*
X278925Y193733D01*
X278887Y193711D01*
X278831Y193683D01*
X278764Y193650D01*
X278687Y193622D01*
X278598Y193589D01*
X278498Y193561D01*
X278487D01*
X278470Y193555D01*
X278454Y193550D01*
X278398Y193544D01*
X278320Y193533D01*
X278232Y193522D01*
X278126Y193511D01*
X278010Y193506D01*
X277882Y193500D01*
X276500D01*
Y197341D01*
X277976D01*
X278076Y197335D01*
D02*
G37*
G36*
X299539Y152852D02*
X299584Y152846D01*
X299639Y152841D01*
X299700Y152830D01*
X299761Y152818D01*
X299906Y152779D01*
X300050Y152724D01*
X300122Y152691D01*
X300194Y152652D01*
X300261Y152602D01*
X300322Y152547D01*
X300327Y152541D01*
X300339Y152535D01*
X300350Y152513D01*
X300372Y152491D01*
X300400Y152463D01*
X300427Y152424D01*
X300455Y152385D01*
X300488Y152336D01*
X300544Y152230D01*
X300599Y152097D01*
X300622Y152030D01*
X300633Y151953D01*
X300644Y151875D01*
X300649Y151792D01*
Y151780D01*
Y151753D01*
X300644Y151708D01*
X300638Y151647D01*
X300627Y151581D01*
X300605Y151503D01*
X300583Y151420D01*
X300550Y151337D01*
X300544Y151326D01*
X300533Y151298D01*
X300511Y151253D01*
X300477Y151192D01*
X300433Y151126D01*
X300377Y151042D01*
X300311Y150959D01*
X300233Y150865D01*
X300222Y150854D01*
X300194Y150820D01*
X300167Y150793D01*
X300139Y150765D01*
X300106Y150732D01*
X300061Y150687D01*
X300017Y150643D01*
X299961Y150593D01*
X299906Y150537D01*
X299839Y150476D01*
X299767Y150415D01*
X299689Y150343D01*
X299601Y150271D01*
X299512Y150193D01*
X299506Y150188D01*
X299495Y150177D01*
X299473Y150160D01*
X299445Y150138D01*
X299412Y150104D01*
X299373Y150071D01*
X299284Y149999D01*
X299190Y149916D01*
X299101Y149832D01*
X299023Y149760D01*
X298990Y149733D01*
X298962Y149705D01*
X298957Y149699D01*
X298940Y149683D01*
X298918Y149660D01*
X298890Y149627D01*
X298862Y149588D01*
X298829Y149549D01*
X298762Y149455D01*
X300655D01*
Y149000D01*
X298108D01*
Y149005D01*
Y149028D01*
Y149061D01*
X298113Y149105D01*
X298119Y149155D01*
X298130Y149211D01*
X298141Y149266D01*
X298163Y149327D01*
Y149333D01*
X298169Y149339D01*
X298180Y149372D01*
X298202Y149422D01*
X298235Y149488D01*
X298280Y149566D01*
X298335Y149655D01*
X298396Y149744D01*
X298474Y149838D01*
Y149844D01*
X298485Y149849D01*
X298513Y149882D01*
X298563Y149932D01*
X298635Y150004D01*
X298718Y150088D01*
X298823Y150188D01*
X298951Y150299D01*
X299090Y150415D01*
X299095Y150421D01*
X299118Y150437D01*
X299151Y150465D01*
X299190Y150498D01*
X299240Y150543D01*
X299301Y150593D01*
X299362Y150648D01*
X299434Y150709D01*
X299573Y150843D01*
X299711Y150976D01*
X299778Y151042D01*
X299839Y151109D01*
X299895Y151170D01*
X299939Y151231D01*
Y151237D01*
X299950Y151242D01*
X299961Y151259D01*
X299972Y151281D01*
X300011Y151342D01*
X300056Y151414D01*
X300094Y151503D01*
X300133Y151597D01*
X300155Y151703D01*
X300167Y151803D01*
Y151808D01*
Y151814D01*
X300161Y151847D01*
X300155Y151903D01*
X300139Y151964D01*
X300117Y152041D01*
X300078Y152119D01*
X300028Y152197D01*
X299961Y152275D01*
X299950Y152286D01*
X299922Y152308D01*
X299884Y152336D01*
X299822Y152374D01*
X299745Y152408D01*
X299656Y152441D01*
X299551Y152463D01*
X299434Y152469D01*
X299401D01*
X299378Y152463D01*
X299312Y152458D01*
X299234Y152441D01*
X299151Y152419D01*
X299057Y152380D01*
X298968Y152330D01*
X298885Y152263D01*
X298873Y152252D01*
X298851Y152225D01*
X298818Y152180D01*
X298785Y152114D01*
X298746Y152036D01*
X298712Y151936D01*
X298690Y151825D01*
X298679Y151697D01*
X298196Y151747D01*
Y151753D01*
X298202Y151769D01*
Y151797D01*
X298207Y151836D01*
X298218Y151880D01*
X298230Y151930D01*
X298246Y151991D01*
X298263Y152052D01*
X298307Y152186D01*
X298374Y152319D01*
X298413Y152385D01*
X298463Y152452D01*
X298513Y152513D01*
X298568Y152569D01*
X298574Y152574D01*
X298585Y152580D01*
X298602Y152596D01*
X298629Y152613D01*
X298662Y152635D01*
X298701Y152657D01*
X298746Y152685D01*
X298801Y152713D01*
X298862Y152741D01*
X298929Y152769D01*
X299001Y152791D01*
X299079Y152813D01*
X299162Y152830D01*
X299251Y152846D01*
X299345Y152852D01*
X299445Y152857D01*
X299501D01*
X299539Y152852D01*
D02*
G37*
G36*
X186076Y162835D02*
X186187Y162829D01*
X186298Y162818D01*
X186409Y162802D01*
X186504Y162785D01*
X186509D01*
X186520Y162779D01*
X186537D01*
X186559Y162768D01*
X186620Y162752D01*
X186698Y162724D01*
X186787Y162685D01*
X186881Y162635D01*
X186975Y162580D01*
X187064Y162508D01*
X187070Y162502D01*
X187075Y162496D01*
X187092Y162480D01*
X187114Y162463D01*
X187170Y162408D01*
X187236Y162330D01*
X187308Y162236D01*
X187386Y162125D01*
X187458Y161997D01*
X187519Y161853D01*
Y161847D01*
X187525Y161836D01*
X187536Y161814D01*
X187541Y161781D01*
X187558Y161742D01*
X187569Y161697D01*
X187580Y161647D01*
X187597Y161586D01*
X187614Y161525D01*
X187625Y161453D01*
X187652Y161298D01*
X187669Y161126D01*
X187675Y160937D01*
Y160931D01*
Y160920D01*
Y160893D01*
Y160865D01*
X187669Y160826D01*
Y160782D01*
X187663Y160676D01*
X187647Y160554D01*
X187630Y160426D01*
X187602Y160293D01*
X187569Y160160D01*
Y160154D01*
X187564Y160143D01*
X187558Y160127D01*
X187552Y160104D01*
X187530Y160043D01*
X187497Y159966D01*
X187464Y159877D01*
X187419Y159788D01*
X187364Y159694D01*
X187308Y159605D01*
X187303Y159594D01*
X187280Y159566D01*
X187247Y159527D01*
X187203Y159477D01*
X187153Y159422D01*
X187092Y159366D01*
X187031Y159305D01*
X186959Y159255D01*
X186948Y159250D01*
X186925Y159233D01*
X186887Y159211D01*
X186831Y159183D01*
X186764Y159150D01*
X186687Y159122D01*
X186598Y159089D01*
X186498Y159061D01*
X186487D01*
X186470Y159055D01*
X186454Y159050D01*
X186398Y159044D01*
X186320Y159033D01*
X186232Y159022D01*
X186126Y159011D01*
X186010Y159005D01*
X185882Y159000D01*
X184500D01*
Y162841D01*
X185976D01*
X186076Y162835D01*
D02*
G37*
G36*
X304185Y143699D02*
X304257D01*
X304341Y143694D01*
X304424Y143683D01*
X304612Y143666D01*
X304812Y143638D01*
X305001Y143599D01*
X305095Y143572D01*
X305179Y143544D01*
X305184D01*
X305195Y143538D01*
X305218Y143527D01*
X305251Y143516D01*
X305284Y143500D01*
X305328Y143477D01*
X305423Y143422D01*
X305528Y143355D01*
X305639Y143278D01*
X305745Y143178D01*
X305839Y143067D01*
Y143061D01*
X305850Y143050D01*
X305861Y143033D01*
X305872Y143011D01*
X305889Y142978D01*
X305911Y142945D01*
X305933Y142900D01*
X305950Y142856D01*
X305995Y142750D01*
X306033Y142623D01*
X306055Y142484D01*
X306067Y142329D01*
Y142323D01*
Y142306D01*
Y142284D01*
X306061Y142256D01*
Y142218D01*
X306055Y142173D01*
X306033Y142068D01*
X306006Y141951D01*
X305961Y141829D01*
X305900Y141707D01*
X305861Y141646D01*
X305817Y141590D01*
X305811Y141585D01*
X305806Y141579D01*
X305789Y141563D01*
X305772Y141546D01*
X305745Y141524D01*
X305711Y141496D01*
X305634Y141440D01*
X305534Y141385D01*
X305412Y141330D01*
X305273Y141285D01*
X305112Y141252D01*
X305073Y141707D01*
X305079D01*
X305090Y141712D01*
X305101D01*
X305123Y141718D01*
X305184Y141735D01*
X305251Y141757D01*
X305328Y141785D01*
X305406Y141823D01*
X305478Y141868D01*
X305539Y141923D01*
X305545Y141929D01*
X305561Y141951D01*
X305584Y141990D01*
X305606Y142034D01*
X305634Y142095D01*
X305656Y142168D01*
X305673Y142251D01*
X305678Y142340D01*
Y142351D01*
Y142378D01*
X305673Y142417D01*
X305667Y142467D01*
X305656Y142528D01*
X305639Y142589D01*
X305617Y142656D01*
X305584Y142717D01*
X305578Y142723D01*
X305567Y142745D01*
X305545Y142778D01*
X305512Y142811D01*
X305473Y142856D01*
X305428Y142900D01*
X305378Y142945D01*
X305317Y142989D01*
X305312Y142994D01*
X305284Y143006D01*
X305245Y143028D01*
X305195Y143050D01*
X305129Y143078D01*
X305051Y143105D01*
X304962Y143133D01*
X304862Y143161D01*
X304857D01*
X304851Y143167D01*
X304835D01*
X304812Y143172D01*
X304757Y143183D01*
X304685Y143200D01*
X304596Y143211D01*
X304502Y143222D01*
X304396Y143228D01*
X304285Y143233D01*
X304191D01*
X304202Y143228D01*
X304230Y143205D01*
X304268Y143172D01*
X304324Y143133D01*
X304379Y143078D01*
X304440Y143011D01*
X304502Y142933D01*
X304557Y142845D01*
X304563Y142833D01*
X304579Y142800D01*
X304601Y142750D01*
X304624Y142689D01*
X304651Y142606D01*
X304674Y142517D01*
X304690Y142417D01*
X304696Y142312D01*
Y142306D01*
Y142290D01*
Y142268D01*
X304690Y142234D01*
X304685Y142190D01*
X304679Y142145D01*
X304668Y142090D01*
X304651Y142034D01*
X304612Y141907D01*
X304585Y141840D01*
X304552Y141773D01*
X304513Y141701D01*
X304463Y141635D01*
X304413Y141568D01*
X304352Y141507D01*
X304346Y141501D01*
X304335Y141490D01*
X304318Y141479D01*
X304291Y141457D01*
X304252Y141429D01*
X304213Y141402D01*
X304163Y141374D01*
X304107Y141346D01*
X304046Y141313D01*
X303980Y141285D01*
X303902Y141257D01*
X303824Y141230D01*
X303736Y141207D01*
X303641Y141196D01*
X303547Y141185D01*
X303441Y141180D01*
X303386D01*
X303347Y141185D01*
X303297Y141191D01*
X303236Y141196D01*
X303175Y141207D01*
X303103Y141224D01*
X302959Y141263D01*
X302881Y141291D01*
X302798Y141324D01*
X302720Y141363D01*
X302648Y141413D01*
X302570Y141463D01*
X302503Y141524D01*
X302498Y141529D01*
X302487Y141540D01*
X302470Y141557D01*
X302448Y141585D01*
X302420Y141618D01*
X302387Y141663D01*
X302359Y141707D01*
X302320Y141762D01*
X302287Y141818D01*
X302259Y141885D01*
X302198Y142034D01*
X302176Y142112D01*
X302159Y142201D01*
X302148Y142290D01*
X302143Y142384D01*
Y142390D01*
Y142401D01*
Y142423D01*
X302148Y142451D01*
Y142478D01*
X302154Y142517D01*
X302170Y142612D01*
X302193Y142717D01*
X302232Y142833D01*
X302281Y142950D01*
X302348Y143067D01*
Y143072D01*
X302359Y143078D01*
X302370Y143094D01*
X302387Y143117D01*
X302431Y143172D01*
X302492Y143244D01*
X302576Y143316D01*
X302676Y143400D01*
X302792Y143472D01*
X302925Y143538D01*
X302931D01*
X302942Y143544D01*
X302964Y143555D01*
X302992Y143566D01*
X303031Y143577D01*
X303081Y143594D01*
X303136Y143605D01*
X303197Y143622D01*
X303269Y143638D01*
X303353Y143655D01*
X303441Y143666D01*
X303536Y143677D01*
X303641Y143688D01*
X303752Y143699D01*
X303874Y143705D01*
X304124D01*
X304185Y143699D01*
D02*
G37*
G36*
X302597Y152852D02*
X302636D01*
X302681Y152846D01*
X302786Y152824D01*
X302903Y152796D01*
X303025Y152752D01*
X303147Y152685D01*
X303208Y152646D01*
X303263Y152602D01*
X303269Y152596D01*
X303274Y152591D01*
X303291Y152574D01*
X303308Y152558D01*
X303336Y152530D01*
X303358Y152497D01*
X303419Y152419D01*
X303480Y152319D01*
X303535Y152197D01*
X303585Y152058D01*
X303619Y151903D01*
X303147Y151864D01*
Y151869D01*
X303141Y151875D01*
X303136Y151908D01*
X303119Y151958D01*
X303097Y152019D01*
X303075Y152086D01*
X303041Y152152D01*
X303003Y152213D01*
X302964Y152263D01*
X302953Y152275D01*
X302930Y152297D01*
X302892Y152330D01*
X302836Y152369D01*
X302764Y152402D01*
X302686Y152435D01*
X302592Y152458D01*
X302492Y152469D01*
X302453D01*
X302409Y152463D01*
X302359Y152452D01*
X302292Y152435D01*
X302226Y152413D01*
X302159Y152385D01*
X302092Y152341D01*
X302081Y152336D01*
X302053Y152313D01*
X302015Y152275D01*
X301965Y152219D01*
X301909Y152152D01*
X301848Y152075D01*
X301793Y151975D01*
X301737Y151864D01*
Y151858D01*
X301732Y151847D01*
X301726Y151830D01*
X301715Y151808D01*
X301710Y151775D01*
X301698Y151736D01*
X301687Y151692D01*
X301676Y151636D01*
X301659Y151575D01*
X301648Y151509D01*
X301637Y151436D01*
X301632Y151359D01*
X301621Y151270D01*
X301615Y151181D01*
X301609Y151081D01*
Y150981D01*
X301615Y150987D01*
X301637Y151020D01*
X301676Y151065D01*
X301726Y151120D01*
X301782Y151187D01*
X301854Y151248D01*
X301931Y151309D01*
X302020Y151364D01*
X302026D01*
X302031Y151370D01*
X302065Y151386D01*
X302115Y151403D01*
X302181Y151431D01*
X302259Y151453D01*
X302348Y151470D01*
X302442Y151486D01*
X302542Y151492D01*
X302586D01*
X302620Y151486D01*
X302664Y151481D01*
X302708Y151475D01*
X302764Y151464D01*
X302819Y151448D01*
X302947Y151409D01*
X303014Y151381D01*
X303080Y151342D01*
X303147Y151303D01*
X303219Y151259D01*
X303286Y151203D01*
X303347Y151142D01*
X303352Y151137D01*
X303363Y151126D01*
X303380Y151109D01*
X303397Y151081D01*
X303424Y151042D01*
X303452Y151004D01*
X303480Y150954D01*
X303513Y150898D01*
X303547Y150837D01*
X303574Y150770D01*
X303602Y150693D01*
X303630Y150615D01*
X303646Y150532D01*
X303663Y150437D01*
X303674Y150343D01*
X303680Y150243D01*
Y150238D01*
Y150226D01*
Y150210D01*
Y150182D01*
X303674Y150149D01*
Y150116D01*
X303658Y150027D01*
X303641Y149921D01*
X303613Y149810D01*
X303574Y149688D01*
X303519Y149572D01*
Y149566D01*
X303513Y149560D01*
X303502Y149544D01*
X303491Y149522D01*
X303458Y149466D01*
X303408Y149394D01*
X303347Y149316D01*
X303274Y149239D01*
X303186Y149161D01*
X303091Y149094D01*
X303086D01*
X303080Y149089D01*
X303064Y149078D01*
X303041Y149072D01*
X302986Y149044D01*
X302914Y149017D01*
X302819Y148983D01*
X302714Y148961D01*
X302597Y148939D01*
X302470Y148933D01*
X302442D01*
X302414Y148939D01*
X302370D01*
X302320Y148944D01*
X302264Y148956D01*
X302198Y148972D01*
X302131Y148989D01*
X302053Y149011D01*
X301976Y149039D01*
X301898Y149072D01*
X301815Y149117D01*
X301737Y149167D01*
X301659Y149222D01*
X301582Y149289D01*
X301510Y149366D01*
X301504Y149372D01*
X301493Y149389D01*
X301476Y149411D01*
X301454Y149450D01*
X301421Y149499D01*
X301393Y149555D01*
X301360Y149627D01*
X301326Y149705D01*
X301288Y149799D01*
X301254Y149905D01*
X301227Y150021D01*
X301199Y150149D01*
X301171Y150293D01*
X301154Y150449D01*
X301143Y150615D01*
X301138Y150793D01*
Y150798D01*
Y150804D01*
Y150820D01*
Y150843D01*
X301143Y150898D01*
Y150976D01*
X301149Y151065D01*
X301160Y151170D01*
X301171Y151287D01*
X301188Y151414D01*
X301210Y151542D01*
X301238Y151681D01*
X301271Y151814D01*
X301310Y151947D01*
X301360Y152075D01*
X301415Y152197D01*
X301476Y152313D01*
X301549Y152413D01*
X301554Y152419D01*
X301565Y152430D01*
X301587Y152452D01*
X301615Y152485D01*
X301648Y152519D01*
X301693Y152552D01*
X301748Y152596D01*
X301804Y152635D01*
X301870Y152674D01*
X301942Y152718D01*
X302026Y152752D01*
X302109Y152791D01*
X302203Y152818D01*
X302303Y152841D01*
X302409Y152852D01*
X302520Y152857D01*
X302564D01*
X302597Y152852D01*
D02*
G37*
G36*
X281512Y197352D02*
X281556Y197346D01*
X281606Y197341D01*
X281662Y197335D01*
X281717Y197318D01*
X281850Y197285D01*
X281983Y197235D01*
X282050Y197202D01*
X282117Y197163D01*
X282178Y197113D01*
X282239Y197063D01*
X282244Y197057D01*
X282250Y197052D01*
X282266Y197035D01*
X282289Y197013D01*
X282311Y196980D01*
X282339Y196947D01*
X282394Y196863D01*
X282450Y196758D01*
X282500Y196636D01*
X282538Y196497D01*
X282544Y196425D01*
X282550Y196347D01*
Y196342D01*
Y196336D01*
Y196303D01*
X282544Y196253D01*
X282533Y196192D01*
X282516Y196114D01*
X282488Y196036D01*
X282455Y195959D01*
X282405Y195881D01*
X282400Y195870D01*
X282377Y195848D01*
X282344Y195814D01*
X282300Y195770D01*
X282239Y195720D01*
X282167Y195670D01*
X282083Y195620D01*
X281983Y195576D01*
X281989D01*
X282000Y195570D01*
X282017Y195565D01*
X282039Y195554D01*
X282105Y195526D01*
X282183Y195487D01*
X282266Y195431D01*
X282355Y195370D01*
X282438Y195293D01*
X282516Y195204D01*
Y195198D01*
X282522Y195193D01*
X282544Y195159D01*
X282577Y195104D01*
X282611Y195032D01*
X282644Y194943D01*
X282677Y194838D01*
X282699Y194721D01*
X282705Y194593D01*
Y194588D01*
Y194571D01*
Y194543D01*
X282699Y194510D01*
X282694Y194471D01*
X282688Y194421D01*
X282677Y194366D01*
X282661Y194305D01*
X282622Y194177D01*
X282594Y194105D01*
X282555Y194038D01*
X282516Y193966D01*
X282472Y193900D01*
X282416Y193833D01*
X282355Y193766D01*
X282350Y193761D01*
X282339Y193750D01*
X282322Y193733D01*
X282294Y193717D01*
X282255Y193689D01*
X282217Y193661D01*
X282167Y193633D01*
X282111Y193600D01*
X282050Y193567D01*
X281978Y193539D01*
X281900Y193511D01*
X281822Y193483D01*
X281734Y193467D01*
X281639Y193450D01*
X281545Y193439D01*
X281439Y193433D01*
X281384D01*
X281345Y193439D01*
X281295Y193445D01*
X281240Y193450D01*
X281179Y193461D01*
X281112Y193478D01*
X280962Y193517D01*
X280885Y193544D01*
X280812Y193572D01*
X280735Y193611D01*
X280657Y193655D01*
X280585Y193705D01*
X280518Y193766D01*
X280513Y193772D01*
X280502Y193783D01*
X280485Y193800D01*
X280463Y193827D01*
X280440Y193861D01*
X280407Y193900D01*
X280379Y193944D01*
X280346Y194000D01*
X280313Y194055D01*
X280285Y194122D01*
X280230Y194260D01*
X280207Y194344D01*
X280191Y194427D01*
X280180Y194516D01*
X280174Y194604D01*
Y194610D01*
Y194621D01*
Y194643D01*
X280180Y194666D01*
Y194699D01*
X280185Y194738D01*
X280196Y194826D01*
X280219Y194926D01*
X280252Y195026D01*
X280302Y195132D01*
X280363Y195232D01*
Y195237D01*
X280374Y195243D01*
X280396Y195271D01*
X280440Y195315D01*
X280502Y195370D01*
X280579Y195426D01*
X280674Y195487D01*
X280779Y195537D01*
X280907Y195576D01*
X280901D01*
X280896Y195581D01*
X280879Y195587D01*
X280857Y195598D01*
X280807Y195620D01*
X280740Y195653D01*
X280668Y195698D01*
X280596Y195753D01*
X280529Y195814D01*
X280468Y195881D01*
X280463Y195892D01*
X280446Y195914D01*
X280424Y195959D01*
X280402Y196014D01*
X280374Y196086D01*
X280352Y196170D01*
X280335Y196264D01*
X280329Y196364D01*
Y196369D01*
Y196380D01*
Y196403D01*
X280335Y196436D01*
X280341Y196469D01*
X280346Y196514D01*
X280368Y196608D01*
X280402Y196719D01*
X280457Y196835D01*
X280490Y196897D01*
X280529Y196958D01*
X280579Y197013D01*
X280629Y197069D01*
X280635Y197074D01*
X280646Y197080D01*
X280662Y197096D01*
X280685Y197113D01*
X280712Y197135D01*
X280751Y197157D01*
X280796Y197185D01*
X280840Y197213D01*
X280896Y197241D01*
X280957Y197268D01*
X281023Y197291D01*
X281095Y197313D01*
X281251Y197346D01*
X281340Y197352D01*
X281428Y197357D01*
X281478D01*
X281512Y197352D01*
D02*
G37*
G36*
X251904Y164402D02*
X251954Y164396D01*
X252015Y164391D01*
X252076Y164385D01*
X252148Y164368D01*
X252298Y164335D01*
X252464Y164285D01*
X252547Y164252D01*
X252625Y164213D01*
X252703Y164163D01*
X252781Y164113D01*
X252786Y164108D01*
X252797Y164102D01*
X252819Y164085D01*
X252847Y164058D01*
X252875Y164030D01*
X252914Y163991D01*
X252953Y163947D01*
X252997Y163902D01*
X253041Y163847D01*
X253086Y163780D01*
X253136Y163713D01*
X253180Y163641D01*
X253219Y163558D01*
X253263Y163475D01*
X253297Y163386D01*
X253330Y163286D01*
X252831Y163170D01*
Y163175D01*
X252825Y163186D01*
X252814Y163208D01*
X252803Y163236D01*
X252792Y163269D01*
X252775Y163314D01*
X252731Y163403D01*
X252675Y163503D01*
X252608Y163602D01*
X252525Y163697D01*
X252436Y163780D01*
X252425Y163791D01*
X252392Y163813D01*
X252337Y163841D01*
X252264Y163880D01*
X252170Y163913D01*
X252065Y163947D01*
X251937Y163969D01*
X251798Y163974D01*
X251754D01*
X251726Y163969D01*
X251687D01*
X251643Y163963D01*
X251537Y163947D01*
X251421Y163924D01*
X251299Y163885D01*
X251171Y163830D01*
X251055Y163758D01*
X251049D01*
X251043Y163747D01*
X251005Y163719D01*
X250955Y163675D01*
X250894Y163608D01*
X250821Y163525D01*
X250755Y163430D01*
X250694Y163314D01*
X250638Y163186D01*
Y163181D01*
X250633Y163170D01*
X250627Y163153D01*
X250622Y163125D01*
X250610Y163092D01*
X250599Y163053D01*
X250583Y162959D01*
X250561Y162848D01*
X250538Y162725D01*
X250527Y162592D01*
X250522Y162448D01*
Y162443D01*
Y162426D01*
Y162398D01*
Y162365D01*
X250527Y162326D01*
Y162276D01*
X250533Y162221D01*
X250538Y162159D01*
X250555Y162026D01*
X250583Y161882D01*
X250616Y161738D01*
X250660Y161593D01*
Y161588D01*
X250666Y161577D01*
X250677Y161560D01*
X250688Y161532D01*
X250722Y161466D01*
X250771Y161388D01*
X250833Y161299D01*
X250910Y161205D01*
X250999Y161122D01*
X251104Y161044D01*
X251110D01*
X251121Y161038D01*
X251138Y161027D01*
X251160Y161016D01*
X251188Y161005D01*
X251221Y160988D01*
X251299Y160955D01*
X251399Y160922D01*
X251510Y160894D01*
X251632Y160872D01*
X251759Y160866D01*
X251798D01*
X251832Y160872D01*
X251870D01*
X251909Y160877D01*
X252009Y160900D01*
X252126Y160927D01*
X252242Y160972D01*
X252364Y161033D01*
X252425Y161066D01*
X252481Y161110D01*
X252486Y161116D01*
X252492Y161122D01*
X252509Y161138D01*
X252531Y161155D01*
X252553Y161183D01*
X252581Y161216D01*
X252614Y161249D01*
X252642Y161294D01*
X252675Y161344D01*
X252714Y161399D01*
X252747Y161455D01*
X252781Y161521D01*
X252808Y161593D01*
X252836Y161671D01*
X252864Y161754D01*
X252886Y161843D01*
X253397Y161715D01*
Y161710D01*
X253391Y161688D01*
X253380Y161654D01*
X253363Y161610D01*
X253347Y161560D01*
X253324Y161499D01*
X253297Y161432D01*
X253263Y161360D01*
X253186Y161205D01*
X253086Y161049D01*
X253025Y160972D01*
X252964Y160894D01*
X252897Y160827D01*
X252819Y160761D01*
X252814Y160755D01*
X252803Y160744D01*
X252775Y160733D01*
X252747Y160711D01*
X252703Y160683D01*
X252658Y160655D01*
X252597Y160628D01*
X252536Y160600D01*
X252464Y160567D01*
X252386Y160539D01*
X252303Y160511D01*
X252214Y160483D01*
X252120Y160461D01*
X252020Y160450D01*
X251915Y160439D01*
X251804Y160433D01*
X251743D01*
X251698Y160439D01*
X251648D01*
X251587Y160444D01*
X251521Y160456D01*
X251443Y160467D01*
X251282Y160494D01*
X251115Y160539D01*
X250949Y160600D01*
X250871Y160639D01*
X250794Y160683D01*
X250788Y160689D01*
X250777Y160694D01*
X250755Y160711D01*
X250733Y160733D01*
X250699Y160755D01*
X250660Y160789D01*
X250616Y160827D01*
X250572Y160872D01*
X250527Y160922D01*
X250477Y160972D01*
X250377Y161099D01*
X250283Y161249D01*
X250200Y161416D01*
Y161421D01*
X250189Y161438D01*
X250183Y161466D01*
X250167Y161499D01*
X250155Y161543D01*
X250139Y161599D01*
X250117Y161660D01*
X250100Y161726D01*
X250083Y161799D01*
X250061Y161882D01*
X250033Y162054D01*
X250011Y162248D01*
X250000Y162448D01*
Y162454D01*
Y162476D01*
Y162509D01*
X250006Y162548D01*
Y162603D01*
X250011Y162659D01*
X250017Y162731D01*
X250028Y162803D01*
X250056Y162964D01*
X250094Y163142D01*
X250150Y163319D01*
X250228Y163491D01*
X250233Y163497D01*
X250239Y163514D01*
X250250Y163536D01*
X250272Y163564D01*
X250294Y163602D01*
X250322Y163647D01*
X250394Y163747D01*
X250488Y163858D01*
X250599Y163969D01*
X250727Y164080D01*
X250877Y164174D01*
X250883Y164180D01*
X250899Y164185D01*
X250921Y164196D01*
X250949Y164213D01*
X250993Y164230D01*
X251038Y164246D01*
X251093Y164269D01*
X251154Y164291D01*
X251221Y164313D01*
X251293Y164335D01*
X251448Y164368D01*
X251626Y164396D01*
X251809Y164407D01*
X251865D01*
X251904Y164402D01*
D02*
G37*
G36*
X208312Y194891D02*
X208346Y194880D01*
X208390Y194863D01*
X208440Y194847D01*
X208501Y194825D01*
X208568Y194797D01*
X208640Y194763D01*
X208795Y194686D01*
X208951Y194586D01*
X209028Y194525D01*
X209106Y194464D01*
X209173Y194397D01*
X209239Y194319D01*
X209245Y194314D01*
X209256Y194303D01*
X209267Y194275D01*
X209289Y194247D01*
X209317Y194203D01*
X209345Y194158D01*
X209372Y194097D01*
X209400Y194036D01*
X209433Y193964D01*
X209461Y193886D01*
X209489Y193803D01*
X209517Y193714D01*
X209539Y193620D01*
X209550Y193520D01*
X209561Y193415D01*
X209567Y193304D01*
Y193298D01*
Y193276D01*
Y193243D01*
X209561Y193198D01*
Y193148D01*
X209556Y193087D01*
X209544Y193021D01*
X209533Y192943D01*
X209506Y192782D01*
X209461Y192616D01*
X209400Y192449D01*
X209361Y192371D01*
X209317Y192294D01*
X209311Y192288D01*
X209306Y192277D01*
X209289Y192255D01*
X209267Y192233D01*
X209245Y192199D01*
X209211Y192160D01*
X209173Y192116D01*
X209128Y192072D01*
X209078Y192027D01*
X209028Y191977D01*
X208901Y191877D01*
X208751Y191783D01*
X208584Y191700D01*
X208579D01*
X208562Y191689D01*
X208534Y191683D01*
X208501Y191666D01*
X208457Y191655D01*
X208401Y191639D01*
X208340Y191617D01*
X208274Y191600D01*
X208201Y191583D01*
X208118Y191561D01*
X207946Y191533D01*
X207752Y191511D01*
X207552Y191500D01*
X207491D01*
X207452Y191506D01*
X207397D01*
X207341Y191511D01*
X207269Y191517D01*
X207197Y191528D01*
X207036Y191556D01*
X206858Y191594D01*
X206681Y191650D01*
X206509Y191727D01*
X206503Y191733D01*
X206486Y191739D01*
X206464Y191750D01*
X206436Y191772D01*
X206398Y191794D01*
X206353Y191822D01*
X206253Y191894D01*
X206142Y191988D01*
X206031Y192099D01*
X205920Y192227D01*
X205826Y192377D01*
X205820Y192382D01*
X205815Y192399D01*
X205804Y192421D01*
X205787Y192449D01*
X205770Y192493D01*
X205754Y192538D01*
X205732Y192593D01*
X205709Y192654D01*
X205687Y192721D01*
X205665Y192793D01*
X205632Y192949D01*
X205604Y193126D01*
X205593Y193309D01*
Y193315D01*
Y193337D01*
Y193365D01*
X205598Y193404D01*
X205604Y193454D01*
X205609Y193515D01*
X205615Y193576D01*
X205632Y193648D01*
X205665Y193798D01*
X205715Y193964D01*
X205748Y194047D01*
X205787Y194125D01*
X205837Y194203D01*
X205887Y194281D01*
X205892Y194286D01*
X205898Y194297D01*
X205915Y194319D01*
X205943Y194347D01*
X205970Y194375D01*
X206009Y194414D01*
X206053Y194453D01*
X206098Y194497D01*
X206153Y194541D01*
X206220Y194586D01*
X206287Y194636D01*
X206359Y194680D01*
X206442Y194719D01*
X206525Y194763D01*
X206614Y194797D01*
X206714Y194830D01*
X206831Y194331D01*
X206825D01*
X206814Y194325D01*
X206792Y194314D01*
X206764Y194303D01*
X206731Y194292D01*
X206686Y194275D01*
X206597Y194231D01*
X206497Y194175D01*
X206398Y194108D01*
X206303Y194025D01*
X206220Y193936D01*
X206209Y193925D01*
X206187Y193892D01*
X206159Y193837D01*
X206120Y193764D01*
X206087Y193670D01*
X206053Y193565D01*
X206031Y193437D01*
X206026Y193298D01*
Y193293D01*
Y193276D01*
Y193254D01*
X206031Y193226D01*
Y193187D01*
X206037Y193143D01*
X206053Y193037D01*
X206076Y192921D01*
X206115Y192799D01*
X206170Y192671D01*
X206242Y192554D01*
Y192549D01*
X206253Y192543D01*
X206281Y192505D01*
X206325Y192455D01*
X206392Y192394D01*
X206475Y192321D01*
X206570Y192255D01*
X206686Y192194D01*
X206814Y192138D01*
X206819D01*
X206831Y192133D01*
X206847Y192127D01*
X206875Y192122D01*
X206908Y192111D01*
X206947Y192099D01*
X207041Y192083D01*
X207152Y192060D01*
X207274Y192038D01*
X207408Y192027D01*
X207552Y192022D01*
X207635D01*
X207674Y192027D01*
X207724D01*
X207780Y192033D01*
X207840Y192038D01*
X207974Y192055D01*
X208118Y192083D01*
X208262Y192116D01*
X208407Y192160D01*
X208412D01*
X208423Y192166D01*
X208440Y192177D01*
X208468Y192188D01*
X208534Y192221D01*
X208612Y192271D01*
X208701Y192332D01*
X208795Y192410D01*
X208878Y192499D01*
X208956Y192604D01*
Y192610D01*
X208962Y192621D01*
X208973Y192638D01*
X208984Y192660D01*
X208995Y192688D01*
X209012Y192721D01*
X209045Y192799D01*
X209078Y192899D01*
X209106Y193010D01*
X209128Y193132D01*
X209134Y193259D01*
Y193265D01*
Y193276D01*
Y193298D01*
X209128Y193332D01*
Y193370D01*
X209123Y193409D01*
X209100Y193509D01*
X209073Y193626D01*
X209028Y193742D01*
X208967Y193864D01*
X208934Y193925D01*
X208890Y193981D01*
X208884Y193986D01*
X208878Y193992D01*
X208862Y194009D01*
X208845Y194031D01*
X208817Y194053D01*
X208784Y194081D01*
X208751Y194114D01*
X208706Y194142D01*
X208656Y194175D01*
X208601Y194214D01*
X208545Y194247D01*
X208479Y194281D01*
X208407Y194308D01*
X208329Y194336D01*
X208246Y194364D01*
X208157Y194386D01*
X208284Y194897D01*
X208290D01*
X208312Y194891D01*
D02*
G37*
G36*
X209500Y196634D02*
X206497D01*
X206503Y196628D01*
X206525Y196600D01*
X206558Y196567D01*
X206597Y196512D01*
X206647Y196451D01*
X206703Y196373D01*
X206764Y196284D01*
X206825Y196184D01*
Y196179D01*
X206831Y196173D01*
X206853Y196140D01*
X206880Y196084D01*
X206914Y196018D01*
X206953Y195940D01*
X206991Y195857D01*
X207030Y195773D01*
X207064Y195690D01*
X206608D01*
Y195696D01*
X206597Y195707D01*
X206592Y195729D01*
X206575Y195757D01*
X206558Y195790D01*
X206536Y195829D01*
X206481Y195923D01*
X206420Y196034D01*
X206342Y196145D01*
X206253Y196262D01*
X206159Y196378D01*
X206153Y196384D01*
X206148Y196390D01*
X206131Y196406D01*
X206115Y196428D01*
X206059Y196478D01*
X205992Y196545D01*
X205915Y196612D01*
X205826Y196684D01*
X205737Y196745D01*
X205643Y196800D01*
Y197106D01*
X209500D01*
Y196634D01*
D02*
G37*
G36*
X283650Y168852D02*
X283723Y168841D01*
X283811Y168824D01*
X283911Y168796D01*
X284011Y168763D01*
X284111Y168719D01*
X284117D01*
X284122Y168713D01*
X284156Y168696D01*
X284205Y168663D01*
X284261Y168624D01*
X284328Y168569D01*
X284394Y168508D01*
X284461Y168435D01*
X284516Y168352D01*
X284522Y168341D01*
X284538Y168313D01*
X284561Y168263D01*
X284588Y168202D01*
X284616Y168130D01*
X284638Y168047D01*
X284655Y167953D01*
X284661Y167858D01*
Y167847D01*
Y167814D01*
X284655Y167770D01*
X284644Y167708D01*
X284627Y167636D01*
X284599Y167559D01*
X284566Y167481D01*
X284522Y167403D01*
X284516Y167392D01*
X284500Y167370D01*
X284466Y167331D01*
X284422Y167287D01*
X284366Y167237D01*
X284300Y167181D01*
X284222Y167131D01*
X284128Y167081D01*
X284133D01*
X284144Y167076D01*
X284161Y167070D01*
X284183Y167065D01*
X284244Y167042D01*
X284322Y167009D01*
X284411Y166965D01*
X284500Y166909D01*
X284583Y166837D01*
X284661Y166754D01*
X284666Y166743D01*
X284688Y166709D01*
X284721Y166654D01*
X284755Y166582D01*
X284788Y166493D01*
X284822Y166387D01*
X284844Y166265D01*
X284849Y166132D01*
Y166127D01*
Y166110D01*
Y166082D01*
X284844Y166049D01*
X284838Y166005D01*
X284827Y165955D01*
X284816Y165899D01*
X284805Y165838D01*
X284760Y165705D01*
X284727Y165633D01*
X284694Y165566D01*
X284649Y165494D01*
X284599Y165422D01*
X284544Y165350D01*
X284477Y165283D01*
X284472Y165278D01*
X284461Y165266D01*
X284438Y165250D01*
X284411Y165227D01*
X284377Y165200D01*
X284333Y165172D01*
X284283Y165139D01*
X284222Y165111D01*
X284161Y165078D01*
X284089Y165044D01*
X284017Y165017D01*
X283933Y164989D01*
X283845Y164967D01*
X283750Y164950D01*
X283656Y164939D01*
X283551Y164933D01*
X283501D01*
X283467Y164939D01*
X283423Y164945D01*
X283373Y164950D01*
X283317Y164961D01*
X283256Y164972D01*
X283123Y165006D01*
X282984Y165061D01*
X282912Y165094D01*
X282846Y165133D01*
X282779Y165183D01*
X282712Y165233D01*
X282707Y165239D01*
X282696Y165250D01*
X282679Y165266D01*
X282663Y165289D01*
X282635Y165316D01*
X282607Y165355D01*
X282574Y165394D01*
X282540Y165444D01*
X282507Y165499D01*
X282474Y165555D01*
X282413Y165688D01*
X282363Y165844D01*
X282346Y165927D01*
X282335Y166016D01*
X282807Y166077D01*
Y166071D01*
X282812Y166060D01*
X282818Y166038D01*
X282823Y166010D01*
X282829Y165977D01*
X282840Y165938D01*
X282868Y165855D01*
X282907Y165755D01*
X282957Y165660D01*
X283012Y165572D01*
X283079Y165494D01*
X283090Y165488D01*
X283112Y165466D01*
X283156Y165438D01*
X283212Y165411D01*
X283278Y165377D01*
X283362Y165350D01*
X283456Y165327D01*
X283556Y165322D01*
X283589D01*
X283611Y165327D01*
X283673Y165333D01*
X283750Y165350D01*
X283839Y165377D01*
X283933Y165416D01*
X284028Y165472D01*
X284117Y165550D01*
X284128Y165560D01*
X284156Y165594D01*
X284189Y165644D01*
X284233Y165710D01*
X284278Y165794D01*
X284311Y165888D01*
X284339Y165999D01*
X284350Y166121D01*
Y166127D01*
Y166138D01*
Y166154D01*
X284344Y166177D01*
X284339Y166238D01*
X284322Y166310D01*
X284300Y166399D01*
X284261Y166487D01*
X284205Y166576D01*
X284133Y166659D01*
X284122Y166671D01*
X284094Y166693D01*
X284050Y166726D01*
X283989Y166765D01*
X283911Y166804D01*
X283817Y166837D01*
X283712Y166859D01*
X283595Y166870D01*
X283545D01*
X283506Y166865D01*
X283456Y166859D01*
X283401Y166848D01*
X283334Y166837D01*
X283262Y166820D01*
X283317Y167237D01*
X283345D01*
X283367Y167231D01*
X283439D01*
X283501Y167242D01*
X283573Y167253D01*
X283656Y167270D01*
X283750Y167298D01*
X283839Y167337D01*
X283933Y167386D01*
X283939D01*
X283945Y167392D01*
X283972Y167414D01*
X284011Y167453D01*
X284055Y167503D01*
X284100Y167575D01*
X284139Y167658D01*
X284167Y167753D01*
X284178Y167808D01*
Y167869D01*
Y167875D01*
Y167880D01*
Y167914D01*
X284167Y167958D01*
X284156Y168019D01*
X284133Y168086D01*
X284105Y168158D01*
X284061Y168230D01*
X284000Y168297D01*
X283995Y168302D01*
X283967Y168324D01*
X283928Y168352D01*
X283878Y168386D01*
X283811Y168413D01*
X283734Y168441D01*
X283645Y168463D01*
X283545Y168469D01*
X283501D01*
X283451Y168458D01*
X283384Y168447D01*
X283312Y168424D01*
X283240Y168397D01*
X283162Y168352D01*
X283090Y168297D01*
X283084Y168291D01*
X283062Y168263D01*
X283029Y168225D01*
X282990Y168169D01*
X282951Y168097D01*
X282912Y168008D01*
X282879Y167903D01*
X282857Y167780D01*
X282385Y167864D01*
Y167869D01*
X282390Y167886D01*
X282396Y167908D01*
X282402Y167941D01*
X282413Y167980D01*
X282429Y168025D01*
X282463Y168130D01*
X282518Y168252D01*
X282585Y168374D01*
X282668Y168491D01*
X282773Y168596D01*
X282779Y168602D01*
X282790Y168607D01*
X282807Y168619D01*
X282829Y168635D01*
X282857Y168657D01*
X282896Y168680D01*
X282934Y168702D01*
X282984Y168730D01*
X283095Y168774D01*
X283223Y168818D01*
X283373Y168846D01*
X283451Y168857D01*
X283589D01*
X283650Y168852D01*
D02*
G37*
G36*
X280404Y168902D02*
X280454Y168896D01*
X280515Y168891D01*
X280576Y168885D01*
X280648Y168868D01*
X280798Y168835D01*
X280964Y168785D01*
X281047Y168752D01*
X281125Y168713D01*
X281203Y168663D01*
X281280Y168613D01*
X281286Y168607D01*
X281297Y168602D01*
X281319Y168585D01*
X281347Y168558D01*
X281375Y168530D01*
X281414Y168491D01*
X281453Y168447D01*
X281497Y168402D01*
X281541Y168347D01*
X281586Y168280D01*
X281636Y168213D01*
X281680Y168141D01*
X281719Y168058D01*
X281763Y167975D01*
X281797Y167886D01*
X281830Y167786D01*
X281330Y167670D01*
Y167675D01*
X281325Y167686D01*
X281314Y167708D01*
X281303Y167736D01*
X281292Y167770D01*
X281275Y167814D01*
X281231Y167903D01*
X281175Y168002D01*
X281108Y168102D01*
X281025Y168197D01*
X280937Y168280D01*
X280925Y168291D01*
X280892Y168313D01*
X280837Y168341D01*
X280764Y168380D01*
X280670Y168413D01*
X280565Y168447D01*
X280437Y168469D01*
X280298Y168474D01*
X280254D01*
X280226Y168469D01*
X280187D01*
X280143Y168463D01*
X280037Y168447D01*
X279921Y168424D01*
X279799Y168386D01*
X279671Y168330D01*
X279555Y168258D01*
X279549D01*
X279543Y168247D01*
X279505Y168219D01*
X279455Y168175D01*
X279394Y168108D01*
X279321Y168025D01*
X279255Y167930D01*
X279194Y167814D01*
X279138Y167686D01*
Y167681D01*
X279133Y167670D01*
X279127Y167653D01*
X279122Y167625D01*
X279111Y167592D01*
X279099Y167553D01*
X279083Y167459D01*
X279061Y167348D01*
X279038Y167226D01*
X279027Y167092D01*
X279022Y166948D01*
Y166943D01*
Y166926D01*
Y166898D01*
Y166865D01*
X279027Y166826D01*
Y166776D01*
X279033Y166720D01*
X279038Y166659D01*
X279055Y166526D01*
X279083Y166382D01*
X279116Y166238D01*
X279160Y166093D01*
Y166088D01*
X279166Y166077D01*
X279177Y166060D01*
X279188Y166032D01*
X279222Y165966D01*
X279272Y165888D01*
X279332Y165799D01*
X279410Y165705D01*
X279499Y165622D01*
X279604Y165544D01*
X279610D01*
X279621Y165538D01*
X279638Y165527D01*
X279660Y165516D01*
X279688Y165505D01*
X279721Y165488D01*
X279799Y165455D01*
X279899Y165422D01*
X280010Y165394D01*
X280132Y165372D01*
X280259Y165366D01*
X280298D01*
X280331Y165372D01*
X280370D01*
X280409Y165377D01*
X280509Y165400D01*
X280626Y165427D01*
X280742Y165472D01*
X280864Y165533D01*
X280925Y165566D01*
X280981Y165611D01*
X280986Y165616D01*
X280992Y165622D01*
X281009Y165638D01*
X281031Y165655D01*
X281053Y165683D01*
X281081Y165716D01*
X281114Y165749D01*
X281142Y165794D01*
X281175Y165844D01*
X281214Y165899D01*
X281247Y165955D01*
X281280Y166021D01*
X281308Y166093D01*
X281336Y166171D01*
X281364Y166254D01*
X281386Y166343D01*
X281897Y166216D01*
Y166210D01*
X281891Y166188D01*
X281880Y166154D01*
X281863Y166110D01*
X281847Y166060D01*
X281824Y165999D01*
X281797Y165932D01*
X281763Y165860D01*
X281686Y165705D01*
X281586Y165550D01*
X281525Y165472D01*
X281464Y165394D01*
X281397Y165327D01*
X281319Y165261D01*
X281314Y165255D01*
X281303Y165244D01*
X281275Y165233D01*
X281247Y165211D01*
X281203Y165183D01*
X281158Y165155D01*
X281097Y165128D01*
X281036Y165100D01*
X280964Y165067D01*
X280887Y165039D01*
X280803Y165011D01*
X280714Y164983D01*
X280620Y164961D01*
X280520Y164950D01*
X280415Y164939D01*
X280304Y164933D01*
X280243D01*
X280198Y164939D01*
X280148D01*
X280087Y164945D01*
X280021Y164956D01*
X279943Y164967D01*
X279782Y164995D01*
X279615Y165039D01*
X279449Y165100D01*
X279371Y165139D01*
X279294Y165183D01*
X279288Y165189D01*
X279277Y165194D01*
X279255Y165211D01*
X279233Y165233D01*
X279199Y165255D01*
X279160Y165289D01*
X279116Y165327D01*
X279072Y165372D01*
X279027Y165422D01*
X278977Y165472D01*
X278877Y165599D01*
X278783Y165749D01*
X278700Y165916D01*
Y165921D01*
X278689Y165938D01*
X278683Y165966D01*
X278666Y165999D01*
X278655Y166043D01*
X278639Y166099D01*
X278617Y166160D01*
X278600Y166226D01*
X278583Y166299D01*
X278561Y166382D01*
X278533Y166554D01*
X278511Y166748D01*
X278500Y166948D01*
Y166954D01*
Y166976D01*
Y167009D01*
X278505Y167048D01*
Y167103D01*
X278511Y167159D01*
X278517Y167231D01*
X278528Y167303D01*
X278555Y167464D01*
X278594Y167642D01*
X278650Y167819D01*
X278728Y167991D01*
X278733Y167997D01*
X278739Y168014D01*
X278750Y168036D01*
X278772Y168064D01*
X278794Y168102D01*
X278822Y168147D01*
X278894Y168247D01*
X278988Y168358D01*
X279099Y168469D01*
X279227Y168580D01*
X279377Y168674D01*
X279382Y168680D01*
X279399Y168685D01*
X279421Y168696D01*
X279449Y168713D01*
X279493Y168730D01*
X279538Y168746D01*
X279593Y168769D01*
X279654Y168791D01*
X279721Y168813D01*
X279793Y168835D01*
X279948Y168868D01*
X280126Y168896D01*
X280309Y168907D01*
X280365D01*
X280404Y168902D01*
D02*
G37*
G36*
X255195Y164352D02*
X255239Y164346D01*
X255295Y164341D01*
X255356Y164330D01*
X255417Y164318D01*
X255561Y164279D01*
X255705Y164224D01*
X255778Y164191D01*
X255850Y164152D01*
X255916Y164102D01*
X255977Y164047D01*
X255983Y164041D01*
X255994Y164035D01*
X256005Y164013D01*
X256027Y163991D01*
X256055Y163963D01*
X256083Y163924D01*
X256111Y163885D01*
X256144Y163836D01*
X256199Y163730D01*
X256255Y163597D01*
X256277Y163530D01*
X256288Y163453D01*
X256299Y163375D01*
X256305Y163292D01*
Y163280D01*
Y163253D01*
X256299Y163208D01*
X256294Y163147D01*
X256283Y163081D01*
X256260Y163003D01*
X256238Y162920D01*
X256205Y162837D01*
X256199Y162826D01*
X256188Y162798D01*
X256166Y162753D01*
X256133Y162692D01*
X256088Y162626D01*
X256033Y162542D01*
X255966Y162459D01*
X255889Y162365D01*
X255877Y162354D01*
X255850Y162320D01*
X255822Y162293D01*
X255794Y162265D01*
X255761Y162232D01*
X255716Y162187D01*
X255672Y162143D01*
X255617Y162093D01*
X255561Y162037D01*
X255494Y161976D01*
X255422Y161915D01*
X255345Y161843D01*
X255256Y161771D01*
X255167Y161693D01*
X255161Y161688D01*
X255150Y161677D01*
X255128Y161660D01*
X255100Y161638D01*
X255067Y161604D01*
X255028Y161571D01*
X254940Y161499D01*
X254845Y161416D01*
X254756Y161332D01*
X254679Y161260D01*
X254645Y161233D01*
X254618Y161205D01*
X254612Y161199D01*
X254595Y161183D01*
X254573Y161160D01*
X254545Y161127D01*
X254518Y161088D01*
X254484Y161049D01*
X254418Y160955D01*
X256310D01*
Y160500D01*
X253763D01*
Y160505D01*
Y160528D01*
Y160561D01*
X253768Y160605D01*
X253774Y160655D01*
X253785Y160711D01*
X253796Y160766D01*
X253818Y160827D01*
Y160833D01*
X253824Y160839D01*
X253835Y160872D01*
X253857Y160922D01*
X253890Y160988D01*
X253935Y161066D01*
X253991Y161155D01*
X254051Y161244D01*
X254129Y161338D01*
Y161344D01*
X254140Y161349D01*
X254168Y161382D01*
X254218Y161432D01*
X254290Y161504D01*
X254373Y161588D01*
X254479Y161688D01*
X254607Y161799D01*
X254745Y161915D01*
X254751Y161921D01*
X254773Y161937D01*
X254806Y161965D01*
X254845Y161998D01*
X254895Y162043D01*
X254956Y162093D01*
X255017Y162148D01*
X255089Y162209D01*
X255228Y162343D01*
X255367Y162476D01*
X255433Y162542D01*
X255494Y162609D01*
X255550Y162670D01*
X255594Y162731D01*
Y162737D01*
X255606Y162742D01*
X255617Y162759D01*
X255628Y162781D01*
X255667Y162842D01*
X255711Y162914D01*
X255750Y163003D01*
X255789Y163097D01*
X255811Y163203D01*
X255822Y163303D01*
Y163308D01*
Y163314D01*
X255816Y163347D01*
X255811Y163403D01*
X255794Y163464D01*
X255772Y163541D01*
X255733Y163619D01*
X255683Y163697D01*
X255617Y163775D01*
X255606Y163786D01*
X255578Y163808D01*
X255539Y163836D01*
X255478Y163874D01*
X255400Y163908D01*
X255311Y163941D01*
X255206Y163963D01*
X255089Y163969D01*
X255056D01*
X255034Y163963D01*
X254967Y163958D01*
X254890Y163941D01*
X254806Y163919D01*
X254712Y163880D01*
X254623Y163830D01*
X254540Y163763D01*
X254529Y163752D01*
X254507Y163725D01*
X254473Y163680D01*
X254440Y163614D01*
X254401Y163536D01*
X254368Y163436D01*
X254346Y163325D01*
X254334Y163197D01*
X253852Y163247D01*
Y163253D01*
X253857Y163269D01*
Y163297D01*
X253863Y163336D01*
X253874Y163380D01*
X253885Y163430D01*
X253902Y163491D01*
X253918Y163552D01*
X253963Y163686D01*
X254029Y163819D01*
X254068Y163885D01*
X254118Y163952D01*
X254168Y164013D01*
X254223Y164069D01*
X254229Y164074D01*
X254240Y164080D01*
X254257Y164096D01*
X254285Y164113D01*
X254318Y164135D01*
X254357Y164157D01*
X254401Y164185D01*
X254457Y164213D01*
X254518Y164241D01*
X254584Y164269D01*
X254656Y164291D01*
X254734Y164313D01*
X254817Y164330D01*
X254906Y164346D01*
X255001Y164352D01*
X255100Y164357D01*
X255156D01*
X255195Y164352D01*
D02*
G37*
G36*
X261575Y176402D02*
X258228Y173055D01*
Y179748D01*
X261575Y176402D01*
D02*
G37*
G36*
X229075Y190402D02*
X225728Y187055D01*
Y193748D01*
X229075Y190402D01*
D02*
G37*
G36*
X265272Y187752D02*
X261925Y191098D01*
X265272Y194445D01*
Y187752D01*
D02*
G37*
G36*
X297945Y129728D02*
X291252D01*
X294598Y133075D01*
X297945Y129728D01*
D02*
G37*
G36*
X232945Y139728D02*
X226252D01*
X229598Y143075D01*
X232945Y139728D01*
D02*
G37*
G36*
X194945Y143728D02*
X188252D01*
X191598Y147075D01*
X194945Y143728D01*
D02*
G37*
G36*
X226195Y170852D02*
X226239Y170846D01*
X226295Y170841D01*
X226356Y170829D01*
X226417Y170818D01*
X226561Y170780D01*
X226705Y170724D01*
X226778Y170691D01*
X226850Y170652D01*
X226916Y170602D01*
X226977Y170546D01*
X226983Y170541D01*
X226994Y170535D01*
X227005Y170513D01*
X227027Y170491D01*
X227055Y170463D01*
X227083Y170424D01*
X227111Y170386D01*
X227144Y170335D01*
X227199Y170230D01*
X227255Y170097D01*
X227277Y170030D01*
X227288Y169953D01*
X227299Y169875D01*
X227305Y169792D01*
Y169781D01*
Y169753D01*
X227299Y169708D01*
X227294Y169647D01*
X227283Y169581D01*
X227260Y169503D01*
X227238Y169420D01*
X227205Y169337D01*
X227199Y169325D01*
X227188Y169298D01*
X227166Y169253D01*
X227133Y169192D01*
X227088Y169126D01*
X227033Y169042D01*
X226966Y168959D01*
X226888Y168865D01*
X226877Y168854D01*
X226850Y168820D01*
X226822Y168793D01*
X226794Y168765D01*
X226761Y168732D01*
X226716Y168687D01*
X226672Y168643D01*
X226617Y168593D01*
X226561Y168537D01*
X226495Y168476D01*
X226422Y168415D01*
X226345Y168343D01*
X226256Y168271D01*
X226167Y168193D01*
X226162Y168188D01*
X226150Y168177D01*
X226128Y168160D01*
X226100Y168138D01*
X226067Y168104D01*
X226028Y168071D01*
X225939Y167999D01*
X225845Y167916D01*
X225756Y167833D01*
X225679Y167760D01*
X225645Y167733D01*
X225618Y167705D01*
X225612Y167699D01*
X225595Y167683D01*
X225573Y167660D01*
X225545Y167627D01*
X225518Y167588D01*
X225484Y167550D01*
X225418Y167455D01*
X227310D01*
Y167000D01*
X224763D01*
Y167006D01*
Y167028D01*
Y167061D01*
X224768Y167105D01*
X224774Y167155D01*
X224785Y167211D01*
X224796Y167266D01*
X224818Y167327D01*
Y167333D01*
X224824Y167339D01*
X224835Y167372D01*
X224857Y167422D01*
X224890Y167488D01*
X224935Y167566D01*
X224991Y167655D01*
X225051Y167744D01*
X225129Y167838D01*
Y167844D01*
X225140Y167849D01*
X225168Y167882D01*
X225218Y167932D01*
X225290Y168005D01*
X225373Y168088D01*
X225479Y168188D01*
X225606Y168299D01*
X225745Y168415D01*
X225751Y168421D01*
X225773Y168437D01*
X225806Y168465D01*
X225845Y168499D01*
X225895Y168543D01*
X225956Y168593D01*
X226017Y168648D01*
X226089Y168709D01*
X226228Y168843D01*
X226367Y168976D01*
X226433Y169042D01*
X226495Y169109D01*
X226550Y169170D01*
X226594Y169231D01*
Y169237D01*
X226606Y169242D01*
X226617Y169259D01*
X226628Y169281D01*
X226667Y169342D01*
X226711Y169414D01*
X226750Y169503D01*
X226789Y169597D01*
X226811Y169703D01*
X226822Y169803D01*
Y169808D01*
Y169814D01*
X226816Y169847D01*
X226811Y169903D01*
X226794Y169964D01*
X226772Y170041D01*
X226733Y170119D01*
X226683Y170197D01*
X226617Y170274D01*
X226606Y170286D01*
X226578Y170308D01*
X226539Y170335D01*
X226478Y170374D01*
X226400Y170408D01*
X226311Y170441D01*
X226206Y170463D01*
X226089Y170469D01*
X226056D01*
X226034Y170463D01*
X225967Y170458D01*
X225890Y170441D01*
X225806Y170419D01*
X225712Y170380D01*
X225623Y170330D01*
X225540Y170263D01*
X225529Y170252D01*
X225507Y170224D01*
X225473Y170180D01*
X225440Y170114D01*
X225401Y170036D01*
X225368Y169936D01*
X225346Y169825D01*
X225335Y169697D01*
X224852Y169747D01*
Y169753D01*
X224857Y169770D01*
Y169797D01*
X224863Y169836D01*
X224874Y169880D01*
X224885Y169930D01*
X224902Y169992D01*
X224918Y170053D01*
X224963Y170186D01*
X225029Y170319D01*
X225068Y170386D01*
X225118Y170452D01*
X225168Y170513D01*
X225223Y170569D01*
X225229Y170574D01*
X225240Y170580D01*
X225257Y170596D01*
X225285Y170613D01*
X225318Y170635D01*
X225357Y170657D01*
X225401Y170685D01*
X225457Y170713D01*
X225518Y170741D01*
X225584Y170768D01*
X225656Y170791D01*
X225734Y170813D01*
X225817Y170829D01*
X225906Y170846D01*
X226001Y170852D01*
X226100Y170857D01*
X226156D01*
X226195Y170852D01*
D02*
G37*
G36*
X229086D02*
X229114D01*
X229153Y170846D01*
X229247Y170829D01*
X229353Y170807D01*
X229469Y170768D01*
X229586Y170719D01*
X229702Y170652D01*
X229708D01*
X229714Y170641D01*
X229730Y170630D01*
X229752Y170613D01*
X229808Y170569D01*
X229880Y170508D01*
X229952Y170424D01*
X230035Y170325D01*
X230107Y170208D01*
X230174Y170075D01*
Y170069D01*
X230180Y170058D01*
X230191Y170036D01*
X230202Y170008D01*
X230213Y169969D01*
X230230Y169919D01*
X230241Y169864D01*
X230257Y169803D01*
X230274Y169731D01*
X230291Y169647D01*
X230302Y169559D01*
X230313Y169464D01*
X230324Y169359D01*
X230335Y169248D01*
X230341Y169126D01*
Y168998D01*
Y168992D01*
Y168965D01*
Y168926D01*
Y168876D01*
X230335Y168815D01*
Y168743D01*
X230330Y168659D01*
X230318Y168576D01*
X230302Y168387D01*
X230274Y168188D01*
X230235Y167999D01*
X230207Y167905D01*
X230180Y167821D01*
Y167816D01*
X230174Y167805D01*
X230163Y167782D01*
X230152Y167749D01*
X230135Y167716D01*
X230113Y167672D01*
X230058Y167577D01*
X229991Y167472D01*
X229913Y167361D01*
X229813Y167255D01*
X229702Y167161D01*
X229697D01*
X229686Y167150D01*
X229669Y167139D01*
X229647Y167128D01*
X229614Y167111D01*
X229580Y167089D01*
X229536Y167067D01*
X229491Y167050D01*
X229386Y167006D01*
X229258Y166967D01*
X229120Y166945D01*
X228964Y166933D01*
X228920D01*
X228892Y166939D01*
X228853D01*
X228809Y166945D01*
X228703Y166967D01*
X228587Y166995D01*
X228465Y167039D01*
X228343Y167100D01*
X228282Y167139D01*
X228226Y167183D01*
X228221Y167189D01*
X228215Y167194D01*
X228198Y167211D01*
X228182Y167227D01*
X228159Y167255D01*
X228132Y167289D01*
X228076Y167366D01*
X228021Y167466D01*
X227965Y167588D01*
X227921Y167727D01*
X227888Y167888D01*
X228343Y167927D01*
Y167921D01*
X228348Y167910D01*
Y167899D01*
X228354Y167877D01*
X228370Y167816D01*
X228393Y167749D01*
X228420Y167672D01*
X228459Y167594D01*
X228504Y167522D01*
X228559Y167461D01*
X228565Y167455D01*
X228587Y167438D01*
X228626Y167416D01*
X228670Y167394D01*
X228731Y167366D01*
X228803Y167344D01*
X228887Y167327D01*
X228975Y167322D01*
X229014D01*
X229053Y167327D01*
X229103Y167333D01*
X229164Y167344D01*
X229225Y167361D01*
X229292Y167383D01*
X229353Y167416D01*
X229358Y167422D01*
X229380Y167433D01*
X229414Y167455D01*
X229447Y167488D01*
X229491Y167527D01*
X229536Y167572D01*
X229580Y167622D01*
X229625Y167683D01*
X229630Y167688D01*
X229641Y167716D01*
X229663Y167755D01*
X229686Y167805D01*
X229714Y167871D01*
X229741Y167949D01*
X229769Y168038D01*
X229797Y168138D01*
Y168143D01*
X229802Y168149D01*
Y168166D01*
X229808Y168188D01*
X229819Y168243D01*
X229836Y168315D01*
X229847Y168404D01*
X229858Y168499D01*
X229863Y168604D01*
X229869Y168715D01*
Y168720D01*
Y168737D01*
Y168765D01*
Y168809D01*
X229863Y168798D01*
X229841Y168771D01*
X229808Y168732D01*
X229769Y168676D01*
X229714Y168621D01*
X229647Y168560D01*
X229569Y168499D01*
X229480Y168443D01*
X229469Y168437D01*
X229436Y168421D01*
X229386Y168399D01*
X229325Y168376D01*
X229242Y168349D01*
X229153Y168326D01*
X229053Y168310D01*
X228948Y168304D01*
X228903D01*
X228870Y168310D01*
X228825Y168315D01*
X228781Y168321D01*
X228726Y168332D01*
X228670Y168349D01*
X228542Y168387D01*
X228476Y168415D01*
X228409Y168449D01*
X228337Y168487D01*
X228271Y168537D01*
X228204Y168587D01*
X228143Y168648D01*
X228137Y168654D01*
X228126Y168665D01*
X228115Y168682D01*
X228093Y168709D01*
X228065Y168748D01*
X228037Y168787D01*
X228010Y168837D01*
X227982Y168893D01*
X227949Y168954D01*
X227921Y169020D01*
X227893Y169098D01*
X227865Y169176D01*
X227843Y169264D01*
X227832Y169359D01*
X227821Y169453D01*
X227815Y169559D01*
Y169564D01*
Y169586D01*
Y169614D01*
X227821Y169653D01*
X227826Y169703D01*
X227832Y169764D01*
X227843Y169825D01*
X227860Y169897D01*
X227899Y170041D01*
X227926Y170119D01*
X227960Y170202D01*
X227998Y170280D01*
X228048Y170352D01*
X228099Y170430D01*
X228159Y170496D01*
X228165Y170502D01*
X228176Y170513D01*
X228193Y170530D01*
X228221Y170552D01*
X228254Y170580D01*
X228298Y170613D01*
X228343Y170641D01*
X228398Y170680D01*
X228454Y170713D01*
X228520Y170741D01*
X228670Y170802D01*
X228748Y170824D01*
X228837Y170841D01*
X228925Y170852D01*
X229020Y170857D01*
X229059D01*
X229086Y170852D01*
D02*
G37*
G36*
X280171Y171558D02*
X281542D01*
Y170982D01*
X280171D01*
Y169612D01*
X279588D01*
Y170982D01*
X278218D01*
Y171558D01*
X279588D01*
Y172943D01*
X280171D01*
Y171558D01*
D02*
G37*
G36*
X308404Y196902D02*
X308454Y196896D01*
X308515Y196891D01*
X308576Y196885D01*
X308648Y196868D01*
X308798Y196835D01*
X308964Y196785D01*
X309047Y196752D01*
X309125Y196713D01*
X309203Y196663D01*
X309280Y196613D01*
X309286Y196607D01*
X309297Y196602D01*
X309319Y196585D01*
X309347Y196557D01*
X309375Y196530D01*
X309414Y196491D01*
X309453Y196447D01*
X309497Y196402D01*
X309541Y196347D01*
X309586Y196280D01*
X309636Y196213D01*
X309680Y196141D01*
X309719Y196058D01*
X309763Y195975D01*
X309797Y195886D01*
X309830Y195786D01*
X309331Y195670D01*
Y195675D01*
X309325Y195686D01*
X309314Y195708D01*
X309303Y195736D01*
X309292Y195770D01*
X309275Y195814D01*
X309231Y195903D01*
X309175Y196002D01*
X309108Y196102D01*
X309025Y196197D01*
X308937Y196280D01*
X308925Y196291D01*
X308892Y196313D01*
X308837Y196341D01*
X308764Y196380D01*
X308670Y196413D01*
X308565Y196447D01*
X308437Y196469D01*
X308298Y196474D01*
X308254D01*
X308226Y196469D01*
X308187D01*
X308143Y196463D01*
X308037Y196447D01*
X307921Y196424D01*
X307799Y196386D01*
X307671Y196330D01*
X307555Y196258D01*
X307549D01*
X307543Y196247D01*
X307505Y196219D01*
X307455Y196175D01*
X307394Y196108D01*
X307321Y196025D01*
X307255Y195930D01*
X307194Y195814D01*
X307138Y195686D01*
Y195681D01*
X307133Y195670D01*
X307127Y195653D01*
X307122Y195625D01*
X307111Y195592D01*
X307099Y195553D01*
X307083Y195459D01*
X307061Y195348D01*
X307038Y195226D01*
X307027Y195092D01*
X307022Y194948D01*
Y194942D01*
Y194926D01*
Y194898D01*
Y194865D01*
X307027Y194826D01*
Y194776D01*
X307033Y194720D01*
X307038Y194659D01*
X307055Y194526D01*
X307083Y194382D01*
X307116Y194238D01*
X307160Y194093D01*
Y194088D01*
X307166Y194077D01*
X307177Y194060D01*
X307188Y194032D01*
X307222Y193966D01*
X307272Y193888D01*
X307332Y193799D01*
X307410Y193705D01*
X307499Y193622D01*
X307604Y193544D01*
X307610D01*
X307621Y193538D01*
X307638Y193527D01*
X307660Y193516D01*
X307688Y193505D01*
X307721Y193488D01*
X307799Y193455D01*
X307899Y193422D01*
X308010Y193394D01*
X308132Y193372D01*
X308259Y193366D01*
X308298D01*
X308331Y193372D01*
X308370D01*
X308409Y193377D01*
X308509Y193400D01*
X308626Y193427D01*
X308742Y193472D01*
X308864Y193533D01*
X308925Y193566D01*
X308981Y193611D01*
X308986Y193616D01*
X308992Y193622D01*
X309009Y193638D01*
X309031Y193655D01*
X309053Y193683D01*
X309081Y193716D01*
X309114Y193749D01*
X309142Y193794D01*
X309175Y193844D01*
X309214Y193899D01*
X309247Y193955D01*
X309280Y194021D01*
X309308Y194093D01*
X309336Y194171D01*
X309364Y194254D01*
X309386Y194343D01*
X309897Y194216D01*
Y194210D01*
X309891Y194188D01*
X309880Y194154D01*
X309863Y194110D01*
X309847Y194060D01*
X309824Y193999D01*
X309797Y193932D01*
X309763Y193860D01*
X309686Y193705D01*
X309586Y193550D01*
X309525Y193472D01*
X309464Y193394D01*
X309397Y193327D01*
X309319Y193261D01*
X309314Y193255D01*
X309303Y193244D01*
X309275Y193233D01*
X309247Y193211D01*
X309203Y193183D01*
X309158Y193155D01*
X309097Y193128D01*
X309036Y193100D01*
X308964Y193067D01*
X308887Y193039D01*
X308803Y193011D01*
X308714Y192983D01*
X308620Y192961D01*
X308520Y192950D01*
X308415Y192939D01*
X308304Y192933D01*
X308243D01*
X308198Y192939D01*
X308148D01*
X308087Y192945D01*
X308021Y192956D01*
X307943Y192967D01*
X307782Y192994D01*
X307615Y193039D01*
X307449Y193100D01*
X307371Y193139D01*
X307294Y193183D01*
X307288Y193189D01*
X307277Y193194D01*
X307255Y193211D01*
X307233Y193233D01*
X307199Y193255D01*
X307160Y193289D01*
X307116Y193327D01*
X307072Y193372D01*
X307027Y193422D01*
X306977Y193472D01*
X306877Y193599D01*
X306783Y193749D01*
X306700Y193916D01*
Y193921D01*
X306689Y193938D01*
X306683Y193966D01*
X306666Y193999D01*
X306655Y194043D01*
X306639Y194099D01*
X306617Y194160D01*
X306600Y194227D01*
X306583Y194299D01*
X306561Y194382D01*
X306533Y194554D01*
X306511Y194748D01*
X306500Y194948D01*
Y194954D01*
Y194976D01*
Y195009D01*
X306505Y195048D01*
Y195103D01*
X306511Y195159D01*
X306517Y195231D01*
X306528Y195303D01*
X306556Y195464D01*
X306594Y195642D01*
X306650Y195819D01*
X306728Y195992D01*
X306733Y195997D01*
X306739Y196014D01*
X306750Y196036D01*
X306772Y196064D01*
X306794Y196102D01*
X306822Y196147D01*
X306894Y196247D01*
X306988Y196358D01*
X307099Y196469D01*
X307227Y196580D01*
X307377Y196674D01*
X307382Y196680D01*
X307399Y196685D01*
X307421Y196696D01*
X307449Y196713D01*
X307493Y196730D01*
X307538Y196746D01*
X307593Y196768D01*
X307654Y196791D01*
X307721Y196813D01*
X307793Y196835D01*
X307948Y196868D01*
X308126Y196896D01*
X308309Y196907D01*
X308365D01*
X308404Y196902D01*
D02*
G37*
G36*
X286524Y146514D02*
X286579D01*
X286646Y146508D01*
X286712Y146502D01*
X286862Y146486D01*
X287018Y146464D01*
X287168Y146430D01*
X287240Y146408D01*
X287306Y146386D01*
X287312D01*
X287323Y146380D01*
X287340Y146369D01*
X287362Y146358D01*
X287423Y146325D01*
X287501Y146275D01*
X287589Y146208D01*
X287678Y146131D01*
X287772Y146031D01*
X287856Y145909D01*
Y145903D01*
X287867Y145892D01*
X287872Y145875D01*
X287889Y145848D01*
X287906Y145814D01*
X287922Y145770D01*
X287939Y145726D01*
X287961Y145670D01*
X287983Y145609D01*
X288000Y145542D01*
X288017Y145470D01*
X288033Y145387D01*
X288044Y145304D01*
X288055Y145215D01*
X288067Y145015D01*
Y145010D01*
Y144993D01*
Y144965D01*
X288061Y144926D01*
Y144882D01*
X288055Y144826D01*
X288050Y144765D01*
X288044Y144704D01*
X288022Y144566D01*
X287989Y144416D01*
X287945Y144272D01*
X287883Y144133D01*
Y144127D01*
X287872Y144116D01*
X287861Y144099D01*
X287850Y144077D01*
X287806Y144016D01*
X287745Y143944D01*
X287667Y143861D01*
X287578Y143783D01*
X287467Y143705D01*
X287345Y143644D01*
X287340D01*
X287329Y143639D01*
X287306Y143633D01*
X287279Y143622D01*
X287245Y143611D01*
X287201Y143600D01*
X287151Y143583D01*
X287090Y143572D01*
X287023Y143561D01*
X286951Y143544D01*
X286873Y143533D01*
X286790Y143522D01*
X286696Y143511D01*
X286596Y143506D01*
X286490Y143500D01*
X284159D01*
Y144011D01*
X286463D01*
X286502Y144016D01*
X286551D01*
X286657Y144022D01*
X286779Y144033D01*
X286901Y144050D01*
X287018Y144072D01*
X287068Y144083D01*
X287118Y144099D01*
X287129Y144105D01*
X287156Y144116D01*
X287195Y144144D01*
X287251Y144177D01*
X287306Y144216D01*
X287367Y144272D01*
X287428Y144338D01*
X287478Y144416D01*
X287484Y144427D01*
X287501Y144455D01*
X287517Y144504D01*
X287539Y144571D01*
X287567Y144649D01*
X287584Y144749D01*
X287600Y144854D01*
X287606Y144971D01*
Y144976D01*
Y144993D01*
Y145026D01*
X287600Y145060D01*
Y145109D01*
X287595Y145159D01*
X287573Y145282D01*
X287545Y145415D01*
X287501Y145542D01*
X287439Y145665D01*
X287401Y145720D01*
X287356Y145770D01*
X287351Y145775D01*
X287345Y145781D01*
X287329Y145792D01*
X287306Y145809D01*
X287273Y145826D01*
X287240Y145848D01*
X287190Y145870D01*
X287140Y145892D01*
X287079Y145914D01*
X287007Y145931D01*
X286923Y145953D01*
X286835Y145970D01*
X286735Y145986D01*
X286629Y145998D01*
X286507Y146009D01*
X284159D01*
Y146519D01*
X286474D01*
X286524Y146514D01*
D02*
G37*
G36*
X315091Y193000D02*
X314620D01*
Y196002D01*
X314614Y195997D01*
X314586Y195975D01*
X314553Y195941D01*
X314498Y195903D01*
X314437Y195853D01*
X314359Y195797D01*
X314270Y195736D01*
X314170Y195675D01*
X314165D01*
X314159Y195670D01*
X314126Y195647D01*
X314070Y195620D01*
X314004Y195586D01*
X313926Y195547D01*
X313843Y195509D01*
X313759Y195470D01*
X313676Y195436D01*
Y195892D01*
X313682D01*
X313693Y195903D01*
X313715Y195908D01*
X313743Y195925D01*
X313776Y195941D01*
X313815Y195964D01*
X313909Y196019D01*
X314020Y196080D01*
X314131Y196158D01*
X314248Y196247D01*
X314364Y196341D01*
X314370Y196347D01*
X314375Y196352D01*
X314392Y196369D01*
X314414Y196386D01*
X314464Y196441D01*
X314531Y196508D01*
X314597Y196585D01*
X314670Y196674D01*
X314731Y196763D01*
X314786Y196857D01*
X315091D01*
Y193000D01*
D02*
G37*
G36*
X311650Y196852D02*
X311723Y196841D01*
X311811Y196824D01*
X311911Y196796D01*
X312011Y196763D01*
X312111Y196719D01*
X312117D01*
X312122Y196713D01*
X312156Y196696D01*
X312205Y196663D01*
X312261Y196624D01*
X312328Y196569D01*
X312394Y196508D01*
X312461Y196435D01*
X312516Y196352D01*
X312522Y196341D01*
X312538Y196313D01*
X312561Y196263D01*
X312588Y196202D01*
X312616Y196130D01*
X312638Y196047D01*
X312655Y195953D01*
X312661Y195858D01*
Y195847D01*
Y195814D01*
X312655Y195770D01*
X312644Y195708D01*
X312627Y195636D01*
X312599Y195559D01*
X312566Y195481D01*
X312522Y195403D01*
X312516Y195392D01*
X312499Y195370D01*
X312466Y195331D01*
X312422Y195287D01*
X312366Y195237D01*
X312300Y195181D01*
X312222Y195131D01*
X312128Y195081D01*
X312133D01*
X312144Y195076D01*
X312161Y195070D01*
X312183Y195065D01*
X312244Y195042D01*
X312322Y195009D01*
X312411Y194965D01*
X312499Y194909D01*
X312583Y194837D01*
X312661Y194754D01*
X312666Y194743D01*
X312688Y194709D01*
X312721Y194654D01*
X312755Y194582D01*
X312788Y194493D01*
X312822Y194387D01*
X312844Y194265D01*
X312849Y194132D01*
Y194127D01*
Y194110D01*
Y194082D01*
X312844Y194049D01*
X312838Y194004D01*
X312827Y193955D01*
X312816Y193899D01*
X312805Y193838D01*
X312760Y193705D01*
X312727Y193633D01*
X312694Y193566D01*
X312649Y193494D01*
X312599Y193422D01*
X312544Y193350D01*
X312477Y193283D01*
X312472Y193278D01*
X312461Y193266D01*
X312439Y193250D01*
X312411Y193228D01*
X312377Y193200D01*
X312333Y193172D01*
X312283Y193139D01*
X312222Y193111D01*
X312161Y193078D01*
X312089Y193044D01*
X312017Y193017D01*
X311933Y192989D01*
X311845Y192967D01*
X311750Y192950D01*
X311656Y192939D01*
X311550Y192933D01*
X311501D01*
X311467Y192939D01*
X311423Y192945D01*
X311373Y192950D01*
X311317Y192961D01*
X311256Y192972D01*
X311123Y193006D01*
X310984Y193061D01*
X310912Y193094D01*
X310846Y193133D01*
X310779Y193183D01*
X310712Y193233D01*
X310707Y193239D01*
X310696Y193250D01*
X310679Y193266D01*
X310663Y193289D01*
X310635Y193316D01*
X310607Y193355D01*
X310574Y193394D01*
X310540Y193444D01*
X310507Y193500D01*
X310474Y193555D01*
X310413Y193688D01*
X310363Y193844D01*
X310346Y193927D01*
X310335Y194016D01*
X310807Y194077D01*
Y194071D01*
X310812Y194060D01*
X310818Y194038D01*
X310823Y194010D01*
X310829Y193977D01*
X310840Y193938D01*
X310868Y193855D01*
X310907Y193755D01*
X310957Y193660D01*
X311012Y193572D01*
X311079Y193494D01*
X311090Y193488D01*
X311112Y193466D01*
X311156Y193438D01*
X311212Y193411D01*
X311279Y193377D01*
X311362Y193350D01*
X311456Y193327D01*
X311556Y193322D01*
X311589D01*
X311612Y193327D01*
X311673Y193333D01*
X311750Y193350D01*
X311839Y193377D01*
X311933Y193416D01*
X312028Y193472D01*
X312117Y193550D01*
X312128Y193561D01*
X312156Y193594D01*
X312189Y193644D01*
X312233Y193710D01*
X312278Y193794D01*
X312311Y193888D01*
X312339Y193999D01*
X312350Y194121D01*
Y194127D01*
Y194138D01*
Y194154D01*
X312344Y194177D01*
X312339Y194238D01*
X312322Y194310D01*
X312300Y194399D01*
X312261Y194487D01*
X312205Y194576D01*
X312133Y194659D01*
X312122Y194671D01*
X312094Y194693D01*
X312050Y194726D01*
X311989Y194765D01*
X311911Y194804D01*
X311817Y194837D01*
X311712Y194859D01*
X311595Y194870D01*
X311545D01*
X311506Y194865D01*
X311456Y194859D01*
X311401Y194848D01*
X311334Y194837D01*
X311262Y194820D01*
X311317Y195237D01*
X311345D01*
X311367Y195231D01*
X311439D01*
X311501Y195242D01*
X311573Y195253D01*
X311656Y195270D01*
X311750Y195298D01*
X311839Y195337D01*
X311933Y195387D01*
X311939D01*
X311945Y195392D01*
X311972Y195414D01*
X312011Y195453D01*
X312055Y195503D01*
X312100Y195575D01*
X312139Y195658D01*
X312167Y195753D01*
X312178Y195808D01*
Y195869D01*
Y195875D01*
Y195880D01*
Y195914D01*
X312167Y195958D01*
X312156Y196019D01*
X312133Y196086D01*
X312105Y196158D01*
X312061Y196230D01*
X312000Y196297D01*
X311995Y196302D01*
X311967Y196325D01*
X311928Y196352D01*
X311878Y196386D01*
X311811Y196413D01*
X311734Y196441D01*
X311645Y196463D01*
X311545Y196469D01*
X311501D01*
X311451Y196458D01*
X311384Y196447D01*
X311312Y196424D01*
X311240Y196397D01*
X311162Y196352D01*
X311090Y196297D01*
X311084Y196291D01*
X311062Y196263D01*
X311029Y196224D01*
X310990Y196169D01*
X310951Y196097D01*
X310912Y196008D01*
X310879Y195903D01*
X310857Y195781D01*
X310385Y195864D01*
Y195869D01*
X310390Y195886D01*
X310396Y195908D01*
X310402Y195941D01*
X310413Y195980D01*
X310429Y196025D01*
X310463Y196130D01*
X310518Y196252D01*
X310585Y196374D01*
X310668Y196491D01*
X310773Y196596D01*
X310779Y196602D01*
X310790Y196607D01*
X310807Y196619D01*
X310829Y196635D01*
X310857Y196657D01*
X310896Y196680D01*
X310934Y196702D01*
X310984Y196730D01*
X311095Y196774D01*
X311223Y196818D01*
X311373Y196846D01*
X311451Y196857D01*
X311589D01*
X311650Y196852D01*
D02*
G37*
G36*
X234695Y122852D02*
X234739Y122846D01*
X234795Y122841D01*
X234856Y122829D01*
X234917Y122818D01*
X235061Y122780D01*
X235205Y122724D01*
X235278Y122691D01*
X235350Y122652D01*
X235416Y122602D01*
X235477Y122547D01*
X235483Y122541D01*
X235494Y122535D01*
X235505Y122513D01*
X235527Y122491D01*
X235555Y122463D01*
X235583Y122424D01*
X235611Y122386D01*
X235644Y122336D01*
X235699Y122230D01*
X235755Y122097D01*
X235777Y122030D01*
X235788Y121953D01*
X235799Y121875D01*
X235805Y121792D01*
Y121781D01*
Y121753D01*
X235799Y121708D01*
X235794Y121647D01*
X235783Y121581D01*
X235760Y121503D01*
X235738Y121420D01*
X235705Y121337D01*
X235699Y121326D01*
X235688Y121298D01*
X235666Y121253D01*
X235633Y121192D01*
X235588Y121126D01*
X235533Y121042D01*
X235466Y120959D01*
X235388Y120865D01*
X235377Y120854D01*
X235350Y120820D01*
X235322Y120793D01*
X235294Y120765D01*
X235261Y120732D01*
X235216Y120687D01*
X235172Y120643D01*
X235117Y120593D01*
X235061Y120537D01*
X234995Y120476D01*
X234922Y120415D01*
X234845Y120343D01*
X234756Y120271D01*
X234667Y120193D01*
X234662Y120188D01*
X234650Y120177D01*
X234628Y120160D01*
X234600Y120138D01*
X234567Y120104D01*
X234528Y120071D01*
X234439Y119999D01*
X234345Y119916D01*
X234256Y119833D01*
X234179Y119760D01*
X234145Y119733D01*
X234118Y119705D01*
X234112Y119699D01*
X234095Y119683D01*
X234073Y119660D01*
X234045Y119627D01*
X234018Y119588D01*
X233984Y119550D01*
X233918Y119455D01*
X235810D01*
Y119000D01*
X233263D01*
Y119006D01*
Y119028D01*
Y119061D01*
X233268Y119105D01*
X233274Y119155D01*
X233285Y119211D01*
X233296Y119266D01*
X233318Y119327D01*
Y119333D01*
X233324Y119339D01*
X233335Y119372D01*
X233357Y119422D01*
X233390Y119488D01*
X233435Y119566D01*
X233490Y119655D01*
X233552Y119744D01*
X233629Y119838D01*
Y119844D01*
X233640Y119849D01*
X233668Y119882D01*
X233718Y119932D01*
X233790Y120004D01*
X233873Y120088D01*
X233979Y120188D01*
X234106Y120299D01*
X234245Y120415D01*
X234251Y120421D01*
X234273Y120437D01*
X234306Y120465D01*
X234345Y120499D01*
X234395Y120543D01*
X234456Y120593D01*
X234517Y120648D01*
X234589Y120709D01*
X234728Y120843D01*
X234867Y120976D01*
X234933Y121042D01*
X234995Y121109D01*
X235050Y121170D01*
X235094Y121231D01*
Y121237D01*
X235105Y121242D01*
X235117Y121259D01*
X235128Y121281D01*
X235167Y121342D01*
X235211Y121414D01*
X235250Y121503D01*
X235289Y121597D01*
X235311Y121703D01*
X235322Y121803D01*
Y121808D01*
Y121814D01*
X235316Y121847D01*
X235311Y121903D01*
X235294Y121964D01*
X235272Y122041D01*
X235233Y122119D01*
X235183Y122197D01*
X235117Y122274D01*
X235105Y122286D01*
X235078Y122308D01*
X235039Y122336D01*
X234978Y122374D01*
X234900Y122408D01*
X234811Y122441D01*
X234706Y122463D01*
X234589Y122469D01*
X234556D01*
X234534Y122463D01*
X234467Y122458D01*
X234390Y122441D01*
X234306Y122419D01*
X234212Y122380D01*
X234123Y122330D01*
X234040Y122263D01*
X234029Y122252D01*
X234007Y122224D01*
X233973Y122180D01*
X233940Y122114D01*
X233901Y122036D01*
X233868Y121936D01*
X233846Y121825D01*
X233835Y121697D01*
X233352Y121747D01*
Y121753D01*
X233357Y121769D01*
Y121797D01*
X233363Y121836D01*
X233374Y121880D01*
X233385Y121930D01*
X233402Y121992D01*
X233418Y122053D01*
X233463Y122186D01*
X233529Y122319D01*
X233568Y122386D01*
X233618Y122452D01*
X233668Y122513D01*
X233723Y122569D01*
X233729Y122574D01*
X233740Y122580D01*
X233757Y122596D01*
X233785Y122613D01*
X233818Y122635D01*
X233857Y122657D01*
X233901Y122685D01*
X233957Y122713D01*
X234018Y122741D01*
X234084Y122768D01*
X234156Y122791D01*
X234234Y122813D01*
X234317Y122829D01*
X234406Y122846D01*
X234501Y122852D01*
X234600Y122857D01*
X234656D01*
X234695Y122852D01*
D02*
G37*
G36*
X202949Y164046D02*
X201375D01*
X201377Y164043D01*
X201389Y164028D01*
X201407Y164011D01*
X201427Y163982D01*
X201453Y163950D01*
X201482Y163909D01*
X201514Y163863D01*
X201546Y163810D01*
Y163807D01*
X201549Y163804D01*
X201561Y163787D01*
X201575Y163758D01*
X201593Y163723D01*
X201613Y163682D01*
X201634Y163638D01*
X201654Y163595D01*
X201671Y163551D01*
X201433D01*
Y163554D01*
X201427Y163560D01*
X201424Y163572D01*
X201415Y163586D01*
X201407Y163604D01*
X201395Y163624D01*
X201366Y163673D01*
X201334Y163732D01*
X201293Y163790D01*
X201247Y163851D01*
X201197Y163912D01*
X201194Y163915D01*
X201191Y163918D01*
X201182Y163927D01*
X201174Y163938D01*
X201145Y163964D01*
X201110Y163999D01*
X201069Y164034D01*
X201022Y164072D01*
X200976Y164104D01*
X200926Y164133D01*
Y164293D01*
X202949D01*
Y164046D01*
D02*
G37*
G36*
X231404Y122902D02*
X231454Y122896D01*
X231515Y122891D01*
X231576Y122885D01*
X231648Y122868D01*
X231798Y122835D01*
X231964Y122785D01*
X232047Y122752D01*
X232125Y122713D01*
X232203Y122663D01*
X232280Y122613D01*
X232286Y122608D01*
X232297Y122602D01*
X232319Y122585D01*
X232347Y122557D01*
X232375Y122530D01*
X232414Y122491D01*
X232453Y122447D01*
X232497Y122402D01*
X232541Y122347D01*
X232586Y122280D01*
X232636Y122213D01*
X232680Y122141D01*
X232719Y122058D01*
X232763Y121975D01*
X232797Y121886D01*
X232830Y121786D01*
X232330Y121670D01*
Y121675D01*
X232325Y121686D01*
X232314Y121708D01*
X232303Y121736D01*
X232292Y121769D01*
X232275Y121814D01*
X232231Y121903D01*
X232175Y122002D01*
X232108Y122102D01*
X232025Y122197D01*
X231937Y122280D01*
X231925Y122291D01*
X231892Y122313D01*
X231837Y122341D01*
X231764Y122380D01*
X231670Y122413D01*
X231565Y122447D01*
X231437Y122469D01*
X231298Y122474D01*
X231254D01*
X231226Y122469D01*
X231187D01*
X231143Y122463D01*
X231037Y122447D01*
X230921Y122424D01*
X230799Y122386D01*
X230671Y122330D01*
X230555Y122258D01*
X230549D01*
X230543Y122247D01*
X230505Y122219D01*
X230455Y122175D01*
X230394Y122108D01*
X230321Y122025D01*
X230255Y121930D01*
X230194Y121814D01*
X230138Y121686D01*
Y121681D01*
X230133Y121670D01*
X230127Y121653D01*
X230122Y121625D01*
X230111Y121592D01*
X230099Y121553D01*
X230083Y121459D01*
X230061Y121348D01*
X230038Y121226D01*
X230027Y121092D01*
X230022Y120948D01*
Y120942D01*
Y120926D01*
Y120898D01*
Y120865D01*
X230027Y120826D01*
Y120776D01*
X230033Y120721D01*
X230038Y120659D01*
X230055Y120526D01*
X230083Y120382D01*
X230116Y120238D01*
X230160Y120093D01*
Y120088D01*
X230166Y120077D01*
X230177Y120060D01*
X230188Y120032D01*
X230222Y119966D01*
X230272Y119888D01*
X230332Y119799D01*
X230410Y119705D01*
X230499Y119622D01*
X230604Y119544D01*
X230610D01*
X230621Y119538D01*
X230638Y119527D01*
X230660Y119516D01*
X230688Y119505D01*
X230721Y119488D01*
X230799Y119455D01*
X230899Y119422D01*
X231010Y119394D01*
X231132Y119372D01*
X231259Y119366D01*
X231298D01*
X231331Y119372D01*
X231370D01*
X231409Y119377D01*
X231509Y119400D01*
X231626Y119427D01*
X231742Y119472D01*
X231864Y119533D01*
X231925Y119566D01*
X231981Y119611D01*
X231986Y119616D01*
X231992Y119622D01*
X232009Y119638D01*
X232031Y119655D01*
X232053Y119683D01*
X232081Y119716D01*
X232114Y119749D01*
X232142Y119794D01*
X232175Y119844D01*
X232214Y119899D01*
X232247Y119955D01*
X232280Y120021D01*
X232308Y120093D01*
X232336Y120171D01*
X232364Y120254D01*
X232386Y120343D01*
X232897Y120215D01*
Y120210D01*
X232891Y120188D01*
X232880Y120154D01*
X232863Y120110D01*
X232847Y120060D01*
X232824Y119999D01*
X232797Y119932D01*
X232763Y119860D01*
X232686Y119705D01*
X232586Y119550D01*
X232525Y119472D01*
X232464Y119394D01*
X232397Y119327D01*
X232319Y119261D01*
X232314Y119255D01*
X232303Y119244D01*
X232275Y119233D01*
X232247Y119211D01*
X232203Y119183D01*
X232158Y119155D01*
X232097Y119128D01*
X232036Y119100D01*
X231964Y119067D01*
X231887Y119039D01*
X231803Y119011D01*
X231714Y118983D01*
X231620Y118961D01*
X231520Y118950D01*
X231415Y118939D01*
X231304Y118933D01*
X231243D01*
X231198Y118939D01*
X231148D01*
X231087Y118945D01*
X231021Y118956D01*
X230943Y118967D01*
X230782Y118994D01*
X230615Y119039D01*
X230449Y119100D01*
X230371Y119139D01*
X230294Y119183D01*
X230288Y119189D01*
X230277Y119194D01*
X230255Y119211D01*
X230233Y119233D01*
X230199Y119255D01*
X230160Y119289D01*
X230116Y119327D01*
X230072Y119372D01*
X230027Y119422D01*
X229977Y119472D01*
X229877Y119599D01*
X229783Y119749D01*
X229700Y119916D01*
Y119921D01*
X229689Y119938D01*
X229683Y119966D01*
X229666Y119999D01*
X229655Y120043D01*
X229639Y120099D01*
X229617Y120160D01*
X229600Y120227D01*
X229583Y120299D01*
X229561Y120382D01*
X229533Y120554D01*
X229511Y120748D01*
X229500Y120948D01*
Y120954D01*
Y120976D01*
Y121009D01*
X229505Y121048D01*
Y121103D01*
X229511Y121159D01*
X229517Y121231D01*
X229528Y121303D01*
X229556Y121464D01*
X229594Y121642D01*
X229650Y121819D01*
X229728Y121992D01*
X229733Y121997D01*
X229739Y122014D01*
X229750Y122036D01*
X229772Y122064D01*
X229794Y122102D01*
X229822Y122147D01*
X229894Y122247D01*
X229988Y122358D01*
X230099Y122469D01*
X230227Y122580D01*
X230377Y122674D01*
X230382Y122680D01*
X230399Y122685D01*
X230421Y122696D01*
X230449Y122713D01*
X230493Y122730D01*
X230538Y122746D01*
X230593Y122768D01*
X230654Y122791D01*
X230721Y122813D01*
X230793Y122835D01*
X230948Y122868D01*
X231126Y122896D01*
X231309Y122907D01*
X231365D01*
X231404Y122902D01*
D02*
G37*
G36*
X222904Y170902D02*
X222954Y170896D01*
X223015Y170891D01*
X223076Y170885D01*
X223148Y170868D01*
X223298Y170835D01*
X223464Y170785D01*
X223547Y170752D01*
X223625Y170713D01*
X223703Y170663D01*
X223780Y170613D01*
X223786Y170607D01*
X223797Y170602D01*
X223819Y170585D01*
X223847Y170557D01*
X223875Y170530D01*
X223914Y170491D01*
X223953Y170447D01*
X223997Y170402D01*
X224041Y170347D01*
X224086Y170280D01*
X224136Y170213D01*
X224180Y170141D01*
X224219Y170058D01*
X224263Y169975D01*
X224297Y169886D01*
X224330Y169786D01*
X223831Y169670D01*
Y169675D01*
X223825Y169686D01*
X223814Y169708D01*
X223803Y169736D01*
X223792Y169770D01*
X223775Y169814D01*
X223731Y169903D01*
X223675Y170002D01*
X223608Y170102D01*
X223525Y170197D01*
X223436Y170280D01*
X223425Y170291D01*
X223392Y170313D01*
X223337Y170341D01*
X223264Y170380D01*
X223170Y170413D01*
X223065Y170447D01*
X222937Y170469D01*
X222798Y170474D01*
X222754D01*
X222726Y170469D01*
X222687D01*
X222643Y170463D01*
X222537Y170447D01*
X222421Y170424D01*
X222299Y170386D01*
X222171Y170330D01*
X222055Y170258D01*
X222049D01*
X222043Y170247D01*
X222005Y170219D01*
X221955Y170175D01*
X221894Y170108D01*
X221821Y170025D01*
X221755Y169930D01*
X221694Y169814D01*
X221638Y169686D01*
Y169681D01*
X221633Y169670D01*
X221627Y169653D01*
X221622Y169625D01*
X221610Y169592D01*
X221599Y169553D01*
X221583Y169459D01*
X221561Y169348D01*
X221538Y169226D01*
X221527Y169092D01*
X221522Y168948D01*
Y168942D01*
Y168926D01*
Y168898D01*
Y168865D01*
X221527Y168826D01*
Y168776D01*
X221533Y168720D01*
X221538Y168659D01*
X221555Y168526D01*
X221583Y168382D01*
X221616Y168238D01*
X221660Y168093D01*
Y168088D01*
X221666Y168077D01*
X221677Y168060D01*
X221688Y168032D01*
X221722Y167966D01*
X221772Y167888D01*
X221832Y167799D01*
X221910Y167705D01*
X221999Y167622D01*
X222104Y167544D01*
X222110D01*
X222121Y167538D01*
X222138Y167527D01*
X222160Y167516D01*
X222188Y167505D01*
X222221Y167488D01*
X222299Y167455D01*
X222399Y167422D01*
X222510Y167394D01*
X222632Y167372D01*
X222759Y167366D01*
X222798D01*
X222832Y167372D01*
X222870D01*
X222909Y167377D01*
X223009Y167400D01*
X223126Y167427D01*
X223242Y167472D01*
X223364Y167533D01*
X223425Y167566D01*
X223481Y167611D01*
X223486Y167616D01*
X223492Y167622D01*
X223509Y167638D01*
X223531Y167655D01*
X223553Y167683D01*
X223581Y167716D01*
X223614Y167749D01*
X223642Y167794D01*
X223675Y167844D01*
X223714Y167899D01*
X223747Y167955D01*
X223780Y168021D01*
X223808Y168093D01*
X223836Y168171D01*
X223864Y168254D01*
X223886Y168343D01*
X224397Y168216D01*
Y168210D01*
X224391Y168188D01*
X224380Y168154D01*
X224363Y168110D01*
X224347Y168060D01*
X224324Y167999D01*
X224297Y167932D01*
X224263Y167860D01*
X224186Y167705D01*
X224086Y167550D01*
X224025Y167472D01*
X223964Y167394D01*
X223897Y167327D01*
X223819Y167261D01*
X223814Y167255D01*
X223803Y167244D01*
X223775Y167233D01*
X223747Y167211D01*
X223703Y167183D01*
X223658Y167155D01*
X223597Y167128D01*
X223536Y167100D01*
X223464Y167067D01*
X223387Y167039D01*
X223303Y167011D01*
X223214Y166983D01*
X223120Y166961D01*
X223020Y166950D01*
X222915Y166939D01*
X222804Y166933D01*
X222743D01*
X222698Y166939D01*
X222648D01*
X222587Y166945D01*
X222521Y166956D01*
X222443Y166967D01*
X222282Y166995D01*
X222115Y167039D01*
X221949Y167100D01*
X221871Y167139D01*
X221794Y167183D01*
X221788Y167189D01*
X221777Y167194D01*
X221755Y167211D01*
X221733Y167233D01*
X221699Y167255D01*
X221660Y167289D01*
X221616Y167327D01*
X221572Y167372D01*
X221527Y167422D01*
X221477Y167472D01*
X221377Y167599D01*
X221283Y167749D01*
X221200Y167916D01*
Y167921D01*
X221189Y167938D01*
X221183Y167966D01*
X221166Y167999D01*
X221155Y168043D01*
X221139Y168099D01*
X221117Y168160D01*
X221100Y168227D01*
X221083Y168299D01*
X221061Y168382D01*
X221033Y168554D01*
X221011Y168748D01*
X221000Y168948D01*
Y168954D01*
Y168976D01*
Y169009D01*
X221006Y169048D01*
Y169103D01*
X221011Y169159D01*
X221017Y169231D01*
X221028Y169303D01*
X221056Y169464D01*
X221094Y169642D01*
X221150Y169819D01*
X221228Y169992D01*
X221233Y169997D01*
X221239Y170014D01*
X221250Y170036D01*
X221272Y170064D01*
X221294Y170102D01*
X221322Y170147D01*
X221394Y170247D01*
X221488Y170358D01*
X221599Y170469D01*
X221727Y170580D01*
X221877Y170674D01*
X221883Y170680D01*
X221899Y170685D01*
X221921Y170696D01*
X221949Y170713D01*
X221993Y170730D01*
X222038Y170746D01*
X222093Y170768D01*
X222154Y170791D01*
X222221Y170813D01*
X222293Y170835D01*
X222448Y170868D01*
X222626Y170896D01*
X222809Y170907D01*
X222865D01*
X222904Y170902D01*
D02*
G37*
G36*
X237681Y122852D02*
X237753Y122841D01*
X237836Y122824D01*
X237925Y122802D01*
X238019Y122774D01*
X238108Y122730D01*
X238114D01*
X238119Y122724D01*
X238147Y122707D01*
X238191Y122680D01*
X238247Y122641D01*
X238308Y122585D01*
X238374Y122524D01*
X238436Y122452D01*
X238496Y122369D01*
X238502Y122358D01*
X238524Y122330D01*
X238546Y122280D01*
X238585Y122208D01*
X238619Y122125D01*
X238663Y122030D01*
X238702Y121919D01*
X238735Y121797D01*
Y121792D01*
X238741Y121781D01*
X238746Y121764D01*
X238752Y121736D01*
X238757Y121703D01*
X238763Y121664D01*
X238774Y121614D01*
X238780Y121558D01*
X238791Y121497D01*
X238796Y121431D01*
X238802Y121353D01*
X238813Y121275D01*
X238818Y121187D01*
Y121098D01*
X238824Y120998D01*
Y120893D01*
Y120887D01*
Y120865D01*
Y120826D01*
Y120782D01*
X238818Y120721D01*
Y120654D01*
X238813Y120582D01*
X238807Y120504D01*
X238791Y120326D01*
X238763Y120143D01*
X238730Y119966D01*
X238707Y119882D01*
X238680Y119799D01*
Y119794D01*
X238674Y119782D01*
X238663Y119760D01*
X238652Y119733D01*
X238641Y119694D01*
X238619Y119655D01*
X238574Y119561D01*
X238519Y119461D01*
X238447Y119350D01*
X238363Y119250D01*
X238264Y119155D01*
X238258D01*
X238252Y119144D01*
X238236Y119133D01*
X238213Y119122D01*
X238186Y119105D01*
X238158Y119083D01*
X238075Y119044D01*
X237975Y119006D01*
X237858Y118967D01*
X237719Y118945D01*
X237570Y118933D01*
X237514D01*
X237475Y118939D01*
X237431Y118945D01*
X237375Y118956D01*
X237314Y118967D01*
X237248Y118983D01*
X237181Y119006D01*
X237109Y119028D01*
X237037Y119061D01*
X236965Y119100D01*
X236893Y119144D01*
X236820Y119200D01*
X236754Y119261D01*
X236693Y119327D01*
X236687Y119333D01*
X236676Y119350D01*
X236660Y119377D01*
X236632Y119422D01*
X236604Y119472D01*
X236576Y119538D01*
X236537Y119616D01*
X236504Y119705D01*
X236471Y119805D01*
X236438Y119921D01*
X236404Y120049D01*
X236377Y120193D01*
X236349Y120349D01*
X236332Y120515D01*
X236321Y120698D01*
X236315Y120893D01*
Y120898D01*
Y120920D01*
Y120959D01*
Y121003D01*
X236321Y121065D01*
Y121131D01*
X236327Y121203D01*
X236332Y121287D01*
X236349Y121459D01*
X236377Y121642D01*
X236410Y121825D01*
X236432Y121908D01*
X236454Y121992D01*
Y121997D01*
X236460Y122008D01*
X236471Y122030D01*
X236482Y122058D01*
X236493Y122097D01*
X236515Y122136D01*
X236560Y122230D01*
X236615Y122330D01*
X236687Y122435D01*
X236771Y122541D01*
X236870Y122630D01*
X236876D01*
X236881Y122641D01*
X236898Y122652D01*
X236920Y122663D01*
X236948Y122685D01*
X236981Y122702D01*
X237065Y122746D01*
X237165Y122785D01*
X237281Y122824D01*
X237420Y122846D01*
X237570Y122857D01*
X237620D01*
X237681Y122852D01*
D02*
G37*
%LPC*%
G36*
X303714Y122547D02*
X303703D01*
X303670Y122542D01*
X303620Y122536D01*
X303553Y122525D01*
X303486Y122497D01*
X303409Y122464D01*
X303337Y122414D01*
X303264Y122348D01*
X303259Y122337D01*
X303237Y122309D01*
X303209Y122264D01*
X303176Y122192D01*
X303142Y122109D01*
X303115Y121998D01*
X303092Y121870D01*
X303087Y121721D01*
Y120511D01*
X304358D01*
Y121598D01*
Y121604D01*
Y121615D01*
Y121632D01*
Y121654D01*
X304352Y121721D01*
X304347Y121798D01*
X304341Y121887D01*
X304330Y121976D01*
X304313Y122065D01*
X304291Y122142D01*
X304286Y122153D01*
X304274Y122176D01*
X304258Y122209D01*
X304236Y122253D01*
X304202Y122303D01*
X304164Y122353D01*
X304114Y122403D01*
X304058Y122442D01*
X304052Y122448D01*
X304030Y122459D01*
X303997Y122475D01*
X303953Y122497D01*
X303903Y122514D01*
X303847Y122531D01*
X303781Y122542D01*
X303714Y122547D01*
D02*
G37*
G36*
X296220Y152413D02*
X295011D01*
Y151142D01*
X296154D01*
X296220Y151148D01*
X296298Y151153D01*
X296387Y151159D01*
X296476Y151170D01*
X296565Y151187D01*
X296642Y151209D01*
X296653Y151215D01*
X296676Y151225D01*
X296709Y151242D01*
X296753Y151264D01*
X296803Y151298D01*
X296853Y151337D01*
X296903Y151386D01*
X296942Y151442D01*
X296948Y151448D01*
X296959Y151470D01*
X296975Y151503D01*
X296997Y151548D01*
X297014Y151597D01*
X297031Y151653D01*
X297042Y151719D01*
X297047Y151786D01*
Y151792D01*
Y151797D01*
X297042Y151830D01*
X297036Y151880D01*
X297025Y151947D01*
X296997Y152014D01*
X296964Y152091D01*
X296914Y152164D01*
X296848Y152236D01*
X296836Y152241D01*
X296809Y152263D01*
X296764Y152291D01*
X296692Y152324D01*
X296609Y152358D01*
X296498Y152385D01*
X296370Y152408D01*
X296220Y152413D01*
D02*
G37*
G36*
X302448Y151076D02*
X302414D01*
X302392Y151070D01*
X302337Y151065D01*
X302259Y151048D01*
X302176Y151020D01*
X302081Y150976D01*
X301993Y150920D01*
X301904Y150843D01*
X301893Y150831D01*
X301870Y150804D01*
X301832Y150754D01*
X301793Y150682D01*
X301754Y150598D01*
X301715Y150493D01*
X301693Y150376D01*
X301682Y150243D01*
Y150232D01*
Y150204D01*
X301687Y150154D01*
X301693Y150093D01*
X301704Y150021D01*
X301726Y149943D01*
X301748Y149860D01*
X301782Y149777D01*
X301787Y149766D01*
X301804Y149738D01*
X301826Y149699D01*
X301859Y149649D01*
X301898Y149599D01*
X301948Y149538D01*
X302004Y149488D01*
X302070Y149438D01*
X302081Y149433D01*
X302103Y149422D01*
X302142Y149400D01*
X302192Y149383D01*
X302248Y149361D01*
X302314Y149339D01*
X302386Y149327D01*
X302464Y149322D01*
X302492D01*
X302514Y149327D01*
X302570Y149333D01*
X302642Y149350D01*
X302719Y149383D01*
X302808Y149422D01*
X302897Y149483D01*
X302942Y149516D01*
X302980Y149560D01*
Y149566D01*
X302992Y149572D01*
X303014Y149605D01*
X303047Y149660D01*
X303091Y149733D01*
X303130Y149827D01*
X303164Y149938D01*
X303186Y150066D01*
X303197Y150215D01*
Y150221D01*
Y150232D01*
Y150254D01*
X303191Y150282D01*
Y150315D01*
X303186Y150354D01*
X303169Y150443D01*
X303147Y150543D01*
X303108Y150648D01*
X303053Y150748D01*
X302980Y150843D01*
X302969Y150854D01*
X302942Y150881D01*
X302897Y150915D01*
X302836Y150959D01*
X302758Y151004D01*
X302670Y151037D01*
X302564Y151065D01*
X302448Y151076D01*
D02*
G37*
G36*
X223899Y128385D02*
X223011D01*
Y125455D01*
X223921D01*
X223960Y125461D01*
X224043Y125466D01*
X224137Y125472D01*
X224237Y125483D01*
X224337Y125499D01*
X224420Y125522D01*
X224431Y125527D01*
X224459Y125533D01*
X224498Y125549D01*
X224548Y125572D01*
X224604Y125605D01*
X224659Y125638D01*
X224714Y125677D01*
X224770Y125722D01*
X224776Y125733D01*
X224798Y125755D01*
X224831Y125794D01*
X224870Y125849D01*
X224914Y125921D01*
X224964Y126005D01*
X225009Y126099D01*
X225047Y126204D01*
Y126210D01*
X225053Y126221D01*
X225059Y126238D01*
X225064Y126260D01*
X225070Y126288D01*
X225081Y126326D01*
X225092Y126365D01*
X225103Y126410D01*
X225120Y126521D01*
X225136Y126648D01*
X225147Y126793D01*
X225153Y126948D01*
Y126954D01*
Y126976D01*
Y127004D01*
X225147Y127048D01*
Y127098D01*
X225142Y127153D01*
X225136Y127220D01*
X225131Y127287D01*
X225103Y127436D01*
X225070Y127592D01*
X225020Y127736D01*
X224986Y127808D01*
X224953Y127869D01*
Y127875D01*
X224942Y127886D01*
X224931Y127903D01*
X224920Y127925D01*
X224875Y127980D01*
X224820Y128047D01*
X224748Y128119D01*
X224664Y128191D01*
X224570Y128252D01*
X224470Y128302D01*
X224459Y128308D01*
X224431Y128313D01*
X224381Y128330D01*
X224309Y128347D01*
X224220Y128358D01*
X224110Y128374D01*
X224043Y128380D01*
X223971D01*
X223899Y128385D01*
D02*
G37*
G36*
X248899Y168886D02*
X248011D01*
Y165955D01*
X248921D01*
X248960Y165961D01*
X249043Y165966D01*
X249137Y165972D01*
X249237Y165983D01*
X249337Y165999D01*
X249420Y166022D01*
X249431Y166027D01*
X249459Y166033D01*
X249498Y166050D01*
X249548Y166072D01*
X249604Y166105D01*
X249659Y166138D01*
X249714Y166177D01*
X249770Y166221D01*
X249776Y166233D01*
X249798Y166255D01*
X249831Y166294D01*
X249870Y166349D01*
X249914Y166421D01*
X249964Y166505D01*
X250009Y166599D01*
X250047Y166704D01*
Y166710D01*
X250053Y166721D01*
X250059Y166738D01*
X250064Y166760D01*
X250070Y166788D01*
X250081Y166826D01*
X250092Y166865D01*
X250103Y166910D01*
X250120Y167021D01*
X250136Y167148D01*
X250147Y167293D01*
X250153Y167448D01*
Y167454D01*
Y167476D01*
Y167503D01*
X250147Y167548D01*
Y167598D01*
X250142Y167653D01*
X250136Y167720D01*
X250131Y167787D01*
X250103Y167936D01*
X250070Y168092D01*
X250020Y168236D01*
X249986Y168308D01*
X249953Y168369D01*
Y168375D01*
X249942Y168386D01*
X249931Y168403D01*
X249920Y168425D01*
X249875Y168480D01*
X249820Y168547D01*
X249748Y168619D01*
X249664Y168691D01*
X249570Y168752D01*
X249470Y168802D01*
X249459Y168808D01*
X249431Y168813D01*
X249381Y168830D01*
X249309Y168847D01*
X249220Y168858D01*
X249110Y168874D01*
X249043Y168880D01*
X248971D01*
X248899Y168886D01*
D02*
G37*
G36*
X242016Y187178D02*
X241988D01*
X241966Y187173D01*
X241911Y187167D01*
X241839Y187150D01*
X241761Y187117D01*
X241672Y187078D01*
X241583Y187017D01*
X241539Y186984D01*
X241500Y186940D01*
Y186934D01*
X241489Y186928D01*
X241467Y186895D01*
X241433Y186840D01*
X241389Y186767D01*
X241350Y186673D01*
X241317Y186562D01*
X241295Y186434D01*
X241283Y186284D01*
Y186279D01*
Y186268D01*
Y186246D01*
X241289Y186218D01*
Y186185D01*
X241295Y186146D01*
X241311Y186057D01*
X241333Y185957D01*
X241372Y185852D01*
X241428Y185752D01*
X241500Y185657D01*
X241511Y185646D01*
X241539Y185619D01*
X241583Y185585D01*
X241644Y185541D01*
X241722Y185496D01*
X241811Y185463D01*
X241916Y185435D01*
X242033Y185424D01*
X242066D01*
X242088Y185430D01*
X242144Y185435D01*
X242221Y185452D01*
X242305Y185480D01*
X242399Y185524D01*
X242488Y185580D01*
X242577Y185657D01*
X242588Y185669D01*
X242610Y185696D01*
X242649Y185746D01*
X242688Y185818D01*
X242726Y185902D01*
X242765Y186007D01*
X242788Y186124D01*
X242799Y186257D01*
Y186268D01*
Y186296D01*
X242793Y186346D01*
X242788Y186407D01*
X242776Y186479D01*
X242754Y186556D01*
X242732Y186640D01*
X242699Y186723D01*
X242693Y186734D01*
X242676Y186762D01*
X242654Y186801D01*
X242621Y186851D01*
X242582Y186901D01*
X242532Y186962D01*
X242477Y187012D01*
X242410Y187062D01*
X242399Y187067D01*
X242377Y187078D01*
X242338Y187100D01*
X242288Y187117D01*
X242232Y187139D01*
X242166Y187161D01*
X242094Y187173D01*
X242016Y187178D01*
D02*
G37*
G36*
X237564Y122469D02*
X237531D01*
X237509Y122463D01*
X237448Y122452D01*
X237375Y122435D01*
X237292Y122402D01*
X237203Y122352D01*
X237159Y122319D01*
X237115Y122286D01*
X237076Y122241D01*
X237037Y122191D01*
Y122186D01*
X237026Y122175D01*
X237015Y122152D01*
X236998Y122125D01*
X236981Y122080D01*
X236959Y122030D01*
X236943Y121969D01*
X236920Y121897D01*
X236898Y121814D01*
X236876Y121720D01*
X236854Y121614D01*
X236837Y121497D01*
X236820Y121364D01*
X236809Y121220D01*
X236804Y121065D01*
X236798Y120893D01*
Y120881D01*
Y120854D01*
Y120804D01*
X236804Y120737D01*
Y120665D01*
X236809Y120576D01*
X236815Y120482D01*
X236826Y120382D01*
X236854Y120166D01*
X236870Y120060D01*
X236893Y119960D01*
X236915Y119866D01*
X236948Y119777D01*
X236981Y119699D01*
X237020Y119633D01*
Y119627D01*
X237031Y119622D01*
X237059Y119583D01*
X237109Y119533D01*
X237170Y119477D01*
X237253Y119422D01*
X237348Y119372D01*
X237453Y119333D01*
X237509Y119327D01*
X237570Y119322D01*
X237603D01*
X237625Y119327D01*
X237681Y119339D01*
X237758Y119361D01*
X237842Y119400D01*
X237936Y119455D01*
X237980Y119488D01*
X238025Y119533D01*
X238069Y119577D01*
X238114Y119633D01*
Y119638D01*
X238125Y119649D01*
X238136Y119666D01*
X238147Y119694D01*
X238169Y119733D01*
X238186Y119782D01*
X238208Y119838D01*
X238230Y119905D01*
X238247Y119988D01*
X238269Y120077D01*
X238291Y120182D01*
X238308Y120293D01*
X238319Y120426D01*
X238330Y120565D01*
X238341Y120721D01*
Y120893D01*
Y120898D01*
Y120904D01*
Y120931D01*
Y120981D01*
X238336Y121048D01*
Y121120D01*
X238330Y121209D01*
X238324Y121303D01*
X238313Y121409D01*
X238286Y121620D01*
X238269Y121725D01*
X238247Y121825D01*
X238225Y121919D01*
X238191Y122008D01*
X238158Y122086D01*
X238119Y122152D01*
Y122158D01*
X238108Y122163D01*
X238097Y122180D01*
X238080Y122202D01*
X238030Y122252D01*
X237969Y122313D01*
X237886Y122369D01*
X237792Y122419D01*
X237742Y122441D01*
X237686Y122458D01*
X237625Y122463D01*
X237564Y122469D01*
D02*
G37*
G36*
X229136Y170469D02*
X229047D01*
X229025Y170463D01*
X228964Y170458D01*
X228892Y170435D01*
X228803Y170408D01*
X228709Y170358D01*
X228615Y170297D01*
X228570Y170252D01*
X228526Y170208D01*
Y170202D01*
X228515Y170197D01*
X228504Y170180D01*
X228492Y170164D01*
X228454Y170108D01*
X228415Y170030D01*
X228370Y169936D01*
X228332Y169819D01*
X228309Y169686D01*
X228298Y169542D01*
Y169536D01*
Y169525D01*
Y169509D01*
X228304Y169481D01*
Y169448D01*
X228309Y169414D01*
X228326Y169331D01*
X228354Y169237D01*
X228387Y169137D01*
X228443Y169037D01*
X228515Y168948D01*
X228526Y168937D01*
X228554Y168915D01*
X228604Y168876D01*
X228665Y168837D01*
X228748Y168793D01*
X228842Y168754D01*
X228948Y168732D01*
X229064Y168720D01*
X229097D01*
X229120Y168726D01*
X229181Y168732D01*
X229253Y168748D01*
X229342Y168776D01*
X229431Y168815D01*
X229519Y168870D01*
X229603Y168948D01*
X229614Y168959D01*
X229636Y168992D01*
X229669Y169042D01*
X229714Y169115D01*
X229752Y169203D01*
X229786Y169309D01*
X229808Y169436D01*
X229819Y169581D01*
Y169586D01*
Y169597D01*
Y169620D01*
X229813Y169647D01*
Y169686D01*
X229808Y169725D01*
X229791Y169814D01*
X229769Y169919D01*
X229730Y170030D01*
X229675Y170136D01*
X229603Y170230D01*
Y170236D01*
X229591Y170241D01*
X229564Y170269D01*
X229519Y170308D01*
X229458Y170352D01*
X229380Y170391D01*
X229292Y170430D01*
X229192Y170458D01*
X229136Y170469D01*
D02*
G37*
G36*
X227689Y128075D02*
X226479Y126354D01*
X227689D01*
Y128075D01*
D02*
G37*
G36*
X246489Y187045D02*
X245579D01*
X245540Y187039D01*
X245457Y187034D01*
X245363Y187028D01*
X245263Y187017D01*
X245163Y187001D01*
X245080Y186978D01*
X245069Y186973D01*
X245041Y186967D01*
X245002Y186951D01*
X244952Y186928D01*
X244897Y186895D01*
X244841Y186862D01*
X244786Y186823D01*
X244730Y186778D01*
X244724Y186767D01*
X244702Y186745D01*
X244669Y186706D01*
X244630Y186651D01*
X244586Y186579D01*
X244536Y186495D01*
X244491Y186401D01*
X244453Y186296D01*
Y186290D01*
X244447Y186279D01*
X244441Y186262D01*
X244436Y186240D01*
X244430Y186212D01*
X244419Y186174D01*
X244408Y186135D01*
X244397Y186090D01*
X244380Y185979D01*
X244364Y185852D01*
X244353Y185707D01*
X244347Y185552D01*
Y185546D01*
Y185524D01*
Y185496D01*
X244353Y185452D01*
Y185402D01*
X244358Y185347D01*
X244364Y185280D01*
X244369Y185213D01*
X244397Y185064D01*
X244430Y184908D01*
X244480Y184764D01*
X244514Y184692D01*
X244547Y184631D01*
Y184625D01*
X244558Y184614D01*
X244569Y184597D01*
X244580Y184575D01*
X244625Y184520D01*
X244680Y184453D01*
X244752Y184381D01*
X244835Y184309D01*
X244930Y184248D01*
X245030Y184198D01*
X245041Y184192D01*
X245069Y184187D01*
X245119Y184170D01*
X245191Y184153D01*
X245280Y184142D01*
X245391Y184126D01*
X245457Y184120D01*
X245529D01*
X245601Y184115D01*
X246489D01*
Y187045D01*
D02*
G37*
G36*
X281423Y195376D02*
X281390D01*
X281367Y195370D01*
X281306Y195365D01*
X281229Y195348D01*
X281140Y195320D01*
X281051Y195282D01*
X280957Y195226D01*
X280873Y195154D01*
X280862Y195143D01*
X280840Y195115D01*
X280807Y195065D01*
X280768Y195004D01*
X280724Y194921D01*
X280690Y194826D01*
X280668Y194721D01*
X280657Y194604D01*
Y194593D01*
Y194571D01*
X280662Y194532D01*
X280668Y194482D01*
X280679Y194421D01*
X280696Y194355D01*
X280718Y194288D01*
X280746Y194216D01*
X280751Y194210D01*
X280762Y194183D01*
X280785Y194149D01*
X280818Y194111D01*
X280857Y194061D01*
X280907Y194011D01*
X280962Y193966D01*
X281029Y193922D01*
X281040Y193916D01*
X281062Y193905D01*
X281101Y193888D01*
X281151Y193872D01*
X281212Y193855D01*
X281284Y193839D01*
X281362Y193827D01*
X281439Y193822D01*
X281473D01*
X281495Y193827D01*
X281562Y193833D01*
X281639Y193850D01*
X281728Y193877D01*
X281822Y193911D01*
X281911Y193966D01*
X282000Y194038D01*
X282011Y194050D01*
X282033Y194077D01*
X282072Y194127D01*
X282111Y194188D01*
X282150Y194266D01*
X282189Y194360D01*
X282211Y194471D01*
X282222Y194588D01*
Y194593D01*
Y194604D01*
Y194621D01*
X282217Y194643D01*
X282211Y194704D01*
X282194Y194788D01*
X282167Y194871D01*
X282128Y194965D01*
X282072Y195060D01*
X281995Y195148D01*
X281983Y195159D01*
X281956Y195182D01*
X281906Y195220D01*
X281839Y195265D01*
X281756Y195304D01*
X281656Y195343D01*
X281545Y195365D01*
X281423Y195376D01*
D02*
G37*
G36*
X303419Y143183D02*
X303380D01*
X303353Y143178D01*
X303314D01*
X303275Y143172D01*
X303186Y143155D01*
X303081Y143133D01*
X302970Y143094D01*
X302864Y143039D01*
X302770Y142967D01*
X302764D01*
X302759Y142956D01*
X302731Y142928D01*
X302692Y142884D01*
X302648Y142823D01*
X302609Y142745D01*
X302570Y142656D01*
X302542Y142556D01*
X302531Y142500D01*
Y142445D01*
Y142439D01*
Y142428D01*
Y142412D01*
X302537Y142390D01*
X302542Y142329D01*
X302565Y142256D01*
X302592Y142168D01*
X302642Y142073D01*
X302703Y141979D01*
X302748Y141934D01*
X302792Y141890D01*
X302798D01*
X302803Y141879D01*
X302820Y141868D01*
X302836Y141857D01*
X302892Y141818D01*
X302970Y141779D01*
X303064Y141735D01*
X303181Y141696D01*
X303314Y141674D01*
X303458Y141663D01*
X303491D01*
X303519Y141668D01*
X303552D01*
X303586Y141674D01*
X303669Y141690D01*
X303763Y141718D01*
X303863Y141751D01*
X303963Y141807D01*
X304052Y141879D01*
X304063Y141890D01*
X304085Y141918D01*
X304124Y141968D01*
X304163Y142029D01*
X304207Y142112D01*
X304246Y142206D01*
X304268Y142312D01*
X304279Y142428D01*
Y142434D01*
Y142445D01*
Y142462D01*
X304274Y142484D01*
X304268Y142545D01*
X304252Y142617D01*
X304224Y142706D01*
X304185Y142795D01*
X304130Y142884D01*
X304052Y142967D01*
X304041Y142978D01*
X304008Y143000D01*
X303958Y143033D01*
X303885Y143078D01*
X303797Y143117D01*
X303691Y143150D01*
X303563Y143172D01*
X303419Y143183D01*
D02*
G37*
G36*
X304052Y140153D02*
X303996D01*
X303952Y140147D01*
X303902D01*
X303847Y140142D01*
X303780Y140136D01*
X303713Y140131D01*
X303563Y140103D01*
X303408Y140070D01*
X303264Y140020D01*
X303192Y139986D01*
X303131Y139953D01*
X303125D01*
X303114Y139942D01*
X303097Y139931D01*
X303075Y139920D01*
X303020Y139875D01*
X302953Y139820D01*
X302881Y139748D01*
X302809Y139664D01*
X302748Y139570D01*
X302698Y139470D01*
X302692Y139459D01*
X302687Y139431D01*
X302670Y139381D01*
X302653Y139309D01*
X302642Y139220D01*
X302626Y139110D01*
X302620Y139043D01*
Y138971D01*
X302614Y138899D01*
Y138815D01*
Y138011D01*
X305545D01*
Y138826D01*
Y138832D01*
Y138843D01*
Y138865D01*
Y138888D01*
Y138921D01*
X305539Y138960D01*
X305534Y139043D01*
X305528Y139137D01*
X305517Y139237D01*
X305501Y139337D01*
X305478Y139420D01*
X305473Y139431D01*
X305467Y139459D01*
X305451Y139498D01*
X305428Y139548D01*
X305395Y139603D01*
X305362Y139659D01*
X305323Y139715D01*
X305278Y139770D01*
X305267Y139776D01*
X305245Y139798D01*
X305206Y139831D01*
X305151Y139870D01*
X305079Y139914D01*
X304995Y139964D01*
X304901Y140009D01*
X304796Y140048D01*
X304790D01*
X304779Y140053D01*
X304762Y140059D01*
X304740Y140064D01*
X304712Y140070D01*
X304674Y140081D01*
X304635Y140092D01*
X304590Y140103D01*
X304479Y140120D01*
X304352Y140136D01*
X304207Y140147D01*
X304052Y140153D01*
D02*
G37*
G36*
X185899Y162385D02*
X185011D01*
Y159455D01*
X185921D01*
X185960Y159461D01*
X186043Y159466D01*
X186137Y159472D01*
X186237Y159483D01*
X186337Y159500D01*
X186420Y159522D01*
X186431Y159527D01*
X186459Y159533D01*
X186498Y159549D01*
X186548Y159572D01*
X186603Y159605D01*
X186659Y159638D01*
X186714Y159677D01*
X186770Y159722D01*
X186776Y159733D01*
X186798Y159755D01*
X186831Y159794D01*
X186870Y159849D01*
X186914Y159921D01*
X186964Y160004D01*
X187009Y160099D01*
X187048Y160204D01*
Y160210D01*
X187053Y160221D01*
X187058Y160238D01*
X187064Y160260D01*
X187070Y160288D01*
X187081Y160326D01*
X187092Y160365D01*
X187103Y160410D01*
X187120Y160521D01*
X187136Y160648D01*
X187147Y160793D01*
X187153Y160948D01*
Y160954D01*
Y160976D01*
Y161003D01*
X187147Y161048D01*
Y161098D01*
X187142Y161153D01*
X187136Y161220D01*
X187131Y161287D01*
X187103Y161436D01*
X187070Y161592D01*
X187020Y161736D01*
X186986Y161808D01*
X186953Y161869D01*
Y161875D01*
X186942Y161886D01*
X186931Y161903D01*
X186920Y161925D01*
X186875Y161980D01*
X186820Y162047D01*
X186748Y162119D01*
X186664Y162191D01*
X186570Y162252D01*
X186470Y162302D01*
X186459Y162308D01*
X186431Y162313D01*
X186381Y162330D01*
X186309Y162347D01*
X186221Y162358D01*
X186109Y162374D01*
X186043Y162380D01*
X185971D01*
X185899Y162385D01*
D02*
G37*
G36*
X281439Y196969D02*
X281395D01*
X281345Y196958D01*
X281278Y196947D01*
X281206Y196924D01*
X281129Y196897D01*
X281057Y196852D01*
X280984Y196791D01*
X280979Y196786D01*
X280957Y196763D01*
X280929Y196724D01*
X280901Y196675D01*
X280868Y196614D01*
X280840Y196541D01*
X280818Y196464D01*
X280812Y196375D01*
Y196369D01*
Y196364D01*
X280818Y196330D01*
X280823Y196281D01*
X280835Y196220D01*
X280857Y196147D01*
X280885Y196075D01*
X280929Y195998D01*
X280984Y195931D01*
X280990Y195925D01*
X281018Y195903D01*
X281057Y195875D01*
X281106Y195848D01*
X281173Y195814D01*
X281251Y195787D01*
X281340Y195764D01*
X281439Y195759D01*
X281451D01*
X281484Y195764D01*
X281534Y195770D01*
X281600Y195781D01*
X281673Y195803D01*
X281745Y195831D01*
X281822Y195875D01*
X281889Y195931D01*
X281895Y195936D01*
X281917Y195964D01*
X281944Y195998D01*
X281978Y196047D01*
X282011Y196108D01*
X282039Y196181D01*
X282061Y196264D01*
X282067Y196353D01*
Y196358D01*
Y196364D01*
Y196397D01*
X282055Y196447D01*
X282045Y196508D01*
X282022Y196575D01*
X281989Y196647D01*
X281944Y196719D01*
X281884Y196791D01*
X281878Y196797D01*
X281850Y196819D01*
X281811Y196847D01*
X281761Y196880D01*
X281695Y196913D01*
X281623Y196941D01*
X281534Y196963D01*
X281439Y196969D01*
D02*
G37*
G36*
X277899Y196886D02*
X277011D01*
Y193955D01*
X277921D01*
X277960Y193961D01*
X278043Y193966D01*
X278137Y193972D01*
X278237Y193983D01*
X278337Y194000D01*
X278420Y194022D01*
X278431Y194027D01*
X278459Y194033D01*
X278498Y194050D01*
X278548Y194072D01*
X278604Y194105D01*
X278659Y194138D01*
X278714Y194177D01*
X278770Y194221D01*
X278776Y194233D01*
X278798Y194255D01*
X278831Y194294D01*
X278870Y194349D01*
X278914Y194421D01*
X278964Y194504D01*
X279009Y194599D01*
X279047Y194704D01*
Y194710D01*
X279053Y194721D01*
X279059Y194738D01*
X279064Y194760D01*
X279070Y194788D01*
X279081Y194826D01*
X279092Y194865D01*
X279103Y194910D01*
X279120Y195021D01*
X279136Y195148D01*
X279147Y195293D01*
X279153Y195448D01*
Y195454D01*
Y195476D01*
Y195503D01*
X279147Y195548D01*
Y195598D01*
X279142Y195653D01*
X279136Y195720D01*
X279131Y195787D01*
X279103Y195936D01*
X279070Y196092D01*
X279020Y196236D01*
X278986Y196308D01*
X278953Y196369D01*
Y196375D01*
X278942Y196386D01*
X278931Y196403D01*
X278920Y196425D01*
X278875Y196480D01*
X278820Y196547D01*
X278748Y196619D01*
X278664Y196691D01*
X278570Y196752D01*
X278470Y196802D01*
X278459Y196808D01*
X278431Y196813D01*
X278381Y196830D01*
X278309Y196847D01*
X278221Y196858D01*
X278110Y196874D01*
X278043Y196880D01*
X277971D01*
X277899Y196886D01*
D02*
G37*
%LPD*%
D27*
X235685Y138000D02*
G03*
X235685Y138000I-19685J0D01*
G01*
X310248Y182000D02*
G03*
X310248Y182000I-15748J0D01*
G01*
X280500Y141752D02*
G03*
X280500Y136752I0J-2500D01*
G01*
X205256Y184087D02*
Y194913D01*
X199744Y184087D02*
Y194913D01*
Y184087D02*
X205256D01*
X199744Y194913D02*
X205256D01*
X257087Y161244D02*
X267913D01*
X257087Y166756D02*
X267913D01*
X257087Y161244D02*
Y166756D01*
X267913Y161244D02*
Y166756D01*
X272244Y160587D02*
Y171413D01*
X277756Y160587D02*
Y171413D01*
X272244D02*
X277756D01*
X272244Y160587D02*
X277756D01*
X209011Y159935D02*
X213011D01*
X211011Y157935D02*
X211011Y161935D01*
X231260Y171071D02*
X238740D01*
X231260Y155028D02*
Y171071D01*
Y155028D02*
X238740D01*
Y171071D01*
X282637Y171705D02*
Y192348D01*
X229598Y143075D02*
Y145368D01*
X229598Y137635D02*
Y139728D01*
X226350Y142976D02*
X232748D01*
X222807Y129295D02*
Y153705D01*
X236193Y129295D02*
Y153705D01*
X222807Y129295D02*
X236193D01*
X222807Y153705D02*
X236193D01*
X261575Y176402D02*
X263868D01*
X256135Y176402D02*
X258228D01*
X261476Y173252D02*
Y179650D01*
X247795Y183193D02*
X272205D01*
X247795Y169807D02*
X272205D01*
X247795D02*
Y183193D01*
X272205Y169807D02*
Y183193D01*
X229075Y190402D02*
X231368D01*
X223635Y190402D02*
X225728D01*
X228976Y187252D02*
Y193650D01*
X215295Y197193D02*
X239705D01*
X215295Y183807D02*
X239705D01*
X215295D02*
Y197193D01*
X239705Y183807D02*
Y197193D01*
X191598Y147075D02*
Y149368D01*
X191598Y141635D02*
Y143728D01*
X188350Y146976D02*
X194748D01*
X184807Y133295D02*
Y157705D01*
X198193Y133295D02*
Y157705D01*
X184807Y133295D02*
X198193D01*
X184807Y157705D02*
X198193D01*
X259632Y191098D02*
X261925D01*
X265272Y191098D02*
X267365D01*
X262024Y187850D02*
Y194248D01*
X251295Y184307D02*
X275705D01*
X251295Y197693D02*
X275705D01*
Y184307D02*
Y197693D01*
X251295Y184307D02*
Y197693D01*
X294598Y133075D02*
Y135368D01*
X294598Y127635D02*
Y129728D01*
X291350Y132976D02*
X297748D01*
X287807Y119295D02*
Y143705D01*
X301193Y119295D02*
Y143705D01*
X287807Y119295D02*
X301193D01*
X287807Y143705D02*
X301193D01*
X307472Y119756D02*
Y139244D01*
Y119756D02*
X316528D01*
Y139244D01*
X307472D02*
X316528D01*
X283756Y154472D02*
X303244D01*
Y163528D01*
X283756D02*
X303244D01*
X283756Y154472D02*
Y163528D01*
X198618Y163945D02*
Y164339D01*
X188382Y177921D02*
Y182055D01*
X198618D01*
X188382Y163945D02*
Y168079D01*
Y163945D02*
X198618D01*
X197437Y164339D02*
X198618D01*
X183323Y197764D02*
X317929D01*
X317929Y118236D01*
X183677D02*
X317929D01*
X183323Y197764D02*
X183677Y118236D01*
X240500Y148169D02*
X280500Y148169D01*
X240500Y130335D02*
Y148169D01*
Y130335D02*
X280500D01*
Y136752D01*
Y141752D02*
Y148169D01*
D28*
X247087Y178000D02*
G03*
X247087Y178000I-20866J0D01*
G01*
M02*
