G04 Layer_Color=32768*
%FSLAX25Y25*%
%MOIN*%
G70*
G01*
G75*
%ADD27C,0.00394*%
D27*
X200827Y189500D02*
X204173D01*
X202500Y187827D02*
Y191173D01*
X262500Y162327D02*
Y165673D01*
X260827Y164000D02*
X264173D01*
X273327Y166000D02*
X276673D01*
X275000Y164327D02*
Y167673D01*
X233032Y163000D02*
X236968D01*
X235000Y161031D02*
Y164969D01*
X292531Y182000D02*
X294500D01*
Y180032D02*
Y182000D01*
X296468D01*
X294500D02*
Y183968D01*
X223004Y129492D02*
X235996D01*
X223004Y153508D02*
X235996D01*
X223004Y129492D02*
Y153508D01*
X235996Y129492D02*
Y153508D01*
X229500Y139532D02*
Y143468D01*
X227532Y141500D02*
X231469D01*
X247992Y170004D02*
Y182996D01*
X272008Y170004D02*
Y182996D01*
X247992D02*
X272008D01*
X247992Y170004D02*
X272008D01*
X258032Y176500D02*
X261968D01*
X260000Y174531D02*
Y178469D01*
X215492Y184004D02*
Y196996D01*
X239508Y184004D02*
Y196996D01*
X215492D02*
X239508D01*
X215492Y184004D02*
X239508D01*
X225532Y190500D02*
X229468D01*
X227500Y188531D02*
Y192469D01*
X185004Y133492D02*
X197996D01*
X185004Y157508D02*
X197996D01*
X185004Y133492D02*
Y157508D01*
X197996Y133492D02*
Y157508D01*
X191500Y143532D02*
Y147468D01*
X189532Y145500D02*
X193468D01*
X275508Y184504D02*
Y197496D01*
X251492Y184504D02*
Y197496D01*
Y184504D02*
X275508D01*
X251492Y197496D02*
X275508D01*
X261531Y191000D02*
X265469D01*
X263500Y189032D02*
Y192968D01*
X288004Y119492D02*
X300996D01*
X288004Y143508D02*
X300996D01*
X288004Y119492D02*
Y143508D01*
X300996Y119492D02*
Y143508D01*
X294500Y129532D02*
Y133468D01*
X292531Y131500D02*
X296468D01*
X307571Y119854D02*
X316429D01*
X307571Y139146D02*
X316429D01*
X307571Y119854D02*
Y139146D01*
X316429Y119854D02*
Y139146D01*
X312000Y127532D02*
Y131468D01*
X310032Y129500D02*
X313968D01*
X303146Y163429D02*
X303146Y154571D01*
X283854D02*
X283854Y163429D01*
X283854Y154571D02*
X303146D01*
X283854Y163429D02*
X303146D01*
X291531Y159000D02*
X295468D01*
X293500Y157032D02*
Y160968D01*
X193500Y171031D02*
Y174969D01*
X191532Y173000D02*
X195468D01*
M02*
