G04 Layer_Physical_Order=1*
G04 Layer_Color=255*
%FSLAX25Y25*%
%MOIN*%
G70*
G01*
G75*
%ADD10R,0.03937X0.03150*%
%ADD11R,0.03150X0.03937*%
%ADD12R,0.05315X0.05118*%
%ADD13R,0.06693X0.06496*%
%ADD14R,0.06496X0.06693*%
%ADD15R,0.06890X0.04724*%
%ADD16R,0.04724X0.06890*%
G04:AMPARAMS|DCode=17|XSize=70.87mil|YSize=125.98mil|CornerRadius=0mil|HoleSize=0mil|Usage=FLASHONLY|Rotation=270.000|XOffset=0mil|YOffset=0mil|HoleType=Round|Shape=Octagon|*
%AMOCTAGOND17*
4,1,8,0.06299,0.01772,0.06299,-0.01772,0.04528,-0.03543,-0.04528,-0.03543,-0.06299,-0.01772,-0.06299,0.01772,-0.04528,0.03543,0.04528,0.03543,0.06299,0.01772,0.0*
%
%ADD17OCTAGOND17*%

%ADD18R,0.05118X0.03543*%
%ADD19R,0.05906X0.03543*%
%ADD20C,0.03937*%
%ADD21C,0.02953*%
%ADD22C,0.07874*%
%ADD23C,0.09843*%
%ADD24R,0.07874X0.07874*%
%ADD25C,0.01969*%
%ADD26C,0.02756*%
G36*
X316579Y159814D02*
X316013Y159379D01*
X315283Y159077D01*
X314697Y159000D01*
X300771D01*
X300086Y159090D01*
X299235Y159443D01*
X298504Y160004D01*
X297943Y160735D01*
X297590Y161586D01*
X297500Y162271D01*
Y183500D01*
Y183828D01*
X297371Y184805D01*
X296867Y186022D01*
X296066Y187066D01*
X295022Y187867D01*
X293805Y188371D01*
X292828Y188500D01*
X259874D01*
Y195346D01*
X251378D01*
Y192894D01*
X251215Y192785D01*
X246929Y188500D01*
X243743D01*
X243476Y189000D01*
X243833Y189534D01*
X244025Y190500D01*
X243833Y191466D01*
X243285Y192285D01*
X242466Y192833D01*
X241500Y193025D01*
X239622D01*
Y194846D01*
X231126D01*
Y188500D01*
X228139D01*
X227064Y188358D01*
X225726Y187804D01*
X224577Y186923D01*
X224374Y186658D01*
X223874Y186827D01*
Y194846D01*
X215378D01*
Y189823D01*
X210656Y185100D01*
X210108Y184281D01*
X209927Y183370D01*
X209135Y182947D01*
X208234Y182207D01*
X207494Y181306D01*
X206944Y180277D01*
X206605Y179161D01*
X206491Y178000D01*
X206605Y176839D01*
X206944Y175723D01*
X207494Y174694D01*
X208234Y173793D01*
X209135Y173053D01*
X209916Y172635D01*
Y171487D01*
X208049Y169619D01*
X203555D01*
Y169866D01*
X196437D01*
Y164323D01*
X197471D01*
Y155899D01*
X195846D01*
Y157622D01*
X187153D01*
Y149126D01*
X195846D01*
Y150849D01*
X209423D01*
X211184Y149088D01*
X211020Y147843D01*
X211190Y146554D01*
X211687Y145353D01*
X212479Y144321D01*
X213510Y143530D01*
X214711Y143033D01*
X216000Y142863D01*
X216612Y142944D01*
X223000Y136555D01*
Y123140D01*
X222858Y122064D01*
X222304Y120726D01*
X221423Y119577D01*
X221219Y119421D01*
X184921D01*
Y196579D01*
X316579D01*
Y159814D01*
D02*
G37*
%LPC*%
G36*
X193126Y193295D02*
X191837Y193125D01*
X190636Y192627D01*
X189605Y191836D01*
X188813Y190805D01*
X188316Y189604D01*
X188146Y188315D01*
X188316Y187026D01*
X188813Y185825D01*
X189605Y184794D01*
X190636Y184002D01*
X191818Y183513D01*
X196437Y178894D01*
Y176134D01*
X203555D01*
Y181677D01*
X200795D01*
X199203Y183270D01*
X199351Y183829D01*
X199531Y183894D01*
X199531Y183894D01*
X199531Y183894D01*
X205469D01*
Y189043D01*
X199531D01*
Y188993D01*
X198016D01*
X197936Y189604D01*
X197439Y190805D01*
X196647Y191836D01*
X195616Y192627D01*
X194415Y193125D01*
X193126Y193295D01*
D02*
G37*
%LPD*%
D10*
X202500Y186469D02*
D03*
Y192532D02*
D03*
X275000Y169032D02*
D03*
Y162969D02*
D03*
D11*
X259469Y164000D02*
D03*
X265531D02*
D03*
D12*
X235000Y158669D02*
D03*
Y167331D02*
D03*
D13*
X229500Y133626D02*
D03*
Y149374D02*
D03*
X191500Y137626D02*
D03*
Y153374D02*
D03*
X294500Y123626D02*
D03*
Y139374D02*
D03*
D14*
X252126Y176500D02*
D03*
X267874D02*
D03*
X219626Y190500D02*
D03*
X235374D02*
D03*
X271374Y191000D02*
D03*
X255626D02*
D03*
D15*
X312000Y123004D02*
D03*
Y135996D02*
D03*
D16*
X299996Y159000D02*
D03*
X287004D02*
D03*
D17*
X190350Y173000D02*
D03*
D18*
X199996Y178905D02*
D03*
Y167095D02*
D03*
D19*
X199602Y173000D02*
D03*
D20*
X308874Y143626D02*
Y148158D01*
Y143626D02*
X312000Y140500D01*
Y135996D02*
Y140500D01*
X295122Y123004D02*
X312000D01*
X287004Y146870D02*
Y159000D01*
Y181394D01*
X301390Y182000D02*
X308874Y174516D01*
Y167842D02*
Y174516D01*
X299996Y159000D02*
X300031D01*
X308874Y167842D01*
X275500Y123504D02*
X292187Y140191D01*
Y141687D01*
X294500Y139374D01*
X245500Y123504D02*
X255500D01*
X265500D01*
X275500D01*
X287004Y146870D02*
X292187Y141687D01*
D21*
X275000Y155500D02*
X275500Y155000D01*
X275000Y155500D02*
Y162969D01*
X265500Y155000D02*
Y163031D01*
Y155000D02*
X275500D01*
X255500D02*
Y160031D01*
X259469Y164000D01*
Y169158D01*
X252126Y176500D02*
X259469Y169158D01*
X193126Y185776D02*
X199996Y178905D01*
X193126Y185776D02*
Y188315D01*
X194973Y186469D02*
X202500D01*
X193126Y188315D02*
X194973Y186469D01*
X240000Y178000D02*
X253000Y191000D01*
X255626D01*
X216000Y147126D02*
X229500Y133626D01*
Y149374D02*
X235000Y154874D01*
X235126Y155000D02*
X245500D01*
X235000Y154874D02*
Y158669D01*
X267874Y176500D02*
X273000D01*
X275000Y174500D01*
Y169032D02*
Y174500D01*
X235374Y190500D02*
X238500D01*
X241500D01*
X210469Y153374D02*
X216000Y147843D01*
X199996Y153378D02*
Y167095D01*
X191500Y153374D02*
X210469D01*
X199996Y167095D02*
X209095D01*
X212441Y170441D01*
Y178000D01*
Y183315D01*
X219626Y190500D01*
D22*
X216000Y147843D02*
D03*
Y128157D02*
D03*
X287610Y182000D02*
D03*
X301390D02*
D03*
X308874Y167842D02*
D03*
Y148158D02*
D03*
X193126Y127685D02*
D03*
Y188315D02*
D03*
X245500Y123504D02*
D03*
X255500D02*
D03*
X265500D02*
D03*
X275500D02*
D03*
X245500Y155000D02*
D03*
X255500D02*
D03*
X265500D02*
D03*
D23*
X212441Y178000D02*
D03*
X240000D02*
D03*
D24*
X275500Y155000D02*
D03*
D25*
X200787Y133858D02*
D03*
Y149606D02*
D03*
X204725Y125984D02*
D03*
X208662Y133858D02*
D03*
X204725Y141732D02*
D03*
X208662Y149606D02*
D03*
X212598Y141732D02*
D03*
Y188977D02*
D03*
X299213Y173228D02*
D03*
X311024Y181103D02*
D03*
X307087Y188977D02*
D03*
X275000Y174500D02*
D03*
X238500Y190500D02*
D03*
X241500D02*
D03*
D26*
X195468Y173000D02*
D03*
X189482D02*
D03*
M02*
