G04 Layer_Physical_Order=2*
G04 Layer_Color=16711680*
%FSLAX25Y25*%
%MOIN*%
G70*
G01*
G75*
%ADD21C,0.02953*%
%ADD22C,0.07874*%
%ADD23C,0.09843*%
%ADD24R,0.07874X0.07874*%
%ADD25C,0.01969*%
%ADD26C,0.02756*%
G36*
X316579Y159814D02*
X316013Y159379D01*
X315283Y159077D01*
X314697Y159000D01*
X300771D01*
X300086Y159090D01*
X299235Y159443D01*
X298504Y160004D01*
X297943Y160735D01*
X297590Y161586D01*
X297500Y162271D01*
Y183500D01*
Y183828D01*
X297371Y184805D01*
X296867Y186022D01*
X296066Y187066D01*
X295022Y187867D01*
X293805Y188371D01*
X292828Y188500D01*
X264571D01*
X260785Y192285D01*
X259966Y192833D01*
X259000Y193025D01*
X238500D01*
X237534Y192833D01*
X236715Y192285D01*
X236167Y191466D01*
X235975Y190500D01*
X236167Y189534D01*
X236524Y189000D01*
X236257Y188500D01*
X228139D01*
X227064Y188358D01*
X225726Y187804D01*
X224577Y186923D01*
X223696Y185774D01*
X223142Y184436D01*
X223000Y183361D01*
Y183000D01*
Y123500D01*
Y123140D01*
X222858Y122064D01*
X222304Y120726D01*
X221423Y119577D01*
X221219Y119421D01*
X184921D01*
Y196579D01*
X316579D01*
Y159814D01*
D02*
G37*
%LPC*%
G36*
X216000Y152822D02*
X214711Y152652D01*
X213510Y152155D01*
X212479Y151364D01*
X211687Y150332D01*
X211190Y149131D01*
X211020Y147843D01*
X211190Y146554D01*
X211687Y145353D01*
X212479Y144321D01*
X213510Y143530D01*
X214711Y143033D01*
X216000Y142863D01*
X217289Y143033D01*
X218490Y143530D01*
X219521Y144321D01*
X220312Y145353D01*
X220810Y146554D01*
X220980Y147843D01*
X220810Y149131D01*
X220312Y150332D01*
X219521Y151364D01*
X218490Y152155D01*
X217289Y152652D01*
X216000Y152822D01*
D02*
G37*
G36*
X193126Y193295D02*
X191837Y193125D01*
X190636Y192627D01*
X189605Y191836D01*
X188813Y190805D01*
X188316Y189604D01*
X188146Y188315D01*
X188316Y187026D01*
X188813Y185825D01*
X189605Y184794D01*
X190636Y184002D01*
X191837Y183505D01*
X193126Y183335D01*
X194415Y183505D01*
X195616Y184002D01*
X196647Y184794D01*
X197439Y185825D01*
X197936Y187026D01*
X198106Y188315D01*
X197936Y189604D01*
X197439Y190805D01*
X196647Y191836D01*
X195616Y192627D01*
X194415Y193125D01*
X193126Y193295D01*
D02*
G37*
G36*
X212441Y183950D02*
X211280Y183836D01*
X210164Y183497D01*
X209135Y182947D01*
X208234Y182207D01*
X207494Y181306D01*
X206944Y180277D01*
X206605Y179161D01*
X206491Y178000D01*
X206605Y176839D01*
X206944Y175723D01*
X207494Y174694D01*
X208234Y173793D01*
X209135Y173053D01*
X210164Y172503D01*
X211280Y172164D01*
X212441Y172050D01*
X213602Y172164D01*
X214718Y172503D01*
X215746Y173053D01*
X216648Y173793D01*
X217388Y174694D01*
X217938Y175723D01*
X218277Y176839D01*
X218391Y178000D01*
X218277Y179161D01*
X217938Y180277D01*
X217388Y181306D01*
X216648Y182207D01*
X215746Y182947D01*
X214718Y183497D01*
X213602Y183836D01*
X212441Y183950D01*
D02*
G37*
%LPD*%
D21*
X235000Y167331D02*
Y173000D01*
X240000Y178000D01*
X265500Y155000D02*
Y171500D01*
X240000Y178000D02*
X259000D01*
X265500Y171500D01*
X238500Y190500D02*
X259000D01*
X275000Y174500D01*
D22*
X216000Y147843D02*
D03*
Y128157D02*
D03*
X287610Y182000D02*
D03*
X301390D02*
D03*
X308874Y167842D02*
D03*
Y148158D02*
D03*
X193126Y127685D02*
D03*
Y188315D02*
D03*
X245500Y123504D02*
D03*
X255500D02*
D03*
X265500D02*
D03*
X275500D02*
D03*
X245500Y155000D02*
D03*
X255500D02*
D03*
X265500D02*
D03*
D23*
X212441Y178000D02*
D03*
X240000D02*
D03*
D24*
X275500Y155000D02*
D03*
D25*
X200787Y133858D02*
D03*
Y149606D02*
D03*
X204725Y125984D02*
D03*
X208662Y133858D02*
D03*
X204725Y141732D02*
D03*
X208662Y149606D02*
D03*
X212598Y141732D02*
D03*
Y188977D02*
D03*
X299213Y173228D02*
D03*
X311024Y181103D02*
D03*
X307087Y188977D02*
D03*
X275000Y174500D02*
D03*
X238500Y190500D02*
D03*
X241500D02*
D03*
D26*
X195468Y173000D02*
D03*
X189482D02*
D03*
M02*
