G04 Layer_Color=32896*
%FSLAX25Y25*%
%MOIN*%
G70*
G01*
G75*
G36*
X292071Y142000D02*
X291480D01*
X290088Y145660D01*
X290730D01*
X291539Y143422D01*
X291590Y143276D01*
X291641Y143145D01*
X291677Y143021D01*
X291714Y142926D01*
X291736Y142838D01*
X291757Y142780D01*
X291765Y142744D01*
X291772Y142729D01*
X291816Y142868D01*
X291852Y143006D01*
X291896Y143130D01*
X291933Y143239D01*
X291962Y143334D01*
X291984Y143407D01*
X291991Y143429D01*
X291998Y143451D01*
X292005Y143458D01*
Y143465D01*
X292793Y145660D01*
X293449D01*
X292071Y142000D01*
D02*
G37*
G36*
X264741Y146563D02*
Y145660D01*
X265200D01*
Y145178D01*
X264741D01*
Y143064D01*
Y142962D01*
Y142875D01*
X264734Y142795D01*
X264726Y142714D01*
Y142649D01*
X264719Y142590D01*
X264704Y142496D01*
X264690Y142423D01*
X264683Y142372D01*
X264668Y142343D01*
Y142335D01*
X264639Y142270D01*
X264595Y142219D01*
X264551Y142168D01*
X264515Y142131D01*
X264471Y142095D01*
X264442Y142073D01*
X264420Y142058D01*
X264413Y142051D01*
X264333Y142015D01*
X264252Y141993D01*
X264165Y141971D01*
X264077Y141964D01*
X264004Y141956D01*
X263946Y141949D01*
X263888D01*
X263727Y141956D01*
X263647Y141964D01*
X263574Y141978D01*
X263509Y141985D01*
X263458Y141993D01*
X263429Y142000D01*
X263414D01*
X263494Y142547D01*
X263552Y142540D01*
X263611Y142532D01*
X263662D01*
X263698Y142525D01*
X263771D01*
X263866Y142532D01*
X263932Y142547D01*
X263968Y142561D01*
X263983Y142569D01*
X264034Y142605D01*
X264063Y142641D01*
X264085Y142671D01*
X264092Y142685D01*
X264099Y142722D01*
X264107Y142773D01*
X264114Y142889D01*
X264121Y142940D01*
Y142984D01*
Y143013D01*
Y143028D01*
Y145178D01*
X263494D01*
Y145660D01*
X264121D01*
Y146935D01*
X264741Y146563D01*
D02*
G37*
G36*
X302000Y142000D02*
X301359D01*
Y145958D01*
X298720Y142000D01*
X298027D01*
Y147045D01*
X298669D01*
Y143079D01*
X301315Y147045D01*
X302000D01*
Y142000D01*
D02*
G37*
G36*
X246224Y145732D02*
X246377Y145718D01*
X246523Y145696D01*
X246640Y145674D01*
X246742Y145652D01*
X246815Y145630D01*
X246844Y145623D01*
X246866Y145616D01*
X246873Y145608D01*
X246880D01*
X247004Y145557D01*
X247114Y145492D01*
X247208Y145434D01*
X247288Y145375D01*
X247347Y145317D01*
X247391Y145273D01*
X247420Y145244D01*
X247427Y145237D01*
X247493Y145142D01*
X247551Y145040D01*
X247595Y144938D01*
X247631Y144843D01*
X247660Y144748D01*
X247682Y144683D01*
X247690Y144654D01*
Y144632D01*
X247697Y144624D01*
Y144617D01*
X247092Y144537D01*
X247048Y144668D01*
X247004Y144785D01*
X246953Y144879D01*
X246909Y144952D01*
X246866Y145011D01*
X246829Y145047D01*
X246800Y145069D01*
X246793Y145076D01*
X246705Y145127D01*
X246603Y145164D01*
X246494Y145193D01*
X246392Y145208D01*
X246290Y145222D01*
X246217Y145229D01*
X246144D01*
X245976Y145222D01*
X245830Y145200D01*
X245714Y145164D01*
X245612Y145127D01*
X245539Y145084D01*
X245481Y145054D01*
X245444Y145025D01*
X245437Y145018D01*
X245379Y144952D01*
X245335Y144872D01*
X245298Y144785D01*
X245276Y144697D01*
X245262Y144617D01*
X245255Y144544D01*
Y144501D01*
Y144493D01*
Y144486D01*
Y144471D01*
Y144442D01*
Y144391D01*
X245262Y144347D01*
Y144333D01*
Y144325D01*
X245335Y144304D01*
X245415Y144282D01*
X245583Y144238D01*
X245772Y144202D01*
X245947Y144165D01*
X246035Y144150D01*
X246115Y144143D01*
X246188Y144129D01*
X246246Y144121D01*
X246297Y144114D01*
X246334D01*
X246363Y144107D01*
X246370D01*
X246501Y144092D01*
X246611Y144070D01*
X246705Y144056D01*
X246778Y144041D01*
X246837Y144034D01*
X246880Y144019D01*
X246909Y144012D01*
X246917D01*
X247011Y143983D01*
X247092Y143954D01*
X247172Y143917D01*
X247237Y143888D01*
X247296Y143859D01*
X247332Y143830D01*
X247361Y143815D01*
X247369Y143808D01*
X247442Y143757D01*
X247500Y143699D01*
X247558Y143640D01*
X247602Y143582D01*
X247639Y143531D01*
X247668Y143487D01*
X247682Y143458D01*
X247690Y143451D01*
X247726Y143370D01*
X247755Y143283D01*
X247777Y143203D01*
X247792Y143123D01*
X247799Y143057D01*
X247806Y143006D01*
Y142977D01*
Y142962D01*
X247799Y142875D01*
X247792Y142802D01*
X247755Y142649D01*
X247704Y142525D01*
X247646Y142415D01*
X247587Y142328D01*
X247536Y142262D01*
X247500Y142226D01*
X247485Y142211D01*
X247354Y142117D01*
X247208Y142044D01*
X247048Y141993D01*
X246902Y141956D01*
X246771Y141934D01*
X246713Y141927D01*
X246662D01*
X246618Y141920D01*
X246560D01*
X246428Y141927D01*
X246297Y141942D01*
X246181Y141956D01*
X246078Y141978D01*
X245998Y142000D01*
X245933Y142022D01*
X245889Y142029D01*
X245874Y142036D01*
X245750Y142087D01*
X245634Y142153D01*
X245524Y142226D01*
X245415Y142292D01*
X245327Y142357D01*
X245262Y142408D01*
X245218Y142445D01*
X245211Y142459D01*
X245204D01*
X245189Y142365D01*
X245174Y142277D01*
X245160Y142197D01*
X245138Y142131D01*
X245116Y142073D01*
X245101Y142036D01*
X245094Y142007D01*
X245087Y142000D01*
X244438D01*
X244475Y142080D01*
X244511Y142160D01*
X244540Y142233D01*
X244555Y142299D01*
X244577Y142357D01*
X244584Y142401D01*
X244591Y142430D01*
Y142437D01*
X244599Y142488D01*
X244606Y142554D01*
Y142627D01*
X244613Y142707D01*
X244620Y142889D01*
Y143072D01*
X244628Y143247D01*
Y143327D01*
Y143392D01*
Y143451D01*
Y143494D01*
Y143524D01*
Y143531D01*
Y144362D01*
Y144501D01*
X244635Y144624D01*
X244642Y144719D01*
Y144799D01*
X244650Y144858D01*
X244657Y144901D01*
X244664Y144923D01*
Y144931D01*
X244686Y145025D01*
X244715Y145106D01*
X244744Y145171D01*
X244781Y145237D01*
X244810Y145281D01*
X244832Y145317D01*
X244846Y145339D01*
X244854Y145346D01*
X244912Y145404D01*
X244978Y145463D01*
X245051Y145507D01*
X245123Y145550D01*
X245189Y145579D01*
X245240Y145601D01*
X245276Y145616D01*
X245291Y145623D01*
X245408Y145660D01*
X245532Y145689D01*
X245656Y145711D01*
X245779Y145725D01*
X245889Y145732D01*
X245969Y145740D01*
X246049D01*
X246224Y145732D01*
D02*
G37*
G36*
X270347Y142000D02*
X269727D01*
Y147045D01*
X270347D01*
Y142000D01*
D02*
G37*
G36*
X249818Y145732D02*
X249979Y145703D01*
X250132Y145667D01*
X250256Y145630D01*
X250365Y145587D01*
X250409Y145565D01*
X250445Y145550D01*
X250474Y145536D01*
X250496Y145521D01*
X250511Y145514D01*
X250518D01*
X250657Y145426D01*
X250781Y145317D01*
X250883Y145208D01*
X250970Y145098D01*
X251036Y145003D01*
X251079Y144923D01*
X251094Y144894D01*
X251109Y144872D01*
X251116Y144858D01*
Y144850D01*
X251181Y144675D01*
X251225Y144501D01*
X251262Y144325D01*
X251284Y144165D01*
X251291Y144092D01*
X251298Y144027D01*
Y143968D01*
X251305Y143917D01*
Y143874D01*
Y143844D01*
Y143823D01*
Y143815D01*
X251298Y143648D01*
X251284Y143494D01*
X251262Y143341D01*
X251232Y143210D01*
X251203Y143079D01*
X251160Y142970D01*
X251123Y142860D01*
X251079Y142765D01*
X251036Y142685D01*
X250999Y142612D01*
X250955Y142547D01*
X250926Y142496D01*
X250897Y142459D01*
X250875Y142430D01*
X250861Y142415D01*
X250853Y142408D01*
X250766Y142321D01*
X250671Y142248D01*
X250576Y142182D01*
X250474Y142124D01*
X250372Y142080D01*
X250277Y142036D01*
X250081Y141978D01*
X249993Y141964D01*
X249913Y141949D01*
X249840Y141934D01*
X249774Y141927D01*
X249723Y141920D01*
X249651D01*
X249541Y141927D01*
X249432Y141934D01*
X249242Y141978D01*
X249067Y142029D01*
X248921Y142095D01*
X248863Y142131D01*
X248805Y142160D01*
X248754Y142190D01*
X248717Y142219D01*
X248688Y142241D01*
X248666Y142255D01*
X248652Y142262D01*
X248644Y142270D01*
X248572Y142343D01*
X248506Y142415D01*
X248389Y142576D01*
X248295Y142744D01*
X248229Y142897D01*
X248178Y143043D01*
X248163Y143101D01*
X248149Y143159D01*
X248142Y143203D01*
X248134Y143232D01*
X248127Y143254D01*
Y143261D01*
X248739Y143341D01*
X248768Y143181D01*
X248812Y143035D01*
X248870Y142919D01*
X248921Y142824D01*
X248973Y142744D01*
X249016Y142693D01*
X249038Y142656D01*
X249053Y142649D01*
X249148Y142576D01*
X249250Y142525D01*
X249352Y142481D01*
X249446Y142459D01*
X249527Y142445D01*
X249600Y142437D01*
X249643Y142430D01*
X249658D01*
X249738Y142437D01*
X249818Y142445D01*
X249964Y142481D01*
X250088Y142532D01*
X250197Y142598D01*
X250277Y142656D01*
X250343Y142707D01*
X250379Y142744D01*
X250394Y142758D01*
X250445Y142824D01*
X250489Y142904D01*
X250554Y143064D01*
X250606Y143247D01*
X250635Y143422D01*
X250657Y143582D01*
X250664Y143648D01*
Y143713D01*
X250671Y143757D01*
Y143801D01*
Y143823D01*
Y143830D01*
Y143961D01*
X250657Y144085D01*
X250642Y144202D01*
X250627Y144304D01*
X250606Y144398D01*
X250576Y144486D01*
X250554Y144566D01*
X250525Y144639D01*
X250496Y144697D01*
X250474Y144748D01*
X250445Y144792D01*
X250423Y144828D01*
X250409Y144858D01*
X250394Y144879D01*
X250379Y144887D01*
Y144894D01*
X250321Y144952D01*
X250263Y145003D01*
X250139Y145091D01*
X250008Y145149D01*
X249891Y145186D01*
X249782Y145215D01*
X249701Y145222D01*
X249665Y145229D01*
X249621D01*
X249512Y145222D01*
X249410Y145200D01*
X249323Y145171D01*
X249242Y145135D01*
X249184Y145098D01*
X249133Y145069D01*
X249104Y145047D01*
X249096Y145040D01*
X249024Y144967D01*
X248958Y144879D01*
X248900Y144785D01*
X248863Y144697D01*
X248827Y144617D01*
X248805Y144552D01*
X248798Y144508D01*
X248790Y144501D01*
Y144493D01*
X248185Y144588D01*
X248236Y144785D01*
X248309Y144952D01*
X248389Y145098D01*
X248469Y145215D01*
X248550Y145310D01*
X248615Y145375D01*
X248659Y145419D01*
X248666Y145434D01*
X248674D01*
X248827Y145536D01*
X248987Y145608D01*
X249148Y145667D01*
X249301Y145703D01*
X249439Y145725D01*
X249497Y145732D01*
X249541D01*
X249585Y145740D01*
X249643D01*
X249818Y145732D01*
D02*
G37*
G36*
X284351D02*
X284424Y145718D01*
X284497Y145696D01*
X284555Y145674D01*
X284599Y145652D01*
X284643Y145630D01*
X284664Y145616D01*
X284672Y145608D01*
X284737Y145550D01*
X284803Y145477D01*
X284869Y145390D01*
X284927Y145310D01*
X284985Y145229D01*
X285022Y145164D01*
X285051Y145113D01*
X285058Y145106D01*
Y145660D01*
X285619D01*
Y142000D01*
X285000D01*
Y143910D01*
X284992Y144056D01*
X284985Y144187D01*
X284971Y144311D01*
X284949Y144420D01*
X284927Y144508D01*
X284912Y144573D01*
X284905Y144617D01*
X284898Y144632D01*
X284869Y144712D01*
X284832Y144778D01*
X284796Y144836D01*
X284759Y144887D01*
X284723Y144923D01*
X284701Y144952D01*
X284679Y144967D01*
X284672Y144974D01*
X284613Y145018D01*
X284548Y145047D01*
X284482Y145069D01*
X284431Y145084D01*
X284380Y145091D01*
X284344Y145098D01*
X284307D01*
X284227Y145091D01*
X284147Y145076D01*
X284067Y145054D01*
X284001Y145033D01*
X283943Y145011D01*
X283899Y144989D01*
X283870Y144974D01*
X283862Y144967D01*
X283636Y145536D01*
X283760Y145601D01*
X283877Y145652D01*
X283979Y145689D01*
X284074Y145718D01*
X284154Y145732D01*
X284220Y145740D01*
X284271D01*
X284351Y145732D01*
D02*
G37*
G36*
X282003D02*
X282076Y145718D01*
X282149Y145696D01*
X282208Y145674D01*
X282251Y145652D01*
X282295Y145630D01*
X282317Y145616D01*
X282324Y145608D01*
X282390Y145550D01*
X282455Y145477D01*
X282521Y145390D01*
X282579Y145310D01*
X282638Y145229D01*
X282674Y145164D01*
X282703Y145113D01*
X282711Y145106D01*
Y145660D01*
X283272D01*
Y142000D01*
X282652D01*
Y143910D01*
X282645Y144056D01*
X282638Y144187D01*
X282623Y144311D01*
X282601Y144420D01*
X282579Y144508D01*
X282565Y144573D01*
X282558Y144617D01*
X282550Y144632D01*
X282521Y144712D01*
X282485Y144778D01*
X282448Y144836D01*
X282412Y144887D01*
X282375Y144923D01*
X282353Y144952D01*
X282332Y144967D01*
X282324Y144974D01*
X282266Y145018D01*
X282200Y145047D01*
X282135Y145069D01*
X282084Y145084D01*
X282033Y145091D01*
X281996Y145098D01*
X281960D01*
X281880Y145091D01*
X281799Y145076D01*
X281719Y145054D01*
X281654Y145033D01*
X281595Y145011D01*
X281552Y144989D01*
X281522Y144974D01*
X281515Y144967D01*
X281289Y145536D01*
X281413Y145601D01*
X281530Y145652D01*
X281632Y145689D01*
X281727Y145718D01*
X281807Y145732D01*
X281872Y145740D01*
X281923D01*
X282003Y145732D01*
D02*
G37*
G36*
X274947Y142000D02*
X271178D01*
Y142598D01*
X274276D01*
Y144311D01*
X271484D01*
Y144909D01*
X274276D01*
Y146447D01*
X271294D01*
Y147045D01*
X274947D01*
Y142000D01*
D02*
G37*
G36*
X267409Y145732D02*
X267540Y145718D01*
X267664Y145696D01*
X267781Y145660D01*
X267890Y145623D01*
X267992Y145579D01*
X268087Y145536D01*
X268167Y145485D01*
X268247Y145441D01*
X268313Y145390D01*
X268371Y145346D01*
X268415Y145310D01*
X268451Y145273D01*
X268481Y145251D01*
X268495Y145237D01*
X268502Y145229D01*
X268583Y145127D01*
X268655Y145018D01*
X268721Y144909D01*
X268779Y144792D01*
X268823Y144668D01*
X268860Y144552D01*
X268918Y144318D01*
X268940Y144216D01*
X268954Y144114D01*
X268962Y144027D01*
X268969Y143946D01*
X268976Y143881D01*
Y143837D01*
Y143801D01*
Y143793D01*
X268969Y143633D01*
X268954Y143480D01*
X268933Y143334D01*
X268903Y143203D01*
X268867Y143079D01*
X268830Y142962D01*
X268787Y142860D01*
X268743Y142765D01*
X268699Y142685D01*
X268655Y142612D01*
X268619Y142554D01*
X268583Y142503D01*
X268553Y142459D01*
X268532Y142430D01*
X268517Y142415D01*
X268510Y142408D01*
X268415Y142321D01*
X268320Y142248D01*
X268218Y142182D01*
X268109Y142124D01*
X268007Y142080D01*
X267897Y142036D01*
X267693Y141978D01*
X267599Y141964D01*
X267511Y141949D01*
X267431Y141934D01*
X267365Y141927D01*
X267314Y141920D01*
X267234D01*
X267008Y141934D01*
X266804Y141971D01*
X266622Y142015D01*
X266549Y142044D01*
X266476Y142073D01*
X266410Y142102D01*
X266352Y142131D01*
X266308Y142153D01*
X266264Y142175D01*
X266235Y142197D01*
X266213Y142211D01*
X266199Y142226D01*
X266192D01*
X266046Y142357D01*
X265929Y142496D01*
X265827Y142641D01*
X265754Y142780D01*
X265696Y142904D01*
X265674Y142962D01*
X265652Y143006D01*
X265637Y143050D01*
X265630Y143079D01*
X265623Y143094D01*
Y143101D01*
X266264Y143181D01*
X266323Y143043D01*
X266388Y142926D01*
X266454Y142824D01*
X266512Y142744D01*
X266563Y142685D01*
X266607Y142641D01*
X266644Y142612D01*
X266651Y142605D01*
X266746Y142547D01*
X266840Y142503D01*
X266942Y142474D01*
X267030Y142452D01*
X267110Y142437D01*
X267176Y142430D01*
X267234D01*
X267321Y142437D01*
X267402Y142445D01*
X267547Y142481D01*
X267679Y142532D01*
X267795Y142590D01*
X267883Y142641D01*
X267948Y142693D01*
X267992Y142729D01*
X267999Y142744D01*
X268007D01*
X268109Y142875D01*
X268189Y143021D01*
X268247Y143181D01*
X268291Y143327D01*
X268313Y143458D01*
X268327Y143516D01*
X268335Y143567D01*
Y143611D01*
X268342Y143640D01*
Y143662D01*
Y143669D01*
X265608D01*
X265601Y143742D01*
Y143793D01*
Y143823D01*
Y143830D01*
X265608Y143998D01*
X265623Y144150D01*
X265645Y144296D01*
X265674Y144435D01*
X265710Y144559D01*
X265747Y144675D01*
X265791Y144778D01*
X265834Y144872D01*
X265878Y144960D01*
X265922Y145033D01*
X265958Y145091D01*
X265995Y145142D01*
X266024Y145186D01*
X266046Y145215D01*
X266060Y145229D01*
X266068Y145237D01*
X266155Y145324D01*
X266250Y145404D01*
X266352Y145470D01*
X266454Y145528D01*
X266556Y145579D01*
X266651Y145616D01*
X266753Y145652D01*
X266840Y145674D01*
X266935Y145696D01*
X267015Y145711D01*
X267088Y145725D01*
X267146Y145732D01*
X267197Y145740D01*
X267270D01*
X267409Y145732D01*
D02*
G37*
G36*
X255038D02*
X255169Y145711D01*
X255286Y145681D01*
X255402Y145645D01*
X255504Y145601D01*
X255599Y145550D01*
X255687Y145492D01*
X255760Y145441D01*
X255832Y145383D01*
X255891Y145324D01*
X255942Y145273D01*
X255985Y145229D01*
X256015Y145193D01*
X256036Y145164D01*
X256051Y145142D01*
X256058Y145135D01*
Y145660D01*
X256612D01*
Y142000D01*
X255993D01*
Y143990D01*
Y144114D01*
X255978Y144238D01*
X255964Y144340D01*
X255949Y144435D01*
X255927Y144522D01*
X255905Y144603D01*
X255876Y144675D01*
X255847Y144734D01*
X255825Y144785D01*
X255796Y144828D01*
X255774Y144865D01*
X255752Y144894D01*
X255723Y144931D01*
X255709Y144945D01*
X255599Y145033D01*
X255483Y145091D01*
X255366Y145135D01*
X255264Y145171D01*
X255169Y145186D01*
X255096Y145193D01*
X255067Y145200D01*
X255030D01*
X254943Y145193D01*
X254856Y145186D01*
X254783Y145164D01*
X254724Y145142D01*
X254673Y145120D01*
X254630Y145106D01*
X254608Y145091D01*
X254600Y145084D01*
X254535Y145040D01*
X254476Y144989D01*
X254433Y144938D01*
X254396Y144894D01*
X254374Y144850D01*
X254353Y144814D01*
X254338Y144792D01*
Y144785D01*
X254316Y144705D01*
X254294Y144617D01*
X254280Y144522D01*
X254272Y144428D01*
X254265Y144347D01*
Y144282D01*
Y144231D01*
Y144223D01*
Y144216D01*
Y142000D01*
X253645D01*
Y144245D01*
Y144398D01*
X253653Y144522D01*
X253660Y144624D01*
Y144712D01*
X253667Y144770D01*
X253675Y144814D01*
X253682Y144843D01*
Y144850D01*
X253704Y144945D01*
X253740Y145033D01*
X253769Y145106D01*
X253799Y145178D01*
X253835Y145229D01*
X253857Y145266D01*
X253871Y145295D01*
X253879Y145302D01*
X253937Y145375D01*
X254003Y145434D01*
X254068Y145492D01*
X254141Y145536D01*
X254200Y145572D01*
X254251Y145594D01*
X254280Y145608D01*
X254294Y145616D01*
X254396Y145660D01*
X254506Y145689D01*
X254608Y145711D01*
X254702Y145725D01*
X254783Y145732D01*
X254841Y145740D01*
X254899D01*
X255038Y145732D01*
D02*
G37*
G36*
X261621D02*
X261694Y145718D01*
X261767Y145696D01*
X261825Y145674D01*
X261869Y145652D01*
X261912Y145630D01*
X261934Y145616D01*
X261941Y145608D01*
X262007Y145550D01*
X262073Y145477D01*
X262138Y145390D01*
X262197Y145310D01*
X262255Y145229D01*
X262291Y145164D01*
X262320Y145113D01*
X262328Y145106D01*
Y145660D01*
X262889D01*
Y142000D01*
X262269D01*
Y143910D01*
X262262Y144056D01*
X262255Y144187D01*
X262240Y144311D01*
X262218Y144420D01*
X262197Y144508D01*
X262182Y144573D01*
X262175Y144617D01*
X262167Y144632D01*
X262138Y144712D01*
X262102Y144778D01*
X262065Y144836D01*
X262029Y144887D01*
X261993Y144923D01*
X261971Y144952D01*
X261949Y144967D01*
X261941Y144974D01*
X261883Y145018D01*
X261818Y145047D01*
X261752Y145069D01*
X261701Y145084D01*
X261650Y145091D01*
X261613Y145098D01*
X261577D01*
X261497Y145091D01*
X261417Y145076D01*
X261336Y145054D01*
X261271Y145033D01*
X261212Y145011D01*
X261169Y144989D01*
X261140Y144974D01*
X261132Y144967D01*
X260906Y145536D01*
X261030Y145601D01*
X261147Y145652D01*
X261249Y145689D01*
X261344Y145718D01*
X261424Y145732D01*
X261490Y145740D01*
X261541D01*
X261621Y145732D01*
D02*
G37*
G36*
X252690Y142000D02*
X252071D01*
Y145660D01*
X252690D01*
Y142000D01*
D02*
G37*
G36*
X259178Y145732D02*
X259295Y145725D01*
X259521Y145674D01*
X259718Y145608D01*
X259805Y145572D01*
X259886Y145536D01*
X259959Y145499D01*
X260017Y145463D01*
X260075Y145426D01*
X260119Y145397D01*
X260155Y145368D01*
X260185Y145346D01*
X260199Y145339D01*
X260206Y145332D01*
X260309Y145237D01*
X260389Y145127D01*
X260469Y145011D01*
X260527Y144894D01*
X260585Y144770D01*
X260629Y144639D01*
X260666Y144515D01*
X260695Y144398D01*
X260724Y144282D01*
X260739Y144180D01*
X260753Y144078D01*
X260760Y143998D01*
Y143925D01*
X260768Y143874D01*
Y143844D01*
Y143830D01*
X260760Y143662D01*
X260746Y143502D01*
X260724Y143356D01*
X260695Y143217D01*
X260658Y143094D01*
X260622Y142977D01*
X260578Y142868D01*
X260535Y142773D01*
X260491Y142685D01*
X260447Y142612D01*
X260411Y142554D01*
X260374Y142503D01*
X260345Y142459D01*
X260323Y142430D01*
X260309Y142415D01*
X260301Y142408D01*
X260206Y142321D01*
X260112Y142248D01*
X260010Y142182D01*
X259908Y142124D01*
X259805Y142080D01*
X259696Y142036D01*
X259499Y141978D01*
X259412Y141964D01*
X259324Y141949D01*
X259251Y141934D01*
X259186Y141927D01*
X259127Y141920D01*
X259055D01*
X258880Y141927D01*
X258719Y141956D01*
X258566Y141993D01*
X258442Y142029D01*
X258333Y142073D01*
X258289Y142087D01*
X258253Y142102D01*
X258216Y142117D01*
X258194Y142131D01*
X258187Y142139D01*
X258180D01*
X258034Y142233D01*
X257910Y142335D01*
X257801Y142437D01*
X257713Y142540D01*
X257648Y142627D01*
X257597Y142700D01*
X257582Y142729D01*
X257568Y142751D01*
X257560Y142758D01*
Y142765D01*
X257487Y142933D01*
X257436Y143115D01*
X257393Y143298D01*
X257371Y143480D01*
X257356Y143560D01*
Y143633D01*
X257349Y143706D01*
X257342Y143764D01*
Y143815D01*
Y143852D01*
Y143874D01*
Y143881D01*
X257349Y144041D01*
X257363Y144187D01*
X257385Y144325D01*
X257414Y144457D01*
X257451Y144581D01*
X257494Y144690D01*
X257538Y144799D01*
X257582Y144887D01*
X257626Y144967D01*
X257669Y145040D01*
X257713Y145106D01*
X257750Y145157D01*
X257779Y145193D01*
X257801Y145222D01*
X257815Y145237D01*
X257823Y145244D01*
X257917Y145332D01*
X258012Y145404D01*
X258114Y145477D01*
X258216Y145528D01*
X258318Y145579D01*
X258420Y145616D01*
X258617Y145681D01*
X258712Y145696D01*
X258792Y145711D01*
X258865Y145725D01*
X258931Y145732D01*
X258982Y145740D01*
X259055D01*
X259178Y145732D01*
D02*
G37*
G36*
X279561D02*
X279678Y145725D01*
X279904Y145674D01*
X280101Y145608D01*
X280188Y145572D01*
X280269Y145536D01*
X280341Y145499D01*
X280400Y145463D01*
X280458Y145426D01*
X280502Y145397D01*
X280538Y145368D01*
X280567Y145346D01*
X280582Y145339D01*
X280589Y145332D01*
X280691Y145237D01*
X280771Y145127D01*
X280852Y145011D01*
X280910Y144894D01*
X280968Y144770D01*
X281012Y144639D01*
X281048Y144515D01*
X281078Y144398D01*
X281107Y144282D01*
X281121Y144180D01*
X281136Y144078D01*
X281143Y143998D01*
Y143925D01*
X281151Y143874D01*
Y143844D01*
Y143830D01*
X281143Y143662D01*
X281129Y143502D01*
X281107Y143356D01*
X281078Y143217D01*
X281041Y143094D01*
X281005Y142977D01*
X280961Y142868D01*
X280917Y142773D01*
X280874Y142685D01*
X280830Y142612D01*
X280793Y142554D01*
X280757Y142503D01*
X280728Y142459D01*
X280706Y142430D01*
X280691Y142415D01*
X280684Y142408D01*
X280589Y142321D01*
X280494Y142248D01*
X280392Y142182D01*
X280290Y142124D01*
X280188Y142080D01*
X280079Y142036D01*
X279882Y141978D01*
X279795Y141964D01*
X279707Y141949D01*
X279634Y141934D01*
X279569Y141927D01*
X279510Y141920D01*
X279437D01*
X279262Y141927D01*
X279102Y141956D01*
X278949Y141993D01*
X278825Y142029D01*
X278716Y142073D01*
X278672Y142087D01*
X278636Y142102D01*
X278599Y142117D01*
X278577Y142131D01*
X278570Y142139D01*
X278563D01*
X278417Y142233D01*
X278293Y142335D01*
X278184Y142437D01*
X278096Y142540D01*
X278030Y142627D01*
X277979Y142700D01*
X277965Y142729D01*
X277950Y142751D01*
X277943Y142758D01*
Y142765D01*
X277870Y142933D01*
X277819Y143115D01*
X277775Y143298D01*
X277753Y143480D01*
X277739Y143560D01*
Y143633D01*
X277732Y143706D01*
X277724Y143764D01*
Y143815D01*
Y143852D01*
Y143874D01*
Y143881D01*
X277732Y144041D01*
X277746Y144187D01*
X277768Y144325D01*
X277797Y144457D01*
X277834Y144581D01*
X277877Y144690D01*
X277921Y144799D01*
X277965Y144887D01*
X278009Y144967D01*
X278052Y145040D01*
X278096Y145106D01*
X278133Y145157D01*
X278162Y145193D01*
X278184Y145222D01*
X278198Y145237D01*
X278205Y145244D01*
X278300Y145332D01*
X278395Y145404D01*
X278497Y145477D01*
X278599Y145528D01*
X278701Y145579D01*
X278803Y145616D01*
X279000Y145681D01*
X279095Y145696D01*
X279175Y145711D01*
X279248Y145725D01*
X279313Y145732D01*
X279365Y145740D01*
X279437D01*
X279561Y145732D01*
D02*
G37*
G36*
X295614D02*
X295767Y145718D01*
X295913Y145696D01*
X296029Y145674D01*
X296132Y145652D01*
X296204Y145630D01*
X296234Y145623D01*
X296255Y145616D01*
X296263Y145608D01*
X296270D01*
X296394Y145557D01*
X296503Y145492D01*
X296598Y145434D01*
X296678Y145375D01*
X296737Y145317D01*
X296780Y145273D01*
X296810Y145244D01*
X296817Y145237D01*
X296882Y145142D01*
X296941Y145040D01*
X296985Y144938D01*
X297021Y144843D01*
X297050Y144748D01*
X297072Y144683D01*
X297079Y144654D01*
Y144632D01*
X297087Y144624D01*
Y144617D01*
X296481Y144537D01*
X296438Y144668D01*
X296394Y144785D01*
X296343Y144879D01*
X296299Y144952D01*
X296255Y145011D01*
X296219Y145047D01*
X296190Y145069D01*
X296183Y145076D01*
X296095Y145127D01*
X295993Y145164D01*
X295884Y145193D01*
X295782Y145208D01*
X295680Y145222D01*
X295607Y145229D01*
X295534D01*
X295366Y145222D01*
X295220Y145200D01*
X295104Y145164D01*
X295002Y145127D01*
X294929Y145084D01*
X294870Y145054D01*
X294834Y145025D01*
X294827Y145018D01*
X294768Y144952D01*
X294725Y144872D01*
X294688Y144785D01*
X294666Y144697D01*
X294652Y144617D01*
X294644Y144544D01*
Y144501D01*
Y144493D01*
Y144486D01*
Y144471D01*
Y144442D01*
Y144391D01*
X294652Y144347D01*
Y144333D01*
Y144325D01*
X294725Y144304D01*
X294805Y144282D01*
X294972Y144238D01*
X295162Y144202D01*
X295337Y144165D01*
X295424Y144150D01*
X295505Y144143D01*
X295578Y144129D01*
X295636Y144121D01*
X295687Y144114D01*
X295723D01*
X295753Y144107D01*
X295760D01*
X295891Y144092D01*
X296000Y144070D01*
X296095Y144056D01*
X296168Y144041D01*
X296226Y144034D01*
X296270Y144019D01*
X296299Y144012D01*
X296306D01*
X296401Y143983D01*
X296481Y143954D01*
X296562Y143917D01*
X296627Y143888D01*
X296686Y143859D01*
X296722Y143830D01*
X296751Y143815D01*
X296759Y143808D01*
X296831Y143757D01*
X296890Y143699D01*
X296948Y143640D01*
X296992Y143582D01*
X297028Y143531D01*
X297057Y143487D01*
X297072Y143458D01*
X297079Y143451D01*
X297116Y143370D01*
X297145Y143283D01*
X297167Y143203D01*
X297181Y143123D01*
X297189Y143057D01*
X297196Y143006D01*
Y142977D01*
Y142962D01*
X297189Y142875D01*
X297181Y142802D01*
X297145Y142649D01*
X297094Y142525D01*
X297036Y142415D01*
X296977Y142328D01*
X296926Y142262D01*
X296890Y142226D01*
X296875Y142211D01*
X296744Y142117D01*
X296598Y142044D01*
X296438Y141993D01*
X296292Y141956D01*
X296161Y141934D01*
X296102Y141927D01*
X296051D01*
X296008Y141920D01*
X295949D01*
X295818Y141927D01*
X295687Y141942D01*
X295570Y141956D01*
X295468Y141978D01*
X295388Y142000D01*
X295322Y142022D01*
X295279Y142029D01*
X295264Y142036D01*
X295140Y142087D01*
X295023Y142153D01*
X294914Y142226D01*
X294805Y142292D01*
X294717Y142357D01*
X294652Y142408D01*
X294608Y142445D01*
X294601Y142459D01*
X294593D01*
X294579Y142365D01*
X294564Y142277D01*
X294550Y142197D01*
X294528Y142131D01*
X294506Y142073D01*
X294491Y142036D01*
X294484Y142007D01*
X294477Y142000D01*
X293828D01*
X293864Y142080D01*
X293901Y142160D01*
X293930Y142233D01*
X293945Y142299D01*
X293966Y142357D01*
X293974Y142401D01*
X293981Y142430D01*
Y142437D01*
X293988Y142488D01*
X293996Y142554D01*
Y142627D01*
X294003Y142707D01*
X294010Y142889D01*
Y143072D01*
X294018Y143247D01*
Y143327D01*
Y143392D01*
Y143451D01*
Y143494D01*
Y143524D01*
Y143531D01*
Y144362D01*
Y144501D01*
X294025Y144624D01*
X294032Y144719D01*
Y144799D01*
X294039Y144858D01*
X294047Y144901D01*
X294054Y144923D01*
Y144931D01*
X294076Y145025D01*
X294105Y145106D01*
X294134Y145171D01*
X294170Y145237D01*
X294200Y145281D01*
X294222Y145317D01*
X294236Y145339D01*
X294243Y145346D01*
X294302Y145404D01*
X294367Y145463D01*
X294440Y145507D01*
X294513Y145550D01*
X294579Y145579D01*
X294630Y145601D01*
X294666Y145616D01*
X294681Y145623D01*
X294797Y145660D01*
X294921Y145689D01*
X295045Y145711D01*
X295169Y145725D01*
X295279Y145732D01*
X295359Y145740D01*
X295439D01*
X295614Y145732D01*
D02*
G37*
G36*
X288164D02*
X288317Y145718D01*
X288462Y145696D01*
X288579Y145674D01*
X288681Y145652D01*
X288754Y145630D01*
X288783Y145623D01*
X288805Y145616D01*
X288812Y145608D01*
X288820D01*
X288944Y145557D01*
X289053Y145492D01*
X289148Y145434D01*
X289228Y145375D01*
X289286Y145317D01*
X289330Y145273D01*
X289359Y145244D01*
X289366Y145237D01*
X289432Y145142D01*
X289490Y145040D01*
X289534Y144938D01*
X289571Y144843D01*
X289600Y144748D01*
X289622Y144683D01*
X289629Y144654D01*
Y144632D01*
X289636Y144624D01*
Y144617D01*
X289031Y144537D01*
X288987Y144668D01*
X288944Y144785D01*
X288893Y144879D01*
X288849Y144952D01*
X288805Y145011D01*
X288769Y145047D01*
X288739Y145069D01*
X288732Y145076D01*
X288645Y145127D01*
X288543Y145164D01*
X288433Y145193D01*
X288331Y145208D01*
X288229Y145222D01*
X288156Y145229D01*
X288083D01*
X287916Y145222D01*
X287770Y145200D01*
X287653Y145164D01*
X287551Y145127D01*
X287478Y145084D01*
X287420Y145054D01*
X287384Y145025D01*
X287376Y145018D01*
X287318Y144952D01*
X287274Y144872D01*
X287238Y144785D01*
X287216Y144697D01*
X287201Y144617D01*
X287194Y144544D01*
Y144501D01*
Y144493D01*
Y144486D01*
Y144471D01*
Y144442D01*
Y144391D01*
X287201Y144347D01*
Y144333D01*
Y144325D01*
X287274Y144304D01*
X287354Y144282D01*
X287522Y144238D01*
X287712Y144202D01*
X287887Y144165D01*
X287974Y144150D01*
X288054Y144143D01*
X288127Y144129D01*
X288185Y144121D01*
X288236Y144114D01*
X288273D01*
X288302Y144107D01*
X288309D01*
X288441Y144092D01*
X288550Y144070D01*
X288645Y144056D01*
X288718Y144041D01*
X288776Y144034D01*
X288820Y144019D01*
X288849Y144012D01*
X288856D01*
X288951Y143983D01*
X289031Y143954D01*
X289111Y143917D01*
X289177Y143888D01*
X289235Y143859D01*
X289272Y143830D01*
X289301Y143815D01*
X289308Y143808D01*
X289381Y143757D01*
X289439Y143699D01*
X289498Y143640D01*
X289541Y143582D01*
X289578Y143531D01*
X289607Y143487D01*
X289622Y143458D01*
X289629Y143451D01*
X289665Y143370D01*
X289694Y143283D01*
X289716Y143203D01*
X289731Y143123D01*
X289738Y143057D01*
X289745Y143006D01*
Y142977D01*
Y142962D01*
X289738Y142875D01*
X289731Y142802D01*
X289694Y142649D01*
X289643Y142525D01*
X289585Y142415D01*
X289527Y142328D01*
X289476Y142262D01*
X289439Y142226D01*
X289425Y142211D01*
X289294Y142117D01*
X289148Y142044D01*
X288987Y141993D01*
X288842Y141956D01*
X288710Y141934D01*
X288652Y141927D01*
X288601D01*
X288557Y141920D01*
X288499D01*
X288368Y141927D01*
X288236Y141942D01*
X288120Y141956D01*
X288018Y141978D01*
X287938Y142000D01*
X287872Y142022D01*
X287828Y142029D01*
X287814Y142036D01*
X287690Y142087D01*
X287573Y142153D01*
X287464Y142226D01*
X287354Y142292D01*
X287267Y142357D01*
X287201Y142408D01*
X287158Y142445D01*
X287150Y142459D01*
X287143D01*
X287128Y142365D01*
X287114Y142277D01*
X287099Y142197D01*
X287077Y142131D01*
X287055Y142073D01*
X287041Y142036D01*
X287034Y142007D01*
X287026Y142000D01*
X286378D01*
X286414Y142080D01*
X286450Y142160D01*
X286480Y142233D01*
X286494Y142299D01*
X286516Y142357D01*
X286523Y142401D01*
X286531Y142430D01*
Y142437D01*
X286538Y142488D01*
X286545Y142554D01*
Y142627D01*
X286553Y142707D01*
X286560Y142889D01*
Y143072D01*
X286567Y143247D01*
Y143327D01*
Y143392D01*
Y143451D01*
Y143494D01*
Y143524D01*
Y143531D01*
Y144362D01*
Y144501D01*
X286574Y144624D01*
X286582Y144719D01*
Y144799D01*
X286589Y144858D01*
X286596Y144901D01*
X286603Y144923D01*
Y144931D01*
X286625Y145025D01*
X286655Y145106D01*
X286684Y145171D01*
X286720Y145237D01*
X286749Y145281D01*
X286771Y145317D01*
X286786Y145339D01*
X286793Y145346D01*
X286851Y145404D01*
X286917Y145463D01*
X286990Y145507D01*
X287063Y145550D01*
X287128Y145579D01*
X287179Y145601D01*
X287216Y145616D01*
X287230Y145623D01*
X287347Y145660D01*
X287471Y145689D01*
X287595Y145711D01*
X287719Y145725D01*
X287828Y145732D01*
X287908Y145740D01*
X287989D01*
X288164Y145732D01*
D02*
G37*
G36*
X260148Y146112D02*
X259441D01*
X259047Y146695D01*
X258668Y146112D01*
X257961D01*
X258741Y147074D01*
X259404D01*
X260148Y146112D01*
D02*
G37*
G36*
X277500Y178500D02*
X248300D01*
Y196411D01*
X277500D01*
Y178500D01*
D02*
G37*
G36*
X252690Y146338D02*
X252071D01*
Y147045D01*
X252690D01*
Y146338D01*
D02*
G37*
%LPC*%
G36*
X245262Y143837D02*
X245255D01*
X245262Y143604D01*
X245269Y143458D01*
X245276Y143334D01*
X245291Y143232D01*
X245313Y143145D01*
X245335Y143079D01*
X245349Y143028D01*
X245357Y142999D01*
X245364Y142991D01*
X245422Y142897D01*
X245481Y142809D01*
X245553Y142736D01*
X245619Y142678D01*
X245677Y142627D01*
X245728Y142590D01*
X245758Y142569D01*
X245772Y142561D01*
X245882Y142510D01*
X245991Y142474D01*
X246093Y142445D01*
X246195Y142430D01*
X246275Y142415D01*
X246348Y142408D01*
X246407D01*
X246538Y142415D01*
X246647Y142430D01*
X246742Y142459D01*
X246822Y142488D01*
X246880Y142518D01*
X246924Y142547D01*
X246953Y142561D01*
X246960Y142569D01*
X247019Y142634D01*
X247063Y142707D01*
X247099Y142773D01*
X247121Y142838D01*
X247135Y142897D01*
X247143Y142940D01*
Y142977D01*
Y142984D01*
X247135Y143043D01*
X247128Y143101D01*
X247114Y143145D01*
X247099Y143188D01*
X247084Y143225D01*
X247077Y143254D01*
X247063Y143269D01*
Y143276D01*
X246990Y143363D01*
X246902Y143422D01*
X246873Y143443D01*
X246844Y143458D01*
X246822Y143473D01*
X246815D01*
X246742Y143502D01*
X246662Y143524D01*
X246574Y143545D01*
X246487Y143560D01*
X246407Y143575D01*
X246334Y143589D01*
X246290Y143596D01*
X246275D01*
X246151Y143618D01*
X246035Y143633D01*
X245933Y143655D01*
X245830Y143677D01*
X245736Y143699D01*
X245656Y143720D01*
X245575Y143735D01*
X245510Y143757D01*
X245451Y143772D01*
X245400Y143786D01*
X245357Y143801D01*
X245320Y143815D01*
X245291Y143823D01*
X245269Y143830D01*
X245262Y143837D01*
D02*
G37*
G36*
X275489Y195624D02*
X275430D01*
X275398Y195619D01*
X275366D01*
X275279Y195610D01*
X275184Y195596D01*
X275084Y195574D01*
X274974Y195546D01*
X274874Y195510D01*
X274870D01*
X274861Y195505D01*
X274847Y195496D01*
X274829Y195487D01*
X274783Y195464D01*
X274724Y195423D01*
X274656Y195378D01*
X274588Y195319D01*
X274524Y195250D01*
X274465Y195173D01*
Y195169D01*
X274460Y195164D01*
X274451Y195150D01*
X274442Y195137D01*
X274419Y195091D01*
X274392Y195032D01*
X274360Y194959D01*
X274338Y194873D01*
X274315Y194782D01*
X274306Y194682D01*
X274706Y194650D01*
Y194655D01*
Y194664D01*
X274711Y194677D01*
X274715Y194700D01*
X274729Y194750D01*
X274747Y194818D01*
X274774Y194891D01*
X274815Y194964D01*
X274865Y195032D01*
X274929Y195096D01*
X274938Y195100D01*
X274961Y195119D01*
X275006Y195146D01*
X275065Y195173D01*
X275143Y195201D01*
X275234Y195228D01*
X275348Y195246D01*
X275475Y195250D01*
X275539D01*
X275566Y195246D01*
X275602Y195241D01*
X275684Y195232D01*
X275775Y195214D01*
X275866Y195191D01*
X275953Y195155D01*
X275989Y195132D01*
X276026Y195109D01*
X276035Y195105D01*
X276053Y195087D01*
X276080Y195055D01*
X276108Y195018D01*
X276139Y194968D01*
X276167Y194914D01*
X276185Y194850D01*
X276194Y194777D01*
Y194768D01*
Y194750D01*
X276189Y194718D01*
X276180Y194682D01*
X276167Y194636D01*
X276144Y194591D01*
X276117Y194545D01*
X276076Y194500D01*
X276071Y194495D01*
X276048Y194482D01*
X276030Y194468D01*
X276012Y194459D01*
X275985Y194445D01*
X275953Y194427D01*
X275912Y194413D01*
X275866Y194395D01*
X275816Y194377D01*
X275757Y194354D01*
X275693Y194336D01*
X275621Y194313D01*
X275539Y194295D01*
X275448Y194272D01*
X275443D01*
X275425Y194268D01*
X275398Y194263D01*
X275366Y194254D01*
X275325Y194245D01*
X275275Y194231D01*
X275225Y194218D01*
X275170Y194204D01*
X275052Y194172D01*
X274938Y194140D01*
X274884Y194122D01*
X274833Y194104D01*
X274788Y194090D01*
X274751Y194072D01*
X274747D01*
X274738Y194068D01*
X274724Y194058D01*
X274706Y194049D01*
X274656Y194022D01*
X274597Y193986D01*
X274529Y193936D01*
X274460Y193881D01*
X274397Y193817D01*
X274342Y193749D01*
X274338Y193740D01*
X274319Y193717D01*
X274301Y193676D01*
X274274Y193622D01*
X274251Y193558D01*
X274228Y193481D01*
X274215Y193394D01*
X274210Y193303D01*
Y193299D01*
Y193294D01*
Y193280D01*
Y193262D01*
X274219Y193212D01*
X274228Y193148D01*
X274247Y193076D01*
X274269Y192998D01*
X274306Y192916D01*
X274356Y192830D01*
Y192825D01*
X274360Y192821D01*
X274383Y192794D01*
X274415Y192753D01*
X274460Y192707D01*
X274519Y192652D01*
X274592Y192593D01*
X274674Y192539D01*
X274770Y192489D01*
X274774D01*
X274783Y192484D01*
X274797Y192480D01*
X274815Y192471D01*
X274843Y192461D01*
X274874Y192448D01*
X274947Y192429D01*
X275034Y192407D01*
X275138Y192384D01*
X275252Y192370D01*
X275375Y192366D01*
X275448D01*
X275484Y192370D01*
X275525D01*
X275571Y192375D01*
X275625Y192379D01*
X275739Y192398D01*
X275857Y192416D01*
X275975Y192448D01*
X276089Y192489D01*
X276094D01*
X276103Y192493D01*
X276117Y192502D01*
X276135Y192511D01*
X276189Y192539D01*
X276253Y192580D01*
X276326Y192634D01*
X276403Y192698D01*
X276476Y192775D01*
X276544Y192862D01*
Y192866D01*
X276553Y192875D01*
X276558Y192889D01*
X276571Y192907D01*
X276581Y192930D01*
X276594Y192957D01*
X276626Y193026D01*
X276658Y193112D01*
X276685Y193208D01*
X276704Y193317D01*
X276713Y193430D01*
X276321Y193467D01*
Y193462D01*
Y193458D01*
X276317Y193444D01*
Y193426D01*
X276308Y193385D01*
X276294Y193326D01*
X276276Y193267D01*
X276258Y193199D01*
X276226Y193135D01*
X276194Y193076D01*
X276189Y193071D01*
X276176Y193053D01*
X276153Y193021D01*
X276117Y192989D01*
X276071Y192948D01*
X276021Y192907D01*
X275953Y192866D01*
X275880Y192830D01*
X275875D01*
X275871Y192825D01*
X275857Y192821D01*
X275844Y192816D01*
X275798Y192803D01*
X275739Y192784D01*
X275666Y192766D01*
X275584Y192753D01*
X275493Y192744D01*
X275393Y192739D01*
X275352D01*
X275307Y192744D01*
X275252Y192748D01*
X275188Y192757D01*
X275115Y192766D01*
X275043Y192784D01*
X274974Y192807D01*
X274965Y192812D01*
X274943Y192821D01*
X274911Y192839D01*
X274870Y192857D01*
X274829Y192889D01*
X274783Y192921D01*
X274738Y192957D01*
X274701Y193003D01*
X274697Y193007D01*
X274688Y193026D01*
X274674Y193048D01*
X274656Y193085D01*
X274638Y193121D01*
X274624Y193167D01*
X274615Y193217D01*
X274610Y193271D01*
Y193276D01*
Y193299D01*
X274615Y193326D01*
X274620Y193362D01*
X274633Y193399D01*
X274647Y193444D01*
X274670Y193490D01*
X274701Y193531D01*
X274706Y193535D01*
X274720Y193549D01*
X274738Y193567D01*
X274770Y193594D01*
X274806Y193622D01*
X274856Y193654D01*
X274915Y193685D01*
X274984Y193713D01*
X274988Y193717D01*
X275011Y193722D01*
X275047Y193735D01*
X275070Y193740D01*
X275102Y193749D01*
X275134Y193763D01*
X275175Y193772D01*
X275220Y193785D01*
X275275Y193799D01*
X275329Y193813D01*
X275393Y193831D01*
X275466Y193849D01*
X275543Y193867D01*
X275548D01*
X275561Y193872D01*
X275584Y193876D01*
X275611Y193886D01*
X275648Y193895D01*
X275689Y193904D01*
X275780Y193931D01*
X275880Y193963D01*
X275985Y193995D01*
X276076Y194027D01*
X276117Y194045D01*
X276153Y194063D01*
X276157D01*
X276162Y194068D01*
X276189Y194086D01*
X276230Y194108D01*
X276276Y194145D01*
X276330Y194186D01*
X276385Y194236D01*
X276440Y194295D01*
X276485Y194359D01*
X276490Y194368D01*
X276503Y194391D01*
X276521Y194427D01*
X276540Y194473D01*
X276558Y194532D01*
X276576Y194600D01*
X276590Y194673D01*
X276594Y194750D01*
Y194755D01*
Y194759D01*
Y194773D01*
Y194791D01*
X276585Y194836D01*
X276576Y194896D01*
X276562Y194964D01*
X276540Y195041D01*
X276508Y195119D01*
X276462Y195196D01*
Y195201D01*
X276458Y195205D01*
X276435Y195232D01*
X276403Y195269D01*
X276362Y195314D01*
X276308Y195364D01*
X276239Y195419D01*
X276157Y195469D01*
X276066Y195514D01*
X276062D01*
X276053Y195519D01*
X276039Y195524D01*
X276021Y195533D01*
X275998Y195542D01*
X275966Y195551D01*
X275898Y195569D01*
X275812Y195587D01*
X275712Y195605D01*
X275607Y195619D01*
X275489Y195624D01*
D02*
G37*
G36*
X273063D02*
X272754D01*
X273669Y192366D01*
X273978D01*
X273063Y195624D01*
D02*
G37*
G36*
X269182Y192862D02*
X268741D01*
Y192420D01*
X269182D01*
Y192862D01*
D02*
G37*
G36*
Y194704D02*
X268741D01*
Y194263D01*
X269182D01*
Y194704D01*
D02*
G37*
G36*
X272417Y195569D02*
X271990D01*
X270338Y193094D01*
Y195569D01*
X269938D01*
Y192420D01*
X270370D01*
X272017Y194891D01*
Y192420D01*
X272417D01*
Y195569D01*
D02*
G37*
G36*
X294652Y143837D02*
X294644D01*
X294652Y143604D01*
X294659Y143458D01*
X294666Y143334D01*
X294681Y143232D01*
X294703Y143145D01*
X294725Y143079D01*
X294739Y143028D01*
X294746Y142999D01*
X294754Y142991D01*
X294812Y142897D01*
X294870Y142809D01*
X294943Y142736D01*
X295009Y142678D01*
X295067Y142627D01*
X295118Y142590D01*
X295147Y142569D01*
X295162Y142561D01*
X295271Y142510D01*
X295381Y142474D01*
X295483Y142445D01*
X295585Y142430D01*
X295665Y142415D01*
X295738Y142408D01*
X295796D01*
X295927Y142415D01*
X296037Y142430D01*
X296132Y142459D01*
X296212Y142488D01*
X296270Y142518D01*
X296314Y142547D01*
X296343Y142561D01*
X296350Y142569D01*
X296409Y142634D01*
X296452Y142707D01*
X296489Y142773D01*
X296511Y142838D01*
X296525Y142897D01*
X296533Y142940D01*
Y142977D01*
Y142984D01*
X296525Y143043D01*
X296518Y143101D01*
X296503Y143145D01*
X296489Y143188D01*
X296474Y143225D01*
X296467Y143254D01*
X296452Y143269D01*
Y143276D01*
X296379Y143363D01*
X296292Y143422D01*
X296263Y143443D01*
X296234Y143458D01*
X296212Y143473D01*
X296204D01*
X296132Y143502D01*
X296051Y143524D01*
X295964Y143545D01*
X295876Y143560D01*
X295796Y143575D01*
X295723Y143589D01*
X295680Y143596D01*
X295665D01*
X295541Y143618D01*
X295424Y143633D01*
X295322Y143655D01*
X295220Y143677D01*
X295126Y143699D01*
X295045Y143720D01*
X294965Y143735D01*
X294900Y143757D01*
X294841Y143772D01*
X294790Y143786D01*
X294746Y143801D01*
X294710Y143815D01*
X294681Y143823D01*
X294659Y143830D01*
X294652Y143837D01*
D02*
G37*
G36*
X287201D02*
X287194D01*
X287201Y143604D01*
X287209Y143458D01*
X287216Y143334D01*
X287230Y143232D01*
X287252Y143145D01*
X287274Y143079D01*
X287289Y143028D01*
X287296Y142999D01*
X287303Y142991D01*
X287362Y142897D01*
X287420Y142809D01*
X287493Y142736D01*
X287559Y142678D01*
X287617Y142627D01*
X287668Y142590D01*
X287697Y142569D01*
X287712Y142561D01*
X287821Y142510D01*
X287930Y142474D01*
X288032Y142445D01*
X288134Y142430D01*
X288215Y142415D01*
X288287Y142408D01*
X288346D01*
X288477Y142415D01*
X288586Y142430D01*
X288681Y142459D01*
X288761Y142488D01*
X288820Y142518D01*
X288863Y142547D01*
X288893Y142561D01*
X288900Y142569D01*
X288958Y142634D01*
X289002Y142707D01*
X289038Y142773D01*
X289060Y142838D01*
X289075Y142897D01*
X289082Y142940D01*
Y142977D01*
Y142984D01*
X289075Y143043D01*
X289068Y143101D01*
X289053Y143145D01*
X289038Y143188D01*
X289024Y143225D01*
X289017Y143254D01*
X289002Y143269D01*
Y143276D01*
X288929Y143363D01*
X288842Y143422D01*
X288812Y143443D01*
X288783Y143458D01*
X288761Y143473D01*
X288754D01*
X288681Y143502D01*
X288601Y143524D01*
X288513Y143545D01*
X288426Y143560D01*
X288346Y143575D01*
X288273Y143589D01*
X288229Y143596D01*
X288215D01*
X288091Y143618D01*
X287974Y143633D01*
X287872Y143655D01*
X287770Y143677D01*
X287675Y143699D01*
X287595Y143720D01*
X287515Y143735D01*
X287449Y143757D01*
X287391Y143772D01*
X287340Y143786D01*
X287296Y143801D01*
X287260Y143815D01*
X287230Y143823D01*
X287209Y143830D01*
X287201Y143837D01*
D02*
G37*
G36*
X259098Y145229D02*
X259055D01*
X258967Y145222D01*
X258887Y145215D01*
X258741Y145178D01*
X258610Y145120D01*
X258501Y145054D01*
X258413Y144989D01*
X258348Y144938D01*
X258304Y144894D01*
X258289Y144887D01*
Y144879D01*
X258231Y144814D01*
X258187Y144734D01*
X258107Y144573D01*
X258049Y144398D01*
X258012Y144238D01*
X257990Y144085D01*
X257983Y144019D01*
Y143961D01*
X257976Y143917D01*
Y143881D01*
Y143859D01*
Y143852D01*
Y143720D01*
X257990Y143596D01*
X258005Y143487D01*
X258027Y143378D01*
X258049Y143283D01*
X258078Y143196D01*
X258100Y143115D01*
X258129Y143043D01*
X258158Y142984D01*
X258187Y142926D01*
X258216Y142882D01*
X258238Y142846D01*
X258260Y142816D01*
X258275Y142795D01*
X258282Y142787D01*
X258289Y142780D01*
X258348Y142722D01*
X258413Y142663D01*
X258537Y142576D01*
X258668Y142518D01*
X258785Y142474D01*
X258894Y142452D01*
X258974Y142437D01*
X259011Y142430D01*
X259055D01*
X259142Y142437D01*
X259222Y142445D01*
X259375Y142481D01*
X259507Y142540D01*
X259616Y142605D01*
X259703Y142663D01*
X259769Y142722D01*
X259813Y142758D01*
X259820Y142773D01*
X259827D01*
X259878Y142846D01*
X259929Y142919D01*
X260002Y143086D01*
X260061Y143261D01*
X260097Y143436D01*
X260119Y143589D01*
X260126Y143655D01*
Y143713D01*
X260134Y143764D01*
Y143801D01*
Y143823D01*
Y143830D01*
X260126Y143954D01*
X260119Y144078D01*
X260104Y144187D01*
X260083Y144289D01*
X260061Y144384D01*
X260039Y144471D01*
X260010Y144544D01*
X259980Y144617D01*
X259951Y144675D01*
X259922Y144734D01*
X259900Y144778D01*
X259878Y144814D01*
X259857Y144843D01*
X259842Y144865D01*
X259827Y144872D01*
Y144879D01*
X259769Y144938D01*
X259703Y144996D01*
X259579Y145084D01*
X259448Y145142D01*
X259324Y145186D01*
X259215Y145215D01*
X259135Y145222D01*
X259098Y145229D01*
D02*
G37*
G36*
X267307D02*
X267263D01*
X267176Y145222D01*
X267095Y145215D01*
X266942Y145171D01*
X266811Y145113D01*
X266702Y145047D01*
X266614Y144982D01*
X266549Y144923D01*
X266512Y144879D01*
X266498Y144872D01*
Y144865D01*
X266432Y144770D01*
X266374Y144661D01*
X266337Y144552D01*
X266301Y144435D01*
X266279Y144340D01*
X266264Y144253D01*
Y144223D01*
X266257Y144202D01*
Y144187D01*
Y144180D01*
X268306D01*
X268284Y144347D01*
X268240Y144501D01*
X268189Y144632D01*
X268131Y144734D01*
X268080Y144821D01*
X268029Y144887D01*
X267999Y144923D01*
X267985Y144938D01*
X267868Y145033D01*
X267752Y145106D01*
X267628Y145157D01*
X267511Y145193D01*
X267416Y145215D01*
X267336Y145222D01*
X267307Y145229D01*
D02*
G37*
G36*
X279481D02*
X279437D01*
X279350Y145222D01*
X279270Y145215D01*
X279124Y145178D01*
X278993Y145120D01*
X278883Y145054D01*
X278796Y144989D01*
X278730Y144938D01*
X278687Y144894D01*
X278672Y144887D01*
Y144879D01*
X278614Y144814D01*
X278570Y144734D01*
X278490Y144573D01*
X278431Y144398D01*
X278395Y144238D01*
X278373Y144085D01*
X278366Y144019D01*
Y143961D01*
X278359Y143917D01*
Y143881D01*
Y143859D01*
Y143852D01*
Y143720D01*
X278373Y143596D01*
X278388Y143487D01*
X278410Y143378D01*
X278431Y143283D01*
X278461Y143196D01*
X278483Y143115D01*
X278512Y143043D01*
X278541Y142984D01*
X278570Y142926D01*
X278599Y142882D01*
X278621Y142846D01*
X278643Y142816D01*
X278657Y142795D01*
X278665Y142787D01*
X278672Y142780D01*
X278730Y142722D01*
X278796Y142663D01*
X278920Y142576D01*
X279051Y142518D01*
X279168Y142474D01*
X279277Y142452D01*
X279357Y142437D01*
X279394Y142430D01*
X279437D01*
X279525Y142437D01*
X279605Y142445D01*
X279758Y142481D01*
X279889Y142540D01*
X279999Y142605D01*
X280086Y142663D01*
X280152Y142722D01*
X280196Y142758D01*
X280203Y142773D01*
X280210D01*
X280261Y142846D01*
X280312Y142919D01*
X280385Y143086D01*
X280444Y143261D01*
X280480Y143436D01*
X280502Y143589D01*
X280509Y143655D01*
Y143713D01*
X280516Y143764D01*
Y143801D01*
Y143823D01*
Y143830D01*
X280509Y143954D01*
X280502Y144078D01*
X280487Y144187D01*
X280465Y144289D01*
X280444Y144384D01*
X280422Y144471D01*
X280392Y144544D01*
X280363Y144617D01*
X280334Y144675D01*
X280305Y144734D01*
X280283Y144778D01*
X280261Y144814D01*
X280239Y144843D01*
X280225Y144865D01*
X280210Y144872D01*
Y144879D01*
X280152Y144938D01*
X280086Y144996D01*
X279962Y145084D01*
X279831Y145142D01*
X279707Y145186D01*
X279598Y145215D01*
X279518Y145222D01*
X279481Y145229D01*
D02*
G37*
%LPD*%
M02*
