G04 Layer_Color=255*
%FSLAX25Y25*%
%MOIN*%
G70*
G01*
G75*
%ADD10R,0.03937X0.03150*%
%ADD11R,0.03150X0.03937*%
%ADD12R,0.05315X0.05118*%
%ADD13R,0.06693X0.06496*%
%ADD14R,0.06496X0.06693*%
%ADD15R,0.06890X0.04724*%
%ADD16R,0.04724X0.06890*%
G04:AMPARAMS|DCode=17|XSize=70.87mil|YSize=125.98mil|CornerRadius=0mil|HoleSize=0mil|Usage=FLASHONLY|Rotation=270.000|XOffset=0mil|YOffset=0mil|HoleType=Round|Shape=Octagon|*
%AMOCTAGOND17*
4,1,8,0.06299,0.01772,0.06299,-0.01772,0.04528,-0.03543,-0.04528,-0.03543,-0.06299,-0.01772,-0.06299,0.01772,-0.04528,0.03543,0.04528,0.03543,0.06299,0.01772,0.0*
%
%ADD17OCTAGOND17*%

%ADD18R,0.05118X0.03543*%
%ADD19R,0.05906X0.03543*%
%ADD22C,0.07874*%
%ADD23C,0.09843*%
%ADD24R,0.07874X0.07874*%
D10*
X202500Y186469D02*
D03*
Y192532D02*
D03*
X275000Y169032D02*
D03*
Y162969D02*
D03*
D11*
X259469Y164000D02*
D03*
X265531D02*
D03*
D12*
X235000Y158669D02*
D03*
Y167331D02*
D03*
D13*
X229500Y133626D02*
D03*
Y149374D02*
D03*
X191500Y137626D02*
D03*
Y153374D02*
D03*
X294500Y123626D02*
D03*
Y139374D02*
D03*
D14*
X252126Y176500D02*
D03*
X267874D02*
D03*
X219626Y190500D02*
D03*
X235374D02*
D03*
X271374Y191000D02*
D03*
X255626D02*
D03*
D15*
X312000Y123004D02*
D03*
Y135996D02*
D03*
D16*
X299996Y159000D02*
D03*
X287004D02*
D03*
D17*
X190350Y173000D02*
D03*
D18*
X199996Y178905D02*
D03*
Y167095D02*
D03*
D19*
X199602Y173000D02*
D03*
D22*
X216000Y147843D02*
D03*
Y128157D02*
D03*
X287610Y182000D02*
D03*
X301390D02*
D03*
X308874Y167842D02*
D03*
Y148158D02*
D03*
X193126Y127685D02*
D03*
Y188315D02*
D03*
X245500Y123504D02*
D03*
X255500D02*
D03*
X265500D02*
D03*
X275500D02*
D03*
X245500Y155000D02*
D03*
X255500D02*
D03*
X265500D02*
D03*
D23*
X212441Y178000D02*
D03*
X240000D02*
D03*
D24*
X275500Y155000D02*
D03*
M02*
