G04 Layer_Color=8388736*
%FSLAX25Y25*%
%MOIN*%
G70*
G01*
G75*
%ADD29R,0.04737X0.03950*%
%ADD30R,0.03950X0.04737*%
%ADD31R,0.06115X0.05918*%
%ADD32R,0.07493X0.07296*%
%ADD33R,0.07296X0.07493*%
%ADD34R,0.07690X0.05524*%
%ADD35R,0.05524X0.07690*%
G04:AMPARAMS|DCode=36|XSize=78.87mil|YSize=133.98mil|CornerRadius=0mil|HoleSize=0mil|Usage=FLASHONLY|Rotation=270.000|XOffset=0mil|YOffset=0mil|HoleType=Round|Shape=Octagon|*
%AMOCTAGOND36*
4,1,8,0.06699,0.01972,0.06699,-0.01972,0.04728,-0.03943,-0.04728,-0.03943,-0.06699,-0.01972,-0.06699,0.01972,-0.04728,0.03943,0.04728,0.03943,0.06699,0.01972,0.0*
%
%ADD36OCTAGOND36*%

%ADD37R,0.05918X0.04343*%
%ADD38R,0.06706X0.04343*%
%ADD39C,0.08674*%
%ADD40C,0.10642*%
%ADD41R,0.08674X0.08674*%
D29*
X202500Y186469D02*
D03*
Y192532D02*
D03*
X275000Y169032D02*
D03*
Y162969D02*
D03*
D30*
X259469Y164000D02*
D03*
X265531D02*
D03*
D31*
X235000Y158669D02*
D03*
Y167331D02*
D03*
D32*
X229500Y133626D02*
D03*
Y149374D02*
D03*
X191500Y137626D02*
D03*
Y153374D02*
D03*
X294500Y123626D02*
D03*
Y139374D02*
D03*
D33*
X252126Y176500D02*
D03*
X267874D02*
D03*
X219626Y190500D02*
D03*
X235374D02*
D03*
X271374Y191000D02*
D03*
X255626D02*
D03*
D34*
X312000Y123004D02*
D03*
Y135996D02*
D03*
D35*
X299996Y159000D02*
D03*
X287004D02*
D03*
D36*
X190350Y173000D02*
D03*
D37*
X199996Y178905D02*
D03*
Y167095D02*
D03*
D38*
X199602Y173000D02*
D03*
D39*
X216000Y147843D02*
D03*
Y128157D02*
D03*
X287610Y182000D02*
D03*
X301390D02*
D03*
X308874Y167842D02*
D03*
Y148158D02*
D03*
X193126Y127685D02*
D03*
Y188315D02*
D03*
X245500Y123504D02*
D03*
X255500D02*
D03*
X265500D02*
D03*
X275500D02*
D03*
X245500Y155000D02*
D03*
X255500D02*
D03*
X265500D02*
D03*
D40*
X212441Y178000D02*
D03*
X240000D02*
D03*
D41*
X275500Y155000D02*
D03*
M02*
