G04 Layer_Color=16711935*
%FSLAX25Y25*%
%MOIN*%
G70*
G01*
G75*
%ADD27C,0.00394*%
%ADD42R,0.10984X0.02420*%
%ADD43R,0.02420X0.10984*%
D27*
X310248Y182000D02*
G03*
X310248Y182000I-15748J0D01*
G01*
X200827Y186252D02*
Y192748D01*
X204173Y186252D02*
Y192748D01*
X200827Y186252D02*
X204173D01*
X200827Y192748D02*
X204173D01*
X259252Y165673D02*
X265748D01*
X259252Y162327D02*
X265748D01*
X259252D02*
Y165673D01*
X265748Y162327D02*
Y165673D01*
X276673Y162752D02*
Y169248D01*
X273327Y162752D02*
Y169248D01*
X276673D01*
X273327Y162752D02*
X276673D01*
X232539Y158965D02*
Y167035D01*
X237461Y158965D02*
Y167035D01*
X232539Y158965D02*
X237461D01*
X232539Y167035D02*
X237461D01*
X224008Y132504D02*
X234992D01*
X224008Y150496D02*
X234992D01*
X224008Y132504D02*
Y150496D01*
X234992Y132504D02*
Y150496D01*
X251004Y171008D02*
Y181992D01*
X268996Y171008D02*
Y181992D01*
X251004D02*
X268996D01*
X251004Y171008D02*
X268996D01*
X218504Y185008D02*
Y195992D01*
X236496Y185008D02*
Y195992D01*
X218504D02*
X236496D01*
X218504Y185008D02*
X236496D01*
X186008Y136504D02*
X196992D01*
X186008Y154496D02*
X196992D01*
X186008Y136504D02*
Y154496D01*
X196992Y136504D02*
Y154496D01*
X272496Y185508D02*
Y196492D01*
X254504Y185508D02*
Y196492D01*
Y185508D02*
X272496D01*
X254504Y196492D02*
X272496D01*
X289008Y122504D02*
X299992D01*
X289008Y140496D02*
X299992D01*
X289008Y122504D02*
Y140496D01*
X299992Y122504D02*
Y140496D01*
X308752Y123102D02*
X315248D01*
X308752Y135898D02*
X315248D01*
X308752Y123102D02*
Y135898D01*
X315248Y123102D02*
Y135898D01*
X299898Y155752D02*
Y162248D01*
X287102Y155752D02*
Y162248D01*
Y155752D02*
X299898D01*
X287102Y162248D02*
X299898D01*
X188382Y182055D02*
X198618D01*
X188382Y163945D02*
X198618D01*
X188382D02*
Y182055D01*
X198618Y163945D02*
Y182055D01*
D42*
X229500Y149286D02*
D03*
X191500Y153286D02*
D03*
X294500Y139286D02*
D03*
D43*
X267786Y176500D02*
D03*
X235286Y190500D02*
D03*
X255714Y191000D02*
D03*
M02*
